<svg xmlns="http://www.w3.org/2000/svg" width="1000" height="557"
    shape-rendering="geometricPrecision" text-rendering="geometricPrecision"
    image-rendering="optimizeQuality" fill-rule="evenodd" clip-rule="evenodd">
    <path fill="currentColor"
        d="M627.5 288.5c-1.473 2.272-3.64 3.605-6.5 4-.591.983-.257 1.65 1 2 2.646-1.177 5.312-1.177 8 0a811.304 811.304 0 0031.5-6l6 .5a40.23 40.23 0 01-11 2l2 1a86.258 86.258 0 0019.5-.5c5.229.34 10.395 1.007 15.5 2a4.457 4.457 0 002-1.5 421.743 421.743 0 0023.5-2.5 103.216 103.216 0 0028 1l10 2a1513.2 1513.2 0 0122.5-2c3.863.132 7.363 1.132 10.5 3 .7-1.532 1.866-2.532 3.5-3 1.211.774 1.211 1.607 0 2.5 1.667.667 3.333.667 5 0l-3-1c5.176-1.375 10.342-1.875 15.5-1.5a84.8 84.8 0 0010.5 1.5l2 3a18.453 18.453 0 01-6 .5v3c-1.7-.126-3.2-.793-4.5-2-.381.982-1.214 1.648-2.5 2-1.871-1.715-4.204-2.049-7-1-1.82-.149-3.32-.816-4.5-2a4.934 4.934 0 00-.5 3c-8.866-.597-17.533.07-26 2-1.611-.82-2.278-2.154-2-4-2.619.268-5.119-.065-7.5-1-1.388 1.236-2.554 2.569-3.5 4a38.822 38.822 0 00-8.5 2 29.517 29.517 0 00-4.5-2.5 237.946 237.946 0 01-19-1.5 65.292 65.292 0 01-18.5 5c-2.152-1.777-1.985-3.277.5-4.5-1.973-2.015-3.64-1.848-5 .5-.886-.825-1.219-1.825-1-3-1.846-.278-3.18.389-4 2 1.429 1.831 1.929 3.831 1.5 6a27.261 27.261 0 00-7-2c-3.017 1.207-6.017 1.207-9 0a48.734 48.734 0 00-11 3c-2.208-.945-4.708-.945-7.5 0a514.367 514.367 0 01-3-4 20.69 20.69 0 01-5 1c0-.667-.333-1-1-1 .131-.876-.202-1.543-1-2-1.526.494-2.859 1.161-4 2-5.033 2.485-10.033 2.485-15 0-1.946 1.587-3.446 1.254-4.5-1-1.793 2.306-3.96 2.639-6.5 1-1.449 1.117-3.116 1.784-5 2-2.598-.649-5.098-.649-7.5 0-1.011-.392-1.511-1.059-1.5-2-8.674 1.217-17.507 1.217-26.5 0a26.922 26.922 0 00-8 2c-1.261-.259-2.261-.926-3-2a9.201 9.201 0 01-4.5 2c-3-1.333-6-1.333-9 0a6.895 6.895 0 01-4-2c-5.168 2.499-10.335 2.499-15.5 0-3.121 1.933-6.454 1.933-10 0a108.036 108.036 0 01-9 2c-9.66-.858-19.16-.858-28.5 0a24.325 24.325 0 00-8.5 2c-3.19-2.569-6.356-2.569-9.5 0-1.303-1.218-2.303-.885-3 1a5.576 5.576 0 00-3-1c-.597.639-1.43.972-2.5 1a152.043 152.043 0 00-11.5-1.5c-1.941-.304-3.607-1.137-5-2.5-4.095.273-7.762 1.273-11 3-10.327.127-20.66.46-31 1-.76-.989-1.927-1.655-3.5-2l-4 2c-3.063-.435-3.23-1.268-.5-2.5-2.062-.564-3.895-.064-5.5 1.5a27.395 27.395 0 00-3.5-1c-6.683 1.001-13.35 2.001-20 3-1.634-.468-2.8-1.468-3.5-3a43.097 43.097 0 00-8.5 3c-5.759-2.027-11.592-2.36-17.5-1-1.261-.259-2.261-.926-3-2-4.968.351-10.135 1.018-15.5 2-6.826-1.435-13.659-1.768-20.5-1-4.074-1.64-8.241-2.473-12.5-2.5l4 1a4.457 4.457 0 01-2 1.5c-3.015-1.28-6.015-1.613-9-1a453.451 453.451 0 00-29-1.5 19.95 19.95 0 01-8-2.5l-2 3c-3.969-1.174-7.969-1.174-12 0a20.2 20.2 0 01-6-1.5c1.196-.654 1.196-1.154 0-1.5a105.33 105.33 0 00-13 3 16.229 16.229 0 01-5-2 1541.363 1541.363 0 01-52.5 3c-1.981-.129-3.647-.796-5-2a195.067 195.067 0 00-27.5 1 1248.636 1248.636 0 01-45-2.5 481.653 481.653 0 01-7-5.5c2.908-.659 3.242-1.493 1-2.5l2-.5a32.7 32.7 0 004.5 2c39.905.029 79.738-.304 119.5-1 4.037.405 7.87 1.405 11.5 3l1-2a392.958 392.958 0 0135 1c4.463-2.309 9.13-2.642 14-1a41.932 41.932 0 007-2c2.4.544 4.733 1.211 7 2 8.783-1.232 17.617-1.232 26.5 0a28.741 28.741 0 00-2-7c.247-1.213.914-1.88 2-2-2.545-4.466-4.212-9.3-5-14.5 1.063-3.426.396-6.593-2-9.5l2-2c-.346-1.196-.846-1.196-1.5 0-.089-3.528-.756-6.862-2-10a154.652 154.652 0 00-1.5-15.5c.392-1.011 1.059-1.511 2-1.5-1.958-2.637-1.958-4.971 0-7-1.343-11.072-.343-21.905 3-32.5-1.117-3.073-1.284-6.24-.5-9.5 2.463-10.9 5.463-21.9 9-33a925.945 925.945 0 0118.5-38 59.693 59.693 0 0110.5-12 30.446 30.446 0 014.5-10c4.083-5.589 8.75-10.755 14-15.5-.951-.718-1.117-1.55-.5-2.5 4.871-1.2 8.204-4.2 10-9a11.357 11.357 0 013.5-1.5c-1.211-.893-1.211-1.726 0-2.5 1.333-1.333 2.667-1.333 4 0 3.736-2.31 3.736-2.977 0-2-1.333-.667-1.333-1.333 0-2a46.71 46.71 0 0113-6.5c2.521-3.26 5.855-4.927 10-5a102.477 102.477 0 0116-11c1.595.617 2.928.284 4-1l-1-1c3.421.121 6.088-1.212 8-4 7.323-3.328 14.657-6.661 22-10 2.627-.212 4.627.121 6 1l4-2-2-1a66.557 66.557 0 016-2.5c1.239 1.507.905 2.674-1 3.5 2.053.325 4.053-.009 6-1a3.647 3.647 0 01-1-1.5l5-1c14.39-1.484 28.556-3.15 42.5-5 4.4 1.983 8.9 2.316 13.5 1 2.194.454 4.027 1.454 5.5 3 5.624-1.503 11.124-1.17 16.5 1-.485 2.612.349 2.612 2.5 0a6956.81 6956.81 0 0131 9c8.573.358 16.073 3.692 22.5 10 1.196-.346 1.196-.846 0-1.5 1-.667 2-.667 3 0a820.309 820.309 0 0141 28 54.726 54.726 0 019.5 12.5c.423-1.456 1.256-1.956 2.5-1.5A308.222 308.222 0 00668 81.5a15.645 15.645 0 002.5 4 3.647 3.647 0 01-1 1.5c4.5 5.167 9.333 10 14.5 14.5a20.64 20.64 0 002 6c17.327 23.423 28.327 49.089 33 77a426.536 426.536 0 003.5 32c-.463 20.712-3.297 41.045-8.5 61a35.063 35.063 0 01-7.5 6.5c.457.414.791.914 1 1.5-2.035 1.097-3.368 2.763-4 5l-1-2a26.248 26.248 0 013-5.5l-.5-1.5c-.535 1.771-1.369 2.104-2.5 1a12.403 12.403 0 012.5-4l1 1a68.059 68.059 0 013.5-13l-1-2a214.55 214.55 0 005-31c-8.421.071-16.921.738-25.5 2a179.952 179.952 0 00-19-1 541.46 541.46 0 00-38.5 3c-3.132.356-6.132-.478-9-2.5l3-1.5c2.768-.303 5.268.03 7.5 1 .677-2.189 1.844-2.522 3.5-1 5.804-.414 11.637-1.414 17.5-3 7.695.177 15.361.177 23 0a37.138 37.138 0 014.5-2c11.084 1.428 22.084 1.761 33 1 .245-20.816-2.422-41.149-8-61a1467.889 1467.889 0 01-10.5-29l-3.5-5.5 1-1c-5.622-7.361-9.622-15.528-12-24.5-1.175.219-2.175-.114-3-1a86.401 86.401 0 00-7.5-10 1270.288 1270.288 0 00-31 2 76.618 76.618 0 00-10.5-1 592.233 592.233 0 00-19.5 2c-2.138.352-4.304-.148-6.5-1.5 1.036-1.617 2.203-1.784 3.5-.5a801.901 801.901 0 0018-3l5 1c13.231-.94 26.064-1.44 38.5-1.5a170.723 170.723 0 00-21-23c-5.195-1.858-9.195-5.192-12-10a1521.507 1521.507 0 00-38-23 163.288 163.288 0 00-16-6.5 3053.78 3053.78 0 01-14.5 206c-.883 2.602-2.383 4.769-4.5 6.5a20.431 20.431 0 011.5 5.5 10.94 10.94 0 014.5-3c5.611 5.147 11.945 9.314 19 12.5a386.091 386.091 0 0029 8c5.788 4.749 8.454 10.915 8 18.5 1.88-.271 3.213.396 4 2zm-127-269h13a4337.562 4337.562 0 0112.5 219c.85 1.51 1.683 3.01 2.5 4.5-.456 3.734-1.956 6.901-4.5 9.5a166.721 166.721 0 00-1 34 11.532 11.532 0 003.5 4.5c6 .667 12 .667 18 0 2.406-1.622 4.239-3.789 5.5-6.5a25.55 25.55 0 005.5 6.5c-1.522 1.328-3.189 1.162-5-.5-7.05 2.222-14.217 2.889-21.5 2a40.179 40.179 0 00-6 2 595.813 595.813 0 00-34.5 0 24.227 24.227 0 01-9-1.5c1.581-5.022 1.081-9.855-1.5-14.5a859.255 859.255 0 00-22.5-16.5c-6.032-5.53-10.699-12.03-14-19.5-1.667-1.333-3.333-1.333-5 0-1.163-2.05-.996-4.05.5-6a21.53 21.53 0 006-5c21.842-46.191 38.508-94.191 50-144a1069.812 1069.812 0 007.5-68zm-68 12c3.747 36.6 1.247 72.934-7.5 109a690.578 690.578 0 01-20 75c1.198 4.289.531 8.289-2 12-3.974 1.307-6.641 3.974-8 8a302.513 302.513 0 00-10.5 26.5c.235 3.399 1.902 5.732 5 7a118.229 118.229 0 0014 4.5c2.771-.256 4.938-1.59 6.5-4 .936 3.707 2.769 6.874 5.5 9.5l33 13c-12.83 2.481-25.83 2.647-39 .5a324.51 324.51 0 00-29.5 2 447.138 447.138 0 00-38.5-3c-8.203 1.95-16.537 2.45-25 1.5a11.333 11.333 0 01-3.5-1.5l-1-9c-1.556-1.02-2.722-2.353-3.5-4a435.17 435.17 0 01-8-35 7.293 7.293 0 012-3 116.258 116.258 0 01-3-12c.91-16.057 3.076-32.057 6.5-48 3.135-1.299 6.301-1.299 9.5 0a4.457 4.457 0 001.5-2c2.42.988 4.753.655 7-1 2.419 2.094 4.586 2.094 6.5 0 1.529.029 2.696.696 3.5 2 1.574-1.348 3.407-2.014 5.5-2 3.322.345 6.655.679 10 1 5.508-.946 10.841-1.612 16-2a37.138 37.138 0 00-2-4.5 32.444 32.444 0 01-6-1.5 71.524 71.524 0 01-13 1c-3.068-1.859-5.902-1.859-8.5 0-5.515.93-11.182.93-17 0a68.96 68.96 0 00-11 4c-.484-2.413-.15-4.746 1-7a152.453 152.453 0 018-18c.769-2.599.602-5.099-.5-7.5a2204.956 2204.956 0 0020.5-38.5L351.5 88l-1-1a65.337 65.337 0 0012-11.5 26.131 26.131 0 019-3.5c1.537-1.11 2.203-2.61 2-4.5a8.435 8.435 0 004-.5c5.733-5.182 11.4-10.349 17-15.5a179.827 179.827 0 0025-14.5c4.873-.784 9.206-2.617 13-5.5zm-137 206c1.431 1.28 2.098 2.947 2 5-3.851-.679-4.518-2.346-2-5zm6 47c2.796 2.215 3.796 4.881 3 8l-3-8zm277 7c4.034.172 8.034.672 12 1.5a49.226 49.226 0 01-14 0c.916-.278 1.582-.778 2-1.5zm25 2a9.86 9.86 0 01-6-1l3-1c1.53.14 2.53.807 3 2zm4 0c.111-.617.444-1.117 1-1.5 3.533-.903 6.867-.57 10 1-3.802.917-7.468 1.083-11 .5zm167 2c2.193-1.297 4.527-1.297 7 0-2.271.863-4.605.863-7 0zm-111 5c3.247-3.455 7.247-4.955 12-4.5a90.245 90.245 0 01-12 4.5zm-44-4c1.282 1.208 1.282 2.542 0 4-2.625-1.365-2.625-2.698 0-4zm38 4h-5c1.141-.839 2.474-1.506 4-2 .798.457 1.131 1.124 1 2zm-187 4a28.208 28.208 0 00-4-1.5c1.963-.844 3.296-.344 4 1.5z"
        opacity="1" />
    <path fill="currentColor" d="M600.5 98.5c1.333.667 1.333.667 0 0z" opacity="1" />
    <path fill="currentColor" d="M618.5 236.5c.397-1.025 1.063-1.192 2-.5a2.428 2.428 0 01-2 .5z"
        opacity="1" />
    <path fill="currentColor"
        d="M627.5 288.5c2.988.061 5.821-.605 8.5-2l2.5 1a32.5 32.5 0 01-7 3c-1.855.16-3.188-.507-4-2z"
        opacity="1" />
    <path fill="currentColor"
        d="M675.5 287.5c2.205.346 2.372 1.013.5 2-1.578 1.047-3.078 1.047-4.5 0a71.254 71.254 0 004-2z"
        opacity="1" />
    <path fill="currentColor"
        d="M855.5 288.5a77.261 77.261 0 016 4 110.84 110.84 0 00-16.5 3c-3.014-1.65-6.181-2.15-9.5-1.5 1.43 1.88 1.096 3.38-1 4.5-3.654-.23-7.321-.563-11-1 3.531-1.605 6.531-3.938 9-7a66.566 66.566 0 0014.5 1 82.284 82.284 0 018.5-3z"
        opacity="1" />
    <path fill="currentColor"
        d="M864.5 289.5a30.644 30.644 0 018.5 3c2.468-1.003 4.968-1.503 7.5-1.5l1 1-6 2 3 1.5c1.64-1.93 3.64-2.763 6-2.5-2.505 3.5-5.839 4.833-10 4a114.963 114.963 0 00-11-6c.556-.383.889-.883 1-1.5z"
        opacity="1" />
    <path fill="currentColor"
        d="M898.5 291.5c-1.6 2.351-3.933 3.684-7 4l-1-1c1.719-4.654 4.386-5.654 8-3z" opacity="1" />
    <path fill="currentColor" d="M823.5 290.5c2.483.23 2.983.897 1.5 2-1.03-.336-1.53-1.003-1.5-2z"
        opacity="1" />
    <path fill="currentColor" d="M898.5 291.5a31.6 31.6 0 018-.5c-2.817 2.83-5.483 2.997-8 .5z"
        opacity="1" />
    <path fill="currentColor" d="M954.5 290.5c1.965.448 2.298 1.448 1 3-.886-.825-1.219-1.825-1-3z"
        opacity="1" />
    <path fill="currentColor" d="M72.5 294.5c-4.088.282-4.588-.385-1.5-2 1.03.336 1.53 1.003 1.5 2z"
        opacity="1" />
    <path fill="currentColor"
        d="M912.5 293.5a112.97 112.97 0 0115 .5 112.222 112.222 0 00-13 3.5l-3-1.5c.752-.671 1.086-1.504 1-2.5z"
        opacity="1" />
    <path fill="currentColor"
        d="M931.5 293.5c1.175-.219 2.175.114 3 1-1.223 1.114-2.556 1.281-4 .5.556-.383.889-.883 1-1.5z"
        opacity="1" />
    <path fill="currentColor" d="M855.5 294.5a9.86 9.86 0 016 1l-3 1c-1.53-.14-2.53-.807-3-2z"
        opacity="1" />
    <path fill="currentColor"
        d="M838.5 296.5c4.088-.282 4.588.385 1.5 2-1.03-.336-1.53-1.003-1.5-2z" opacity="1" />
    <path fill="currentColor"
        d="M759.5 299.5c1.739-.934 3.405-.934 5 0-2.006 2.396-3.672 2.396-5 0z" opacity="1" />
    <path fill="currentColor"
        d="M652.5 300.5h5c.667 0 1 .333 1 1a2.428 2.428 0 01-.5 2c-1.13-.614-2.463-.614-4 0-2.578-.182-3.078-1.182-1.5-3z"
        opacity="1" />
    <path fill="currentColor"
        d="M440.5 304.5c2.461-1.474 4.794-1.307 7 .5a26.67 26.67 0 00-6.5 1.5 2.428 2.428 0 01-.5-2z"
        opacity="1" />
    <path fill="currentColor"
        d="M531.5 331.5c9.953-.404 14.12 4.263 12.5 14-2.919 5.525-7.419 7.358-13.5 5.5-5.525-2.919-7.358-7.419-5.5-13.5 1.494-2.814 3.66-4.814 6.5-6z"
        opacity="1" />
    <path fill="currentColor"
        d="M91.5 333.5h9v23h12v8h-12v52h-9v-52a50.464 50.464 0 01-10-.5c-.935-2.381-1.268-4.881-1-7.5h11v-23z"
        opacity="1" />
    <path fill="currentColor" d="M434.5 333.5h16v83h-16v-83z" opacity="1" />
    <path fill="currentColor"
        d="M462.5 333.5h17c-.167 15.004 0 30.004.5 45l19.5-21.5a67.229 67.229 0 0120 .5 971.09 971.09 0 01-25 27.5l29 31c-7 .667-14 .667-21 0L480 391.5c-.5 8.327-.666 16.66-.5 25h-17v-83z"
        opacity="1" />
    <path fill="currentColor" d="M698.5 334.5h16v22h9v13h-9v47h-16v-47h-8v-13h8v-22z" opacity="1" />
    <path fill="currentColor"
        d="M145.5 354.5c25.808-.359 38.308 12.308 37.5 38-5.416 18.799-17.916 27.299-37.5 25.5-20.017-6.185-28.184-19.685-24.5-40.5 4.112-12.115 12.279-19.781 24.5-23zm3 8c15.355.686 24.022 8.686 26 24-.801 14.3-8.301 22.3-22.5 24-20.158-4.306-26.825-16.306-20-36 3.927-6.361 9.427-10.361 16.5-12z"
        opacity="1" />
    <path fill="currentColor"
        d="M222.5 354.5c18.136-1.024 30.303 6.976 36.5 24 2.603 23.492-7.731 36.826-31 40-8.701-.351-16.034-3.684-22-10-.5 9.994-.666 19.994-.5 30-3.277.284-6.443-.049-9.5-1a1599.45 1599.45 0 010-80c3.057-.951 6.223-1.284 9.5-1-1.311 8.299.356 9.466 5 3.5a94.836 94.836 0 0112-5.5zm2 8c16.046.047 24.713 8.047 26 24-2.957 19.452-13.957 26.618-33 21.5-12.341-7.838-15.841-18.671-10.5-32.5 4.01-6.909 9.844-11.242 17.5-13z"
        opacity="1" />
    <path fill="currentColor"
        d="M382.5 354.5c8.221-1.034 15.554.966 22 6 .929-1.189 1.262-2.522 1-4h17v60h-17a8.43 8.43 0 00-.5-4c-17.822 10.286-32.155 6.619-43-11-5.66-15.058-3.16-28.558 7.5-40.5 4.157-2.745 8.49-4.912 13-6.5zm5 15c17.166 1.644 22.666 10.644 16.5 27-8.667 9.333-17.333 9.333-26 0-5.746-12.455-2.579-21.455 9.5-27z"
        opacity="1" />
    <path fill="currentColor"
        d="M583.5 354.5c14.401-1.418 22.901 4.915 25.5 19 .5 14.329.667 28.663.5 43h-17c.167-13.337 0-26.671-.5-40-2.779-6.896-7.613-8.729-14.5-5.5-2.967 2.1-4.8 4.934-5.5 8.5a684.346 684.346 0 00-.5 37h-17v-60h17a8.43 8.43 0 00.5 4c3.575-2.702 7.408-4.702 11.5-6z"
        opacity="1" />
    <path fill="currentColor"
        d="M642.5 354.5c8.938-1.143 16.772 1.19 23.5 7a12.93 12.93 0 00.5-5h16c.167 20.003 0 40.003-.5 60-3.626 16.755-14.126 24.755-31.5 24-14.641.52-24.974-5.813-31-19a60.713 60.713 0 0119-.5c7.703 5.555 15.703 5.888 24 1 2.794-3.344 3.961-7.177 3.5-11.5-2.626 2.731-5.793 4.564-9.5 5.5-22.125 2.218-34.458-7.782-37-30 .277-16.084 7.943-26.584 23-31.5zm5 15c15.608.106 21.775 7.773 18.5 23-1.5 4.167-4.333 7-8.5 8.5-12.721 2.443-20.054-2.724-22-15.5.686-7.996 4.686-13.329 12-16z"
        opacity="1" />
    <path fill="currentColor"
        d="M753.5 354.5c25.324-.509 37.824 11.825 37.5 37-4.987 19.305-17.487 28.138-37.5 26.5-19.268-5.616-27.768-18.449-25.5-38.5 3.781-13.282 12.281-21.615 25.5-25zm2 15c15.133.213 21.3 7.879 18.5 23-5.071 10.358-12.904 13.191-23.5 8.5-7.76-7.575-8.926-16.075-3.5-25.5 2.322-2.895 5.155-4.895 8.5-6z"
        opacity="1" />
    <path fill="currentColor"
        d="M888.5 354.5a49.369 49.369 0 0111 1 100.103 100.103 0 01-4.5 13c-2.405.464-4.905.631-7.5.5a11.532 11.532 0 00-3.5 4.5 331.583 331.583 0 00-1.5 43h-16v-60h14a8.43 8.43 0 00.5 4c2.114-2.621 4.614-4.621 7.5-6z"
        opacity="1" />
    <path fill="currentColor"
        d="M917.5 354.5c10.598-1.199 19.265 2.301 26 10.5a70.352 70.352 0 01-10.5 9.5c-2.912-2.456-6.245-4.123-10-5-3.869.25-5.036 2.083-3.5 5.5 8.094 3.124 15.26 7.624 21.5 13.5 6.742 15.014 2.242 24.848-13.5 29.5-11.218 2.053-20.218-1.447-27-10.5 3-3.667 6.333-7 10-10a29.996 29.996 0 0010 5.5c2.757.782 5.257.282 7.5-1.5.667-1.333.667-2.667 0-4a524.024 524.024 0 00-18.5-11.5c-10.977-13.909-8.31-24.409 8-31.5z"
        opacity="1" />
    <path fill="currentColor"
        d="M265.5 356.5a64.873 64.873 0 0116 1l11 30a819.868 819.868 0 0012-30c3.667-1.333 7.333-1.333 11 0l11.5 31 11-31c5.446-1.306 10.946-1.306 16.5 0a6030.927 6030.927 0 00-21.5 58c-3.786 1.295-7.62 1.295-11.5 0l-11.5-31a1766.986 1766.986 0 01-12.5 31c-3.667 1.333-7.333 1.333-11 0a2129.282 2129.282 0 01-21-59z"
        opacity="1" />
    <path fill="currentColor" d="M526.5 356.5h16v60h-16v-60z" opacity="1" />
    <path fill="currentColor"
        d="M801.5 356.5h17c-.167 12.338 0 24.671.5 37 1.848 8.841 7.015 11.674 15.5 8.5 2.768-1.762 4.268-4.262 4.5-7.5.5-12.662.667-25.329.5-38h16a840.27 840.27 0 01-.5 41c-3.055 14.217-11.889 21.217-26.5 21-19.086-1.935-27.919-12.602-26.5-32-.5-9.994-.666-19.994-.5-30z"
        opacity="1" />
    <path fill="currentColor"
        d="M487.5 470.5h6v16h8v6h-8v35c-2.292.256-4.459-.077-6.5-1a577.896 577.896 0 01-.5-34c-5.431 1.406-7.765-.594-7-6h7a69.302 69.302 0 011-16z"
        opacity="1" />
    <path fill="currentColor" d="M674.5 470.5h6v57h-6v-57z" opacity="1" />
    <path fill="currentColor"
        d="M359.5 485.5c20.46-1.707 29.627 7.626 27.5 28-6.242 13.704-16.409 17.87-30.5 12.5a36.078 36.078 0 01-4.5-3.5c-.5 6.325-.666 12.658-.5 19h-7v-55h7a12.93 12.93 0 00.5 5c2.114-2.621 4.614-4.621 7.5-6zm2 6c14.99-.661 21.156 6.339 18.5 21-4.064 8.11-10.564 10.943-19.5 8.5-8.477-4.457-11.31-11.29-8.5-20.5 1.871-4.494 5.038-7.494 9.5-9z"
        opacity="1" />
    <path fill="currentColor"
        d="M413.5 485.5c22.326-1.175 31.159 9.158 26.5 31-7.965 12.21-18.465 15.044-31.5 8.5-10.857-9.602-12.357-20.436-4.5-32.5 2.79-2.965 5.957-5.298 9.5-7zm2 6c15.758-.741 21.925 6.592 18.5 22-4.395 7.603-10.895 10.103-19.5 7.5-9.31-6.413-11.144-14.58-5.5-24.5a63.382 63.382 0 006.5-5z"
        opacity="1" />
    <path fill="currentColor"
        d="M464.5 485.5c3.548-.405 6.881.095 10 1.5a13.92 13.92 0 01-3 4c-5.237-.472-8.737 1.695-10.5 6.5a162.766 162.766 0 00-1.5 30h-7v-41h7a4.934 4.934 0 00.5 3c1.397-1.57 2.897-2.904 4.5-4z"
        opacity="1" />
    <path fill="currentColor"
        d="M575.5 485.5a98.432 98.432 0 0114 .5c3.062 1.061 5.562 2.894 7.5 5.5a12.93 12.93 0 00.5-5h7a353.706 353.706 0 01-1.5 44c-3.656 8.835-10.323 12.835-20 12-9.985.594-17.151-3.573-21.5-12.5a12.494 12.494 0 017 0c6.506 6.541 14.173 8.208 23 5 4.749-3.233 6.582-7.733 5.5-13.5-12.258 8.971-23.258 7.638-33-4-5.744-14.277-1.911-24.943 11.5-32zm3 6c15.93-.167 21.763 7.499 17.5 23-7.271 7.514-15.104 8.681-23.5 3.5-7.761-11.191-5.761-20.024 6-26.5z"
        opacity="1" />
    <path fill="currentColor"
        d="M631.5 485.5a98.432 98.432 0 0114 .5c3.062 1.061 5.562 2.894 7.5 5.5a12.93 12.93 0 00.5-5h7c.167 13.337 0 26.671-.5 40-2.041.923-4.208 1.256-6.5 1a12.93 12.93 0 00-.5-5c-11.527 8.643-22.194 7.643-32-3-7.226-14.816-3.726-26.15 10.5-34zm3 6c17.257.439 22.757 8.773 16.5 25-6.541 5.626-13.708 6.46-21.5 2.5-9.038-11.282-7.371-20.449 5-27.5z"
        opacity="1" />
    <path fill="currentColor"
        d="M512.5 486.5h6c-.331 10.05.169 20.05 1.5 30 4.947 5.185 10.781 6.351 17.5 3.5a11.532 11.532 0 003.5-4.5c.5-9.661.666-19.328.5-29h7c.166 9.006 0 18.006-.5 27-1.983 9.482-7.816 14.482-17.5 15-7.669.089-13.169-3.245-16.5-10a183.938 183.938 0 01-1.5-32z"
        opacity="1" />
</svg>