<svg version="1.0" xmlns="http://www.w3.org/2000/svg" viewBox="0 0 87 59"><g fill="currentColor"><path d="M18.3 1.5C14.9 2.9 12 7.4 12 11.2c0 1.6-1.2 3-3.9 4.5-10.7 6.1-10.1 22.1 1 27.9 2.2 1.1 2.9 2.1 2.9 4.5 0 2.2 1 4.1 3.4 6.5 2.8 2.8 4.1 3.4 7.8 3.4 2.4 0 5.3-.6 6.3-1.4 1.6-1.2 2.3-1.2 3.9 0 2.5 1.7 5.6.1 5.6-2.9-.1-1.6-1.5-3-5.3-5.2-7.4-4.3-11.2-10.8-11.2-18.9 0-8.4 3.2-13.9 10.8-18.9C37.5 7.8 39 6.3 39 4.5 39 1.7 35.6.2 33.5 2c-1.2 1-2.2.9-4.9-.4-4.1-1.9-6.1-2-10.3-.1zM58.2 1.5c-2.5 1.1-3.8 1.2-5.7.3-1.9-.8-2.8-.8-4 .2-2.5 2.1-1.8 4.9 1.8 6.8 5.1 2.7 11.1 9.4 12.5 13.9 3.4 11.5-1 21.2-12.7 27.5-3.4 1.9-4.1 4.8-1.6 6.8 1.2 1 2.1 1 4 .2 1.9-.9 3.1-.8 5.2.3 3.5 1.9 5.5 1.9 9.8.1 3.6-1.5 6.5-5.9 6.5-9.8 0-1.6 1.1-2.9 3.7-4.3 4.7-2.5 8.3-8.6 8.3-14s-3.6-11.5-8.3-14c-2.6-1.4-3.7-2.7-3.7-4.3 0-3.9-2.9-8.3-6.5-9.8-4.2-1.7-5.1-1.7-9.3.1z"/><path d="M36.8 18.6c-8 4.3-7.6 17.9.6 21.8 7.3 3.5 14.9.4 17.5-7.1 1.3-3.5 1.3-4.6 0-7.9-2.7-7.2-11.4-10.5-18.1-6.8z"/></g></svg>