<!-- Creator: CorelDRAW X7 -->
<svg xmlns="http://www.w3.org/2000/svg" xml:space="preserve" width="343.541mm" height="57.4354mm" version="1.1"
    style="shape-rendering:geometricPrecision; text-rendering:geometricPrecision; image-rendering:optimizeQuality; fill-rule:evenodd; clip-rule:evenodd"
    viewBox="0 0 5337 892" xmlns:xlink="http://www.w3.org/1999/xlink">
    <defs>
        <style type="text/css">
            <![CDATA[
            .fil3 {
                fill: #FEFEFE;
                fill-rule: nonzero
            }

            .fil4 {
                fill: text-color;
                fill-rule: nonzero
            }

            .fil5 {
                fill: text-color;
                fill-rule: nonzero
            }

            .fil0 {
                fill: #14693C;
                fill-rule: nonzero
            }

            .fil6 {
                fill: #296A3F;
                fill-rule: nonzero
            }

            .fil2 {
                fill: #009846;
                fill-rule: nonzero
            }

            .fil1 {
                fill: url(#id0)
            }
            ]]>
        </style>
        <linearGradient id="id0" gradientUnits="userSpaceOnUse" x1="667.182" y1="458.622" x2="1902.57" y2="458.622">
            <stop offset="0" style="stop-opacity:1; stop-color:#C1AF2B" />
            <stop offset="0.509804" style="stop-opacity:1; stop-color:#C1AF2B" />
            <stop offset="0.901961" style="stop-opacity:1; stop-color:#DDA320" />
            <stop offset="1" style="stop-opacity:1; stop-color:#F39314" />
        </linearGradient>
    </defs>
    <g id="Camada_x0020_1">
        <metadata id="CorelCorpID_0Corel-Layer" />
        <g id="_1521722752">
            <g>
                <path class="fil0" d="M2601 853c3,0 2,-3 3,-3 -7,0 -3,3 -3,3z" />
                <polygon class="fil0" points="2537,858 2538,857 2529,860 " />
                <path class="fil0" d="M2478 858c5,5 21,0 32,1l2 1 4 -3c-13,0 -29,2 -38,1z" />
                <path class="fil0" d="M2446 849c2,2 -7,2 7,1 0,-1 0,-1 -1,-1 -1,0 -3,0 -6,0z" />
                <path class="fil0" d="M2452 849c6,0 -4,-1 0,0z" />
                <path class="fil0" d="M2423 850l9 -1c-2,-1 -10,-2 -7,-2 -8,1 -7,2 -2,3z" />
                <path class="fil0" d="M2415 853l5 0c-1,-1 -2,-1 -5,0z" />
                <path class="fil0" d="M2429 851l-9 2c1,0 1,2 4,-1 -1,1 1,0 5,-1z" />
                <path class="fil0" d="M2434 852c5,1 10,1 2,3 16,-1 14,-4 -2,-3z" />
                <path class="fil0" d="M2475 863l6 1 5 -1c-2,0 -12,-2 -11,0z" />
                <path class="fil0" d="M2372 848c-1,1 3,2 3,3l6 -1c-3,0 -9,-1 -9,-2z" />
                <path class="fil0" d="M2375 852l-9 1c8,0 10,-1 9,-1z" />
                <polygon class="fil0" points="2414,858 2429,855 2411,858 " />
                <polygon class="fil0" points="2337,848 2342,846 2333,849 " />
                <path class="fil0" d="M2314 848c4,-2 -5,-3 -1,-4 -6,0 -12,2 -16,3 5,0 10,0 17,1z" />
                <path class="fil0" d="M2289 849c2,0 5,-1 8,-2 -3,1 -6,1 -8,2z" />
                <path class="fil0" d="M2351 853c-1,-1 -2,-2 -7,-3l3 3c1,0 3,0 4,0z" />
                <path class="fil0" d="M2347 853l0 0c-4,0 -6,-1 -8,-1 1,0 4,1 8,1z" />
                <path class="fil0" d="M2352 853c-1,0 -1,0 -1,0 0,0 0,0 1,0z" />
                <path class="fil0" d="M2390 856c-5,1 -16,3 -6,5 4,-2 -2,-3 6,-5z" />
                <path class="fil0" d="M2356 856l10 0c0,0 -2,-1 1,-2l-11 2z" />
                <polygon class="fil0" points="2351,857 2356,856 2353,856 " />
                <path class="fil0" d="M2305 852c-4,1 -9,1 -14,1 6,1 11,1 17,1 1,-1 3,-2 -3,-2z" />
                <path class="fil0" d="M2326 852c-1,0 -1,0 -1,1 0,0 1,0 1,-1z" />
                <path class="fil0" d="M2240 853c1,0 1,0 1,0 0,0 0,0 0,0l-1 0z" />
                <path class="fil0" d="M2309 854c4,1 6,0 9,-1 -3,1 -7,1 -10,1 0,0 -1,0 1,0z" />
                <path class="fil0" d="M2274 850c3,1 5,1 8,2 -3,-1 -7,-2 -8,-2z" />
                <path class="fil0" d="M2323 852c0,0 1,0 1,0 -1,-1 -1,-1 -1,0z" />
                <path class="fil0" d="M2323 852c-2,0 -4,1 -5,1 2,0 5,0 7,0 -1,-1 -1,-1 -2,-1z" />
                <path class="fil0"
                    d="M2225 869c1,-2 12,-4 21,-2 9,-1 3,-9 -5,-14 0,2 0,2 -10,4 4,1 22,3 14,5 -13,1 -11,-1 -17,-2 5,3 -16,4 -13,9l11 -2c0,1 -4,2 -1,2z" />
                <path class="fil0" d="M2259 854l4 -1c-4,0 -7,-1 -13,-3 -7,1 -8,2 -9,3l20 0 -2 1z" />
                <path class="fil0"
                    d="M2281 853c-3,3 -13,4 -7,7 12,0 8,-2 15,-3 -18,0 6,-2 -8,-3 4,-1 7,-1 10,-1 -3,0 -6,-1 -9,-1 0,0 0,0 0,0l0 0c0,0 0,0 0,0 1,0 1,1 0,0 0,0 0,0 0,0 0,1 -1,1 -1,1 -5,0 -1,0 1,-1 0,0 0,0 0,0 0,0 0,0 0,0l-19 1c4,1 9,1 18,0z" />
                <path class="fil0" d="M2375 866c-1,0 -1,0 -1,0 -1,0 -2,0 1,0z" />
                <path class="fil0"
                    d="M2367 865c1,-1 2,-2 7,-1 4,0 0,1 0,2 3,-1 9,-2 1,-3l-1 0c-8,-1 -18,-4 -16,-4 2,2 4,4 9,6z" />
                <path class="fil0" d="M2323 860l-15 1 8 2 -1 -1c9,0 7,-1 8,-2z" />
                <polygon class="fil0" points="2239,852 2241,849 2232,853 " />
                <polygon class="fil0" points="2218,852 2219,850 2214,851 " />
                <path class="fil0" d="M1080 881l-4 1c2,0 3,0 4,-1z" />
                <path class="fil0" d="M1113 882l1 -2c-1,1 -2,2 -1,2z" />
                <path class="fil0" d="M1723 852c-7,-2 -14,-5 -13,-3l2 3c5,-1 8,0 11,0z" />
                <path class="fil0" d="M1384 868c0,0 1,0 2,1 1,-1 3,-2 4,-3 -2,1 -4,1 -6,2z" />
                <path class="fil0" d="M1379 879l-9 -2c2,0 5,1 9,2z" />
                <path class="fil0" d="M900 884l-5 3c8,0 4,-2 5,-3z" />
                <path class="fil0" d="M2012 853c-6,-1 -10,-1 -14,-2 6,2 12,4 14,2z" />
                <path class="fil0" d="M1093 854c-3,0 -4,1 -4,1 3,0 5,0 4,-1z" />
                <path class="fil0" d="M1981 851c1,1 2,1 3,1 4,0 8,-1 14,-1 -6,-1 -11,-1 -17,0z" />
                <path class="fil0" d="M246 882c-1,0 -1,0 -2,0 0,0 1,0 2,0z" />
                <path class="fil0" d="M55 856c2,0 5,0 8,0 -1,-1 -4,-1 -8,0z" />
                <path class="fil0" d="M2137 851c5,0 1,0 0,0z" />
                <path class="fil0" d="M2158 861c-1,0 -1,1 -2,1 1,0 1,-1 2,-1z" />
                <path class="fil0" d="M1938 868c0,0 0,0 0,0 1,0 1,0 0,0z" />
                <path class="fil0" d="M2144 852c-2,0 -4,0 -6,-1 1,1 3,1 6,1z" />
                <path class="fil0" d="M2143 851c1,0 3,0 4,0 0,0 0,-1 -4,0z" />
                <path class="fil0" d="M2131 851c3,0 5,0 7,0 -1,0 -1,0 -1,0 -1,0 -3,0 -6,0z" />
                <path class="fil0" d="M596 875c0,0 0,0 -1,0 -4,1 -2,1 1,0z" />
                <path class="fil0" d="M1612 879c0,0 0,0 0,0 0,0 0,0 0,0l0 0z" />
                <path class="fil0" d="M1596 881c7,-3 11,-3 16,-2l-5 -7 -11 9z" />
                <path class="fil0"
                    d="M551 856l2 0c-6,1 -4,1 -2,0zm1554 -1c1,-1 1,-1 1,-2 -1,1 -5,1 -8,1 1,1 3,1 7,1zm-15 -2c0,0 0,0 0,0 -7,-1 -4,0 0,0zm-682 20c-3,1 -6,1 -10,0 3,0 6,0 10,0zm-246 7c-3,1 -9,3 -11,1 3,-3 6,-2 11,-1zm-161 2l11 2c-13,4 -22,3 -12,6 1,-8 42,-1 43,-9l7 2c-2,0 -2,0 -4,0 14,4 10,-6 28,-4 6,0 10,1 6,2l14 -2c4,1 3,2 -1,2l21 -1 0 0c3,-1 10,-3 13,-4 6,1 -2,1 -1,2l12 -2c4,2 -5,4 -13,4 11,8 9,-2 33,3l-11 1c7,4 16,3 28,6 -3,-2 -25,-8 -12,-10 3,1 8,1 15,0 0,3 7,2 15,2l-1 3c9,-1 9,-3 14,-4 10,0 12,3 15,6 16,0 -12,-5 8,-6 13,2 22,0 38,-2 10,1 -1,2 2,3l9 -3c2,0 1,1 1,2 7,-2 0,-4 11,-5 3,-5 23,6 36,1 4,1 -1,2 0,4 19,-3 16,-2 31,-7l13 3c-9,-3 3,-6 14,-9 -4,-2 -6,-3 -8,-3l17 -2c2,0 0,2 -3,3 1,0 3,-1 3,-1 7,2 3,4 -1,6 -2,-1 -4,-2 -6,-2 -4,2 -8,4 -8,7 2,-1 4,-1 6,-1 -1,0 -2,1 -1,1 0,1 2,0 5,-1l4 4 1 -2 22 3c16,-4 30,-11 56,-12 -6,3 -1,5 -2,9 -7,-4 -20,1 -33,0 7,1 6,3 4,3l23 -3c0,3 5,2 12,3 -5,-6 17,-4 27,-6 0,2 -2,4 -14,4 13,4 17,-7 30,-3 -3,0 -5,-1 -6,0 7,-1 23,0 19,2l-2 0c19,1 57,0 60,-5 0,1 -2,6 -3,7l34 -17c-3,4 8,15 -8,17 5,1 10,1 20,0 -3,-1 -8,-6 -4,-7 12,5 8,3 23,7 -5,-1 0,-8 8,-8 -2,1 0,7 -3,8l19 -7c-5,1 -1,6 3,8 -2,-2 16,0 21,-1l-8 -1c20,1 20,-10 40,-9 -2,1 -6,8 5,9 5,-3 21,-17 39,-19l3 2 14 -3c-9,6 -33,17 -46,21 8,1 2,2 14,2 4,2 -7,3 -10,3l27 1c-1,-4 20,-4 19,-7l-29 4c-1,-4 17,-12 36,-11 5,2 -4,7 -3,9 2,-2 18,-3 20,-2l-8 2c10,2 17,-5 30,-1 4,0 13,5 13,2 -7,-4 -8,-18 -3,-22 1,1 23,5 28,7 7,3 -11,8 -5,11 0,-1 4,-2 6,-2 4,1 -2,3 8,3 2,-5 20,0 5,-4 9,-1 10,1 22,1 -4,-3 10,-9 20,-10 -1,1 1,2 2,3 20,0 31,2 50,2 2,1 11,2 7,4 3,-1 5,-2 11,-2 11,3 -13,0 -5,4 1,-2 15,-3 24,-4 -3,-4 -19,-1 -28,0 0,-5 15,-10 34,-12 16,-2 7,3 10,2 29,1 25,-9 49,-5 9,3 0,7 2,9 -12,1 -19,-2 -28,-2l11 1c-4,2 -13,2 -17,1 8,3 49,1 72,4 4,-1 11,-3 7,-4l-7 1c-6,-3 14,-4 5,-5 9,-2 20,-5 33,-3l3 3c0,-1 -9,-2 -13,-1 6,-1 21,5 27,0l-9 -2c9,-2 21,-6 33,-5 -5,-3 -3,1 -11,-4 7,6 -31,0 -19,6 -9,-5 -15,-2 -26,-7 0,2 4,3 -6,2 -1,0 -2,1 -3,1 0,0 0,0 0,0 0,0 0,0 0,0 0,0 0,0 1,0 2,1 4,1 5,2 -5,3 -21,3 -27,4 -6,0 3,-1 0,-2l-8 2c-1,-3 -16,-5 -2,-6l-13 0c-7,-2 -17,-3 -24,-1 -6,-1 -15,3 -10,0l-19 2 -1 -1c-19,0 -40,5 -62,0 -7,1 -13,2 -24,1l-2 -3c-9,1 -26,-2 -29,1 -9,-7 -41,-2 -56,-3l-1 3c-10,0 -20,1 -32,2l1 3c-11,2 -29,-2 -46,-2 1,-1 6,-1 9,0 -21,-6 -44,4 -62,0 -5,1 -8,1 -12,0 1,0 1,0 1,0 0,0 -1,0 -1,0 -2,-1 -5,-1 -7,-2 2,1 4,2 6,2 -4,0 -10,0 -15,1l-2 -3c-1,0 -1,0 -1,0 -6,-1 -5,1 -2,4 -2,0 -5,1 -7,1 -4,-4 -14,2 -20,-3 -3,2 -27,2 -29,7 -1,-1 -2,-1 1,-1 -6,-1 -12,-1 -18,0l-2 -4 -13 5c-8,-2 -11,-3 -3,-6 -19,4 -16,2 -32,6l1 -2c-6,0 -15,3 -19,1 -12,-5 -63,-1 -96,-5 6,7 -16,-3 -17,2 -2,-1 -7,-2 -1,-4 -17,2 -26,-2 -37,2 -2,-1 3,-2 2,-3 -2,0 -6,1 -8,0 -1,-1 3,-1 6,-2 -18,0 -19,6 -21,10 -8,-2 -13,-2 -19,2 -3,-2 -8,-4 3,-4 -6,0 -37,-3 -38,1 -2,-1 -8,0 -10,0 -13,0 -15,0 -28,0l4 1c-5,4 -11,1 -22,1l0 0c-24,-3 -10,2 -34,-2l1 3c-2,6 -22,-4 -36,-2l5 2c-7,2 -21,-8 -29,-9 -1,-1 3,-1 5,-1 -20,-4 -2,3 -17,4 -3,-2 3,-5 -7,-5 -5,-2 -29,6 -43,2 3,2 6,4 -1,5 -11,0 -29,-6 -39,-1 -1,-1 -2,-1 -2,-2 -8,2 -26,3 -31,5 -8,-10 -51,5 -51,-4l-25 0 1 -1c-17,0 -22,2 -28,4 -4,0 -1,-1 -1,-2 -23,-2 -25,-1 -45,3l-2 -3c-6,2 -34,-4 -57,-1 0,0 0,-1 2,-1 -26,3 -62,-8 -71,3l-18 2c23,1 -3,5 6,7 -8,0 -22,-4 -12,-4l2 0c4,-5 -27,-2 -27,-5 -43,0 -86,-3 -127,-4l5 5 -14 0c-4,-1 -5,-4 5,-4 -5,-2 -17,2 -17,3 -20,-1 7,-5 1,-5l-8 0 2 1c-7,2 -8,4 -20,3 -7,0 -4,-2 -7,-2 0,-1 -1,-1 -4,-1l-18 0 7 4c-8,1 -17,-1 -9,3 -12,-6 -67,-2 -74,-4 -11,3 -22,3 -36,2 3,1 5,5 -6,5 4,-8 -22,-4 -31,-10 8,4 -34,1 -20,7 -10,-1 -1,-3 -8,-5 -24,3 -52,-2 -81,-1 0,1 5,2 -2,4l-15 -5c-5,0 -5,6 -15,2 1,1 3,2 -1,3 -56,-5 -115,4 -172,-6 7,2 2,3 -4,3 4,0 0,2 1,4l-24 -4c-5,4 -26,0 -28,4l7 -1c-10,5 14,10 13,16 11,-5 30,7 48,0 4,1 -3,2 -1,3 5,-2 10,-3 21,-2l-1 1c29,-1 42,2 75,3l-2 -3c7,1 9,2 12,2 8,-4 -20,0 -13,-5 10,6 51,1 57,7 11,0 -3,-3 8,-3l3 2 3 -3c7,1 11,3 11,4 -2,0 -5,1 -7,1 9,2 26,-1 30,0l-11 -1c30,-2 67,1 96,-3l-3 -1c23,-3 18,1 43,0l-1 0c4,-1 11,-2 18,-2 -6,2 11,3 3,5 24,-2 12,-2 28,-7l4 2c5,-2 5,-3 18,-3 -10,2 7,3 -4,6 26,4 38,-5 50,2 11,-6 -22,-4 -16,-5 -5,-2 10,-5 18,-4 8,0 14,8 34,8 -2,0 -2,0 -4,0 8,2 15,-2 24,1 6,-4 13,0 14,-5l-19 1c11,-1 21,-7 39,-4 -2,1 -7,2 -11,3 5,1 10,-1 16,1 -2,4 -23,1 -35,4 6,2 22,-3 16,2 8,-7 20,1 34,-4l-1 3c2,-1 7,-2 11,-2l-7 4c11,-4 21,2 32,1 -22,0 -5,-4 -14,-6 27,-4 16,8 47,6 -4,1 -16,-2 -10,-3 6,1 14,2 18,3 21,0 -3,-3 5,-4 8,3 11,-2 20,-3l0 3c23,2 6,-6 27,-4l-9 4 11 -1 -2 4c12,-3 16,-2 27,-1 -2,-2 2,-6 12,-6 8,2 -4,3 11,3 -3,1 -7,4 -13,1 -1,1 -3,2 -4,3 7,2 19,0 24,0 -2,0 -4,0 -5,0l21 -4c3,1 1,1 -2,2 4,0 7,-1 14,-2 -2,3 -1,5 -11,6l21 -2c1,1 10,3 8,3 11,2 27,-4 42,-2 1,-1 3,-1 6,-2 14,1 27,4 43,1l10 4c13,-1 -13,-5 9,-7 15,-1 5,4 11,5 7,-2 21,-7 35,-3 -5,0 -8,0 -13,0z" />
                <path class="fil0" d="M1380 877c-1,0 -1,-1 -2,-1 -1,0 -1,1 2,1z" />
                <path class="fil0" d="M901 884c0,0 0,0 -1,0 0,0 0,0 0,0l1 0z" />
                <path class="fil0" d="M1881 879c-3,0 -5,-1 -6,-2 0,1 1,2 6,2z" />
                <path class="fil0" d="M2182 850l-10 0c5,0 6,1 9,1 -1,0 -2,-1 1,-1z" />
                <path class="fil0" d="M2262 867c1,0 3,0 4,0l0 -1c-6,0 -10,1 -4,1z" />
                <path class="fil0" d="M2190 859c1,3 7,2 13,1 0,0 -1,0 -1,0 2,-3 -5,-2 -12,-1z" />
                <path class="fil0" d="M2205 860c2,0 4,0 6,0 0,-1 -3,0 -6,0z" />
                <path class="fil0" d="M2123 853c3,1 2,-3 4,-2 3,-3 -21,4 -4,2z" />
                <polygon class="fil0" points="2195,867 2193,864 2189,867 " />
                <path class="fil0" d="M2144 865l11 1c-1,-1 1,-1 2,-1 -6,0 -13,-1 -13,0z" />
                <path class="fil0" d="M2157 865c4,0 7,0 9,-1 -2,0 -6,0 -9,1z" />
                <polygon class="fil0" points="2181,868 2178,867 2171,867 " />
                <path class="fil0" d="M2033 864l-12 1c-1,1 2,2 6,2 3,-1 7,-2 6,-3z" />
                <path class="fil0" d="M2067 873c-3,-1 -3,-2 -5,-3l0 4 5 -1z" />
                <path class="fil0" d="M2034 873c-1,2 -17,3 -2,3 1,-1 12,-2 2,-3z" />
                <polygon class="fil0" points="1863,869 1866,869 1866,863 " />
                <path class="fil0" d="M1713 883c13,2 3,-3 15,-2 3,-1 -10,-1 -7,-2 -8,1 -12,0 -8,4z" />
                <path class="fil0" d="M1721 879c2,-1 3,-1 5,-1 -3,0 -4,0 -5,1z" />
                <polygon class="fil0" points="24,853 15,851 21,853 " />
                <path class="fil0" d="M7 857l-2 -4 -5 4c2,0 6,-1 7,0z" />
                <path class="fil0" d="M1186 888l1 -1c-1,-1 -3,-1 -7,-1l6 2z" />
                <polygon class="fil0" points="1069,885 1071,885 1068,882 " />
                <path class="fil0" d="M971 890c4,0 9,-1 13,-1 -9,1 -14,-4 -13,1z" />
                <path class="fil1"
                    d="M667 653c0,75 14,147 38,214l0 0c389,37 777,-7 1166,-19l0 0c20,-61 32,-127 32,-195l0 0c0,-341 -277,-617 -618,-617 -341,0 -618,276 -618,617l0 0z" />
                <path class="fil2" d="M1867 833c5,0 3,-2 4,-2 -9,0 -4,3 -4,2z" />
                <polygon class="fil2" points="1781,842 1782,841 1770,844 " />
                <path class="fil2" d="M1701 846c7,4 29,-2 43,-1l2 1 7 -4c-18,1 -40,5 -52,4z" />
                <path class="fil2" d="M1657 839c3,1 -9,2 10,0 -1,0 -1,0 -1,0 -2,0 -5,0 -9,0z" />
                <path class="fil2" d="M1666 839c8,-1 -6,-2 0,0z" />
                <path class="fil2" d="M1627 842l11 -2c-3,-1 -13,-1 -9,-2 -11,1 -9,2 -2,4z" />
                <path class="fil2" d="M1616 845l6 -1c-1,0 -3,0 -6,1z" />
                <path class="fil2" d="M1634 842l-12 2c2,1 2,2 5,0 0,1 2,0 7,-2z" />
                <path class="fil2" d="M1641 843c6,0 14,0 3,2 22,-1 18,-4 -3,-2z" />
                <path class="fil2" d="M1697 851l8 0 7 -1c-3,1 -16,-1 -15,1z" />
                <path class="fil2" d="M1557 843c-1,1 4,2 5,3l8 -1c-4,0 -12,-1 -13,-2z" />
                <path class="fil2" d="M1562 846l-12 3c11,-1 13,-2 12,-3z" />
                <polygon class="fil2" points="1614,850 1634,846 1611,850 " />
                <polygon class="fil2" points="1510,846 1517,843 1505,847 " />
                <path class="fil2" d="M1479 848c5,-2 -7,-3 -2,-4 -8,0 -15,2 -22,4 7,-1 14,-1 24,0z" />
                <path class="fil2" d="M1444 850c4,0 7,-1 11,-2 -3,1 -7,1 -11,2z" />
                <path class="fil2" d="M1529 849c-1,0 -3,-2 -10,-2l5 3c1,-1 3,-1 5,-1z" />
                <path class="fil2" d="M1524 850l0 0c-5,0 -9,0 -11,0 2,0 5,0 11,0z" />
                <path class="fil2" d="M1530 849c-1,0 -1,0 -1,0 0,1 0,1 1,0z" />
                <path class="fil2" d="M1582 849c-7,2 -22,5 -7,6 5,-2 -4,-3 7,-6z" />
                <path class="fil2" d="M1536 852l13 0c0,-1 -3,-2 1,-2l-14 2z" />
                <polygon class="fil2" points="1530,853 1536,852 1531,852 " />
                <path class="fil2" d="M1467 852c-6,1 -12,2 -19,2 8,0 15,0 23,0 1,-1 4,-3 -4,-2z" />
                <path class="fil2" d="M1495 851c-1,0 -1,0 -2,0 1,0 2,0 2,0z" />
                <path class="fil2" d="M1380 858c0,0 0,0 1,0 0,0 0,0 0,-1l-1 1z" />
                <path class="fil2" d="M1472 854c6,0 9,-1 12,-2 -4,1 -9,1 -13,2 -1,0 -1,0 1,0z" />
                <path class="fil2" d="M1425 853c3,0 7,0 10,1 -3,-1 -9,-2 -10,-1z" />
                <path class="fil2" d="M1491 851c1,-1 1,-1 1,-1 -2,0 -1,0 -1,1z" />
                <path class="fil2" d="M1491 851c-2,0 -5,1 -7,1 4,0 7,0 9,-1 0,0 -1,0 -2,0z" />
                <path class="fil2"
                    d="M1360 875c0,-2 15,-5 28,-4 12,-2 4,-9 -7,-13 -1,1 -1,2 -13,4 4,1 28,2 18,4 -17,2 -14,0 -23,-1 7,3 -21,6 -17,10l14 -2c1,0 -5,1 0,2z" />
                <path class="fil2" d="M1405 857l6 -1c-6,0 -11,0 -19,-2 -9,2 -10,3 -11,3l26 0 -2 0z" />
                <path class="fil2"
                    d="M1434 855c-4,3 -16,5 -8,7 15,-1 10,-3 20,-4 -25,2 7,-2 -11,-3 5,0 9,-1 13,-1 -4,0 -9,0 -13,0 0,0 0,0 1,0l0 0 0 0c1,0 1,0 0,0 0,0 0,0 -1,0 0,1 0,1 -1,1 -7,0 -1,0 1,-1 1,0 1,0 1,0 0,0 0,0 0,0l-25 2c5,0 12,0 23,-1z" />
                <path class="fil2" d="M1561 861c0,0 0,0 0,0 -2,0 -3,0 0,0z" />
                <path class="fil2"
                    d="M1551 860c2,0 3,-1 9,-1 5,0 0,1 1,2 3,-1 12,-3 1,-3l-2 0c-10,0 -23,-3 -22,-3 3,2 6,3 13,5z" />
                <path class="fil2" d="M1492 858l-21 3 11 2 -1 -2c12,0 10,-1 11,-3z" />
                <polygon class="fil2" points="1377,856 1380,854 1368,858 " />
                <polygon class="fil2" points="1350,858 1351,856 1344,857 " />
                <path class="fil2" d="M995 92l6 -4c-3,2 -4,3 -6,4z" />
                <path class="fil2" d="M955 114l0 2c2,-2 2,-3 0,-2z" />
                <path class="fil2" d="M711 839c0,-9 0,-19 -2,-17l-2 3c3,6 4,10 4,14z" />
                <path class="fil2" d="M723 396c-1,0 -1,1 -2,2 0,2 0,4 0,6 0,-2 1,-5 2,-8z" />
                <path class="fil2" d="M716 385c2,-3 4,-6 7,-10 -2,2 -5,6 -7,10z" />
                <path class="fil2" d="M1234 21l7 -3c-12,1 -6,2 -7,3z" />
                <path class="fil2" d="M1071 867c-8,-1 -14,-1 -19,-1 9,1 17,3 19,1z" />
                <path class="fil2" d="M993 124c3,-2 4,-3 4,-4 -4,3 -5,4 -4,4z" />
                <path class="fil2" d="M1029 866c2,0 3,0 5,0 5,0 11,-1 18,0 -7,-2 -15,-2 -23,0z" />
                <path class="fil2" d="M1902 516c0,1 0,2 0,2 1,0 1,0 0,-2z" />
                <path class="fil2" d="M1879 773c1,-2 1,-6 2,-10 0,2 -1,5 -2,10z" />
                <path class="fil2" d="M1240 861c6,0 1,0 0,0z" />
                <path class="fil2" d="M1269 871c-1,0 -2,0 -2,1 0,-1 1,-1 2,-1z" />
                <path class="fil2" d="M972 881c0,0 -1,0 -1,0 2,1 2,1 1,0z" />
                <path class="fil2" d="M1249 862c-2,0 -5,0 -7,0 1,0 3,0 7,0z" />
                <path class="fil2" d="M1248 861c2,0 3,0 5,0 1,0 0,-1 -5,0z" />
                <path class="fil2" d="M1232 862c4,0 7,0 10,0 -2,0 -2,-1 -2,-1 -1,0 -4,1 -8,1z" />
                <path class="fil2" d="M1630 132c0,0 1,0 1,1 5,2 3,1 -1,-1z" />
                <path class="fil2" d="M657 697c0,0 0,1 0,1 0,0 0,-1 0,-1l0 0z" />
                <path class="fil2" d="M654 676c3,9 3,14 3,21l7 -8c-4,-4 -7,-8 -10,-13z" />
                <path class="fil2"
                    d="M1668 184l-2 -3c7,5 4,4 2,3zm-471 682c2,0 1,-1 1,-1 -2,1 -6,1 -11,1 1,1 4,1 10,0zm-20 0c0,0 0,0 0,0 -10,-1 -6,-1 0,0zm-472 -443c0,-3 3,-7 6,-12 -2,4 -3,8 -6,12zm195 -269c2,-2 4,-4 6,-7 2,-2 5,-3 7,-4 -2,6 -6,7 -13,11zm196 -105l-15 3c16,-10 30,-12 15,-11 0,4 -14,9 -27,14 -14,5 -28,11 -27,15 -3,1 -6,2 -10,2 3,-1 3,-1 6,-2 -10,2 -12,5 -16,8 -3,4 -6,7 -18,12 -7,4 -13,5 -9,2 -5,3 -10,7 -15,11 -5,2 -5,0 0,-2 -8,5 -17,10 -25,15l0 0c-3,3 -10,10 -13,13 -7,3 3,-3 1,-3 -5,4 -9,7 -13,11 -6,2 3,-8 13,-13 -17,1 -10,9 -39,24 4,-4 8,-7 12,-10 -11,2 -20,11 -35,19 4,-1 32,-16 19,-3 -4,2 -10,6 -16,13 -2,-2 -9,5 -17,12l-2 -3c-9,9 -7,10 -11,16 -10,10 -14,10 -19,10 -16,16 14,-8 -3,12 -14,12 -22,23 -34,41 -9,10 -1,-3 -4,0l-5 11c-2,2 -2,1 -2,0 -5,9 2,3 -6,16 0,3 -5,8 -12,15 -7,7 -14,16 -17,25 -4,4 -1,-3 -3,-2 -6,11 -8,17 -10,21 -1,5 -3,9 -6,19l-10 15c4,-5 5,-3 4,1 0,3 -1,6 -2,9 0,3 -1,7 -2,11 3,-4 6,-7 7,-9l-7 22c-2,2 -2,0 -2,-5 -1,2 -1,3 -1,5 -5,7 -5,2 -5,-4 2,-3 4,-5 6,-7 0,-6 0,-12 -2,-12 -1,1 -1,4 -3,7 1,-1 0,-3 0,-2 -1,0 -1,3 -2,7l-6 3 1 2c-5,9 -9,18 -14,28 -2,11 -3,22 -4,34 -1,6 -2,12 -3,19 -1,7 -2,14 -4,23 -1,-9 -4,-3 -8,-4 3,-5 5,-11 6,-19 1,-8 2,-17 6,-25 -4,9 -5,6 -4,4 -3,10 -4,21 -6,32 -3,-2 -4,6 -7,14 4,-2 3,4 2,12 -2,8 -3,19 -4,26 -2,0 -3,-3 0,-19 -4,8 -3,14 -2,20 1,6 1,12 -1,20 0,-3 1,-5 0,-7 0,9 -4,31 -5,26l1 -4c-2,6 -2,15 -3,23 0,5 0,9 -1,14 0,4 0,8 0,13 1,8 1,16 2,22 0,6 1,10 3,11 -1,0 -6,-3 -8,-5 6,16 13,31 20,45 -5,-3 -14,13 -18,-8 0,6 0,14 2,27 1,-5 6,-11 7,-6 -3,17 -2,11 -3,32 0,-7 8,-1 9,9 -1,-1 -6,2 -8,-2 4,8 8,16 12,24 -3,-6 -6,0 -7,6 1,-3 5,21 7,27l-1 -11c3,14 7,20 11,26 5,6 9,12 14,25 -2,-1 -4,-3 -6,-2 -1,1 -2,1 -2,3 0,3 0,6 2,11 1,1 1,2 3,3 0,1 1,1 1,2 1,0 1,0 1,1 1,0 1,1 2,0 5,-1 11,-3 16,-4 10,-4 22,-6 34,-7l5 3 19 -1c-6,2 -18,5 -30,8 -6,1 -12,3 -18,4 -3,1 -6,1 -9,2 -4,0 -8,0 -11,1 14,2 7,3 22,4 3,1 1,1 -3,1 -4,1 -7,1 -12,0l38 5c-1,-5 28,-2 27,-6l-40 1c-1,-4 24,-9 50,-7 6,2 -6,7 -5,9 3,-2 24,-2 26,0l-11 1c15,2 24,-4 41,1 6,1 18,6 19,4 -10,-5 -11,-19 -4,-23 2,1 31,6 37,8 10,4 -15,8 -7,12 1,-1 6,-2 9,-3 6,1 -3,4 11,4 2,-4 27,1 6,-4 13,0 14,2 30,2 -5,-3 14,-9 27,-10 -1,1 2,3 4,3 27,1 41,3 67,3 2,1 14,2 9,4 4,-1 7,-2 15,-2 15,3 -17,0 -6,5 1,-3 20,-4 31,-5 -3,-4 -25,-1 -36,1 -1,-5 19,-11 45,-13 21,-2 9,3 13,2 40,0 33,-9 66,-7 13,3 1,7 4,9 -17,2 -26,-1 -38,-1l14 1c-5,1 -16,3 -23,2 11,2 67,-1 98,0 5,-1 14,-2 10,-4l-10 1c-9,-2 18,-4 6,-5 13,-2 27,-5 45,-5l4 4c0,-1 -12,-2 -17,0 7,-2 28,3 36,-2l-13 -2c13,-2 29,-7 45,-6 -7,-4 -4,0 -15,-3 10,4 -41,1 -25,6 -12,-4 -21,-1 -36,-5 0,1 5,2 -8,2 -1,0 -2,1 -3,1 0,0 -1,0 -1,0 0,0 1,0 1,0 -1,0 -1,1 0,0 3,1 6,1 7,2 -7,3 -28,4 -35,5 -8,0 3,-1 -1,-2l-11 2c-1,-2 -22,-4 -3,-6l-17 1c-10,-2 -24,-2 -32,-1 -8,0 -20,4 -13,2l-27 2 0 -1c-27,0 -54,5 -84,0 -9,1 -18,2 -33,1l-3 -2c-12,0 -34,-3 -39,-1 -6,-3 -20,-4 -35,-4 -14,0 -30,0 -40,-1l-1 3c-14,0 -27,0 -44,0l1 3c-15,1 -38,-4 -61,-5 2,-1 8,0 12,0 -14,-3 -29,-4 -43,-3 -7,0 -14,0 -21,-1 -2,0 -4,0 -5,0 -2,0 -2,0 -3,0 -2,-1 -3,-1 -4,-2 -1,0 -1,-1 -2,-2 0,-1 0,-2 0,-3 0,0 0,0 0,0 0,0 0,0 0,-1 -1,-3 -1,-6 -2,-9 1,3 1,5 1,8 -1,-5 -4,-12 -7,-18l2 -4c0,0 0,-1 0,-1 -1,-7 -3,-5 -4,-1 -2,-4 -3,-7 -4,-9 3,-7 -7,-18 -4,-26 -1,-2 -4,-11 -6,-19 -3,-9 -5,-17 -8,-19 1,0 1,-2 1,2 0,-8 -1,-16 -3,-23l3 -4c-2,-6 -4,-11 -6,-17 1,-11 2,-15 5,-5 -6,-25 -3,-20 -7,-41l2 1c0,-8 -3,-20 -1,-25 2,-9 3,-30 6,-54 2,-12 3,-26 6,-38 2,-6 3,-13 4,-18 2,-6 4,-12 5,-17 -4,3 -2,-2 0,-8 3,-6 6,-13 4,-14 2,-2 5,-8 4,-1 1,-5 3,-10 4,-14 1,-4 3,-8 4,-11 3,-7 5,-14 5,-22 3,-2 1,6 3,4 0,-2 1,-7 3,-9 2,-2 0,3 -1,7 8,-21 4,-25 1,-29 7,-10 9,-15 9,-24 2,-2 4,-4 5,-4 1,0 0,2 -3,9 2,-4 8,-15 13,-25 5,-10 11,-19 9,-20 2,-2 6,-10 7,-12 10,-15 11,-16 20,-31l-3 4c0,-9 8,-13 16,-25l0 1c11,-12 13,-15 15,-18 2,-3 4,-6 16,-17l-3 -1c-2,-3 3,-8 11,-14 7,-5 16,-12 22,-19 -2,1 -4,2 -6,3 3,-4 10,-8 17,-11 3,-1 6,-3 10,-4 3,-2 6,-3 8,-5 2,-1 -2,3 -4,6 22,-15 0,-6 14,-19 4,-1 0,7 10,-2 4,-1 10,-8 18,-16 8,-8 18,-16 27,-19 -5,0 -9,1 -2,-5 6,-4 15,-8 24,-12 8,-4 16,-8 21,-13 2,-1 2,-1 3,-1 4,-3 12,-7 19,-12 7,-4 14,-8 16,-11 4,2 9,0 15,-2 7,-3 14,-6 21,-10 7,-3 14,-6 19,-8 5,-2 9,-2 10,0l8 -3 8 -2 16 -5 -1 1c21,-5 28,-8 35,-12 5,0 1,1 1,2 16,-2 24,-3 32,-5 8,-1 15,-4 28,-7l3 2c3,-1 15,-1 29,-1 14,1 31,1 47,0 -1,0 -1,1 -4,1 9,0 18,0 28,1 9,2 19,3 28,5 8,1 17,3 23,3 7,1 13,1 16,-2 8,1 15,1 23,2 -29,-7 5,-3 -6,-8 11,2 29,10 15,8l-3 -2c-3,3 6,5 16,8 9,3 19,6 18,7 28,8 55,19 80,32 12,5 24,13 37,19 11,7 23,14 35,22l-3 -8 16 11c3,3 3,6 -8,-1 2,3 7,5 12,7 4,2 8,4 9,3 20,17 -12,-1 -5,3l9 6 -2 -1c9,3 11,2 23,12 8,7 3,6 6,8 0,1 1,2 5,4l17 16 -5 -9c5,3 9,7 11,9 3,2 3,1 0,-4 4,8 21,23 35,39 15,16 28,32 31,36 5,5 10,11 15,17 5,6 10,13 15,20 -2,-4 0,-9 8,5 -10,0 13,26 13,40 -1,-6 5,4 10,13 5,9 10,17 9,8 5,12 -3,2 0,11 17,27 26,64 37,100 1,1 1,-6 5,1 0,7 0,14 0,21 2,8 7,6 7,20 0,-2 1,-5 3,0 5,37 10,75 11,114 1,38 -2,78 -13,114 3,-10 2,-3 1,5 1,-5 3,1 4,0 -3,10 -7,20 -10,30 2,7 -9,33 -6,38l2 -10c1,14 15,-16 20,-13 -1,-8 3,-17 7,-28 4,-11 8,-24 6,-37 2,-5 1,5 3,2 -2,-6 -1,-14 1,-28l1 1c3,-40 6,-58 5,-104l-2 4c-1,-10 0,-12 1,-17 -6,-11 1,28 -4,18 1,-3 1,-9 1,-17 0,-3 0,-7 0,-11 -1,-4 -1,-9 -2,-13 -1,-8 -2,-16 -2,-23 -1,-7 -1,-12 0,-14 -2,-15 -2,4 -5,-10l1 -5 -3 -3c-2,-10 -1,-15 1,-16 0,3 2,7 2,9 0,-6 -2,-15 -5,-23 -2,-8 -5,-14 -5,-16l3 14c-6,-20 -13,-42 -21,-63 -4,-11 -9,-21 -14,-31 -2,-5 -4,-10 -7,-15 -2,-4 -5,-9 -8,-13l0 3c-8,-13 -10,-18 -13,-24 -1,-3 -3,-6 -5,-10 -2,-4 -5,-10 -10,-16l1 0c-5,-4 -10,-12 -15,-19 6,6 -6,-15 1,-7 -21,-25 -11,-12 -28,-26l-1 -6c-6,-4 -7,-4 -19,-16 11,9 -4,-11 8,-1 -5,-7 -10,-13 -14,-18 -5,-5 -10,-9 -14,-12 -8,-8 -14,-13 -18,-21 -15,-6 20,24 12,18 2,4 -1,2 -5,-1 -5,-3 -11,-9 -15,-12 -4,-4 -6,-9 -10,-15 -4,-6 -9,-14 -20,-22 2,2 3,1 5,3 -8,-8 -18,-11 -27,-21 -8,-1 -13,-10 -18,-7 8,4 15,9 22,14 -6,-4 -13,-7 -20,-10 -8,-4 -16,-9 -25,-16 2,0 8,3 13,5 -5,-5 -12,-7 -17,-12 4,-3 27,16 41,22 -5,-6 -26,-14 -17,-14 -13,0 -22,-16 -42,-21l3 -2c-3,-1 -9,-3 -14,-5 4,0 7,1 11,1 -8,-2 -14,-6 -20,-10 -7,-4 -13,-9 -20,-11 28,14 5,6 16,14 -18,-8 -22,-11 -27,-16 -5,-4 -10,-9 -30,-17 5,2 20,10 11,8 -8,-4 -18,-9 -22,-12 -27,-8 3,4 -9,2 -8,-6 -13,-3 -26,-6l1 -3c-15,-5 -18,-4 -20,-3 -2,1 -3,1 -17,-3 4,0 8,-1 13,-1 -5,-1 -10,-1 -15,-2l3 -3c-8,-1 -13,-1 -19,-2 -5,-2 -10,-3 -18,-5 3,3 -3,5 -17,3 -10,-3 6,-2 -15,-4 5,-2 11,-3 19,1 1,-1 5,-1 6,-2 -5,-2 -12,-3 -18,-4 -6,0 -12,-1 -16,-1 3,0 6,1 8,1 -5,0 -10,0 -15,1l-15 0c-4,-1 -1,-2 3,-2 -6,0 -10,1 -19,0 2,-2 2,-4 15,-4l-15 0 -14 1c-2,-1 -14,-3 -11,-4 -7,-1 -17,0 -27,2 -11,1 -21,3 -32,3 -1,0 -3,1 -7,1 -20,2 -38,1 -60,9 -4,-1 -9,-2 -14,-2 -17,5 19,1 -10,10 -21,6 -9,-2 -16,-2 -10,6 -27,14 -46,18 6,-3 11,-4 16,-7z" />
                <path class="fil2" d="M717 387c0,-1 1,-1 2,-1 0,-2 -1,-2 -2,1z" />
                <path class="fil2" d="M1232 22l1 0c0,-1 1,-1 1,-1l-2 1z" />
                <path class="fil2" d="M893 891c-4,-1 -6,-2 -7,-2 -1,1 1,1 7,2z" />
                <path class="fil2" d="M1300 858l-12 1c6,0 8,0 11,0 0,0 -3,-1 1,-1z" />
                <path class="fil2" d="M1410 871c1,-1 3,-1 5,-1l0 -1c-8,0 -14,1 -5,2z" />
                <path class="fil2" d="M1312 867c1,2 9,1 18,0 -1,0 -1,0 -2,0 3,-3 -7,-2 -16,0z" />
                <path class="fil2" d="M1332 867c2,0 5,0 8,0 1,-2 -3,-1 -8,0z" />
                <path class="fil2" d="M1221 864c5,0 3,-3 5,-2 5,-4 -27,4 -5,2z" />
                <polygon class="fil2" points="1319,874 1316,872 1311,874 " />
                <path class="fil2" d="M1250 875l14 0c0,0 2,0 4,-1 -9,0 -18,0 -18,1z" />
                <path class="fil2" d="M1268 874c4,0 9,0 11,-1 -2,0 -8,1 -11,1z" />
                <polygon class="fil2" points="1300,876 1296,876 1286,876 " />
                <path class="fil2" d="M1099 878l-15 1c-2,1 2,2 8,1 4,0 10,-1 7,-2z" />
                <path class="fil2" d="M1146 886c-4,-1 -5,-1 -7,-2l-1 3 8 -1z" />
                <path class="fil2" d="M1101 887c-2,1 -22,4 -3,3 2,-1 17,-2 3,-3z" />
                <polygon class="fil2" points="870,880 874,880 874,874 " />
                <path class="fil2" d="M678 835c4,18 4,3 8,20 3,4 -3,-14 0,-10 -5,-10 -6,-16 -8,-10z" />
                <path class="fil2" d="M686 845c0,2 1,4 2,5 -1,-3 -2,-4 -2,-5z" />
                <path class="fil2" d="M1866 813c-1,4 -2,7 -4,11 1,-2 3,-5 4,-7l0 -4z" />
                <path class="fil2" d="M1864 835l-4 2 1 8c1,-3 2,-8 3,-10z" />
                <path class="fil2" d="M870 169l-1 1c2,-1 5,-2 9,-6l-8 5z" />
                <polygon class="fil2" points="1007,82 1005,83 1011,83 " />
                <path class="fil2" d="M1135 31c-6,1 -12,4 -17,5 5,-2 10,-2 13,-2 4,-1 5,-1 4,-3z" />
                <path class="fil3" d="M1344 736l11 -59 84 13 12 63c0,0 -89,32 -107,-17z" />
                <path class="fil3"
                    d="M1585 777c-46,-7 -80,-19 -107,-41 -4,-3 -7,-6 -9,-9 -3,-4 -8,-4 -12,-1 -14,11 -32,21 -52,21 -28,0 -45,-10 -54,-18 -5,-4 -12,-2 -13,4 -3,11 -4,23 -5,35 0,23 0,43 0,61 0,10 7,19 17,19l39 0c7,0 13,-5 16,-13l4 -9 12 14c3,5 9,8 14,8l172 0c10,0 18,-10 17,-21 -2,-22 -9,-46 -39,-50z" />
                <path class="fil3"
                    d="M1607 848l-172 0c-5,0 -11,-3 -14,-8l-12 -14 -4 9c-3,8 -9,13 -16,13l-39 0c-10,0 -17,-9 -17,-19 0,-3 0,-6 0,-9 115,2 247,1 290,1 1,2 1,4 1,6 1,11 -7,21 -17,21z" />
                <path class="fil3"
                    d="M1499 71c-2,41 -4,82 -6,122 -7,165 -18,330 -36,496 -1,7 -4,14 -9,19 -29,28 -75,25 -100,-6 -5,-5 -7,-12 -8,-19 -2,-162 -11,-325 -23,-487 -5,-56 -9,-112 -14,-169l196 44z" />
                <path class="fil3" d="M974 674l32 -51 74 43 -12 63c0,0 -95,-2 -94,-55z" />
                <path class="fil3"
                    d="M1184 800c-41,-23 -68,-47 -85,-77 -3,-4 -4,-8 -6,-12 -1,-4 -6,-7 -10,-5 -17,6 -37,8 -56,1 -27,-11 -39,-26 -44,-37 -3,-5 -10,-6 -14,-1 -6,9 -12,20 -17,31 -9,22 -16,40 -22,56 -4,10 0,21 8,24l37 15c7,2 14,0 19,-7l8 -6 6 17c1,6 5,10 10,12l161 63c9,4 20,-2 23,-13 6,-21 7,-46 -18,-61z" />
                <path class="fil3"
                    d="M1179 874l-161 -63c-5,-2 -9,-6 -10,-12l-6 -17 -8 6c-5,7 -12,9 -19,7l-37 -15c-8,-3 -12,-14 -8,-24 1,-2 2,-5 3,-7 106,44 229,90 270,106 0,2 -1,4 -1,6 -3,11 -14,17 -23,13z" />
                <path class="fil3"
                    d="M1264 41c-4,51 -8,101 -15,152 -2,21 -5,42 -9,64 -3,21 -8,45 -14,66 -11,41 -24,80 -38,119 -27,77 -56,153 -92,228 -3,7 -8,12 -15,15 -37,18 -79,-4 -92,-40 -3,-6 -3,-13 -1,-19 24,-72 43,-148 59,-224 8,-38 16,-76 21,-112 1,-9 2,-18 3,-26 0,-8 1,-17 1,-26 1,-18 1,-37 1,-56 0,-36 -1,-74 -3,-112l194 -29z" />
                <path class="fil0" d="M1867 833c5,0 3,-2 4,-2 -9,0 -4,3 -4,2z" />
                <polygon class="fil0" points="1781,842 1782,841 1770,844 " />
                <path class="fil0" d="M1701 846c7,4 29,-2 43,-1l2 1 7 -4c-18,1 -40,5 -52,4z" />
                <path class="fil0" d="M1657 839c3,1 -9,2 10,0 -1,0 -1,0 -1,0 -2,0 -5,0 -9,0z" />
                <path class="fil0" d="M1666 839c8,-1 -6,-2 0,0z" />
                <path class="fil0" d="M1627 842l11 -2c-3,-1 -13,-1 -9,-2 -11,1 -9,2 -2,4z" />
                <path class="fil0" d="M1616 845l6 -1c-1,0 -3,0 -6,1z" />
                <path class="fil0" d="M1634 842l-12 2c2,1 2,2 5,0 0,1 2,0 7,-2z" />
                <path class="fil0" d="M1641 843c6,0 14,0 3,2 22,-1 18,-4 -3,-2z" />
                <path class="fil0" d="M1697 851l8 0 7 -1c-3,1 -16,-1 -15,1z" />
                <path class="fil0" d="M1557 843c-1,1 4,2 5,3l8 -1c-4,0 -12,-1 -13,-2z" />
                <path class="fil0" d="M1562 846l-12 3c11,-1 13,-2 12,-3z" />
                <polygon class="fil0" points="1614,850 1634,846 1611,850 " />
                <polygon class="fil0" points="1510,846 1517,843 1505,847 " />
                <path class="fil0" d="M1479 848c5,-2 -7,-3 -2,-4 -8,0 -15,2 -22,4 7,-1 14,-1 24,0z" />
                <path class="fil0" d="M1444 850c4,0 7,-1 11,-2 -3,1 -7,1 -11,2z" />
                <path class="fil0" d="M1529 849c-1,0 -3,-2 -10,-2l5 3c1,-1 3,-1 5,-1z" />
                <path class="fil0" d="M1524 850l0 0c-5,0 -9,0 -11,0 2,0 5,0 11,0z" />
                <path class="fil0" d="M1530 849c-1,0 -1,0 -1,0 0,1 0,1 1,0z" />
                <path class="fil0" d="M1582 849c-7,2 -22,5 -7,6 5,-2 -4,-3 7,-6z" />
                <path class="fil0" d="M1536 852l13 0c0,-1 -3,-2 1,-2l-14 2z" />
                <polygon class="fil0" points="1530,853 1536,852 1531,852 " />
                <path class="fil0" d="M1467 852c-6,1 -12,2 -19,2 8,0 15,0 23,0 1,-1 4,-3 -4,-2z" />
                <path class="fil0" d="M1495 851c-1,0 -1,0 -2,0 1,0 2,0 2,0z" />
                <path class="fil0" d="M1380 858c0,0 0,0 1,0 0,0 0,0 0,-1l-1 1z" />
                <path class="fil0" d="M1472 854c6,0 9,-1 12,-2 -4,1 -9,1 -13,2 -1,0 -1,0 1,0z" />
                <path class="fil0" d="M1425 853c3,0 7,0 10,1 -3,-1 -9,-2 -10,-1z" />
                <path class="fil0" d="M1491 851c1,-1 1,-1 1,-1 -2,0 -1,0 -1,1z" />
                <path class="fil0" d="M1491 851c-2,0 -5,1 -7,1 4,0 7,0 9,-1 0,0 -1,0 -2,0z" />
                <path class="fil0"
                    d="M1360 875c0,-2 15,-5 28,-4 12,-2 4,-9 -7,-13 -1,1 -1,2 -13,4 4,1 28,2 18,4 -17,2 -14,0 -23,-1 7,3 -21,6 -17,10l14 -2c1,0 -5,1 0,2z" />
                <path class="fil0" d="M1405 857l6 -1c-6,0 -11,0 -19,-2 -9,2 -10,3 -11,3l26 0 -2 0z" />
                <path class="fil0"
                    d="M1434 855c-4,3 -16,5 -8,7 15,-1 10,-3 20,-4 -25,2 7,-2 -11,-3 5,0 9,-1 13,-1 -4,0 -9,0 -13,0 0,0 0,0 1,0l0 0 0 0c1,0 1,0 0,0 0,0 0,0 -1,0 0,1 0,1 -1,1 -7,0 -1,0 1,-1 1,0 1,0 1,0 0,0 0,0 0,0l-25 2c5,0 12,0 23,-1z" />
                <path class="fil0" d="M1561 861c0,0 0,0 0,0 -2,0 -3,0 0,0z" />
                <path class="fil0"
                    d="M1551 860c2,0 3,-1 9,-1 5,0 0,1 1,2 3,-1 12,-3 1,-3l-2 0c-10,0 -23,-3 -22,-3 3,2 6,3 13,5z" />
                <path class="fil0" d="M1492 858l-21 3 11 2 -1 -2c12,0 10,-1 11,-3z" />
                <polygon class="fil0" points="1377,856 1380,854 1368,858 " />
                <polygon class="fil0" points="1350,858 1351,856 1344,857 " />
                <path class="fil0" d="M995 92l6 -4c-3,2 -4,3 -6,4z" />
                <path class="fil0" d="M955 114l0 2c2,-2 2,-3 0,-2z" />
                <path class="fil0" d="M711 839c0,-9 0,-19 -2,-17l-2 3c3,6 4,10 4,14z" />
                <path class="fil0" d="M723 396c-1,0 -1,1 -2,2 0,2 0,4 0,6 0,-2 1,-5 2,-8z" />
                <path class="fil0" d="M716 385c2,-3 4,-6 7,-10 -2,2 -5,6 -7,10z" />
                <path class="fil0" d="M1234 21l7 -3c-12,1 -6,2 -7,3z" />
                <path class="fil0" d="M1071 867c-8,-1 -14,-1 -19,-1 9,1 17,3 19,1z" />
                <path class="fil0" d="M993 124c3,-2 4,-3 4,-4 -4,3 -5,4 -4,4z" />
                <path class="fil0" d="M1029 866c2,0 3,0 5,0 5,0 11,-1 18,0 -7,-2 -15,-2 -23,0z" />
                <path class="fil0" d="M1902 516c0,1 0,2 0,2 1,0 1,0 0,-2z" />
                <path class="fil0" d="M1879 773c1,-2 1,-6 2,-10 0,2 -1,5 -2,10z" />
                <path class="fil0" d="M1240 861c6,0 1,0 0,0z" />
                <path class="fil0" d="M1269 871c-1,0 -2,0 -2,1 0,-1 1,-1 2,-1z" />
                <path class="fil0" d="M972 881c0,0 -1,0 -1,0 2,1 2,1 1,0z" />
                <path class="fil0" d="M1249 862c-2,0 -5,0 -7,0 1,0 3,0 7,0z" />
                <path class="fil0" d="M1248 861c2,0 3,0 5,0 1,0 0,-1 -5,0z" />
                <path class="fil0" d="M1232 862c4,0 7,0 10,0 -2,0 -2,-1 -2,-1 -1,0 -4,1 -8,1z" />
                <path class="fil0" d="M1630 132c0,0 1,0 1,1 5,2 3,1 -1,-1z" />
                <path class="fil0" d="M657 697c0,0 0,1 0,1 0,0 0,-1 0,-1l0 0z" />
                <path class="fil0" d="M654 676c3,9 3,14 3,21l7 -8c-4,-4 -7,-8 -10,-13z" />
                <path class="fil0"
                    d="M1668 184l-2 -3c7,5 4,4 2,3zm-471 682c2,0 1,-1 1,-1 -2,1 -6,1 -11,1 1,1 4,1 10,0zm-20 0c0,0 0,0 0,0 -10,-1 -6,-1 0,0zm-472 -443c0,-3 3,-7 6,-12 -2,4 -3,8 -6,12zm195 -269c2,-2 4,-4 6,-7 2,-2 5,-3 7,-4 -2,6 -6,7 -13,11zm196 -105l-15 3c16,-10 30,-12 15,-11 0,4 -14,9 -27,14 -14,5 -28,11 -27,15 -3,1 -6,2 -10,2 3,-1 3,-1 6,-2 -10,2 -12,5 -16,8 -3,4 -6,7 -18,12 -7,4 -13,5 -9,2 -5,3 -10,7 -15,11 -5,2 -5,0 0,-2 -8,5 -17,10 -25,15l0 0c-3,3 -10,10 -13,13 -7,3 3,-3 1,-3 -5,4 -9,7 -13,11 -6,2 3,-8 13,-13 -17,1 -10,9 -39,24 4,-4 8,-7 12,-10 -11,2 -20,11 -35,19 4,-1 32,-16 19,-3 -4,2 -10,6 -16,13 -2,-2 -9,5 -17,12l-2 -3c-9,9 -7,10 -11,16 -10,10 -14,10 -19,10 -16,16 14,-8 -3,12 -14,12 -22,23 -34,41 -9,10 -1,-3 -4,0l-5 11c-2,2 -2,1 -2,0 -5,9 2,3 -6,16 0,3 -5,8 -12,15 -7,7 -14,16 -17,25 -4,4 -1,-3 -3,-2 -6,11 -8,17 -10,21 -1,5 -3,9 -6,19l-10 15c4,-5 5,-3 4,1 0,3 -1,6 -2,9 0,3 -1,7 -2,11 3,-4 6,-7 7,-9l-7 22c-2,2 -2,0 -2,-5 -1,2 -1,3 -1,5 -5,7 -5,2 -5,-4 2,-3 4,-5 6,-7 0,-6 0,-12 -2,-12 -1,1 -1,4 -3,7 1,-1 0,-3 0,-2 -1,0 -1,3 -2,7l-6 3 1 2c-5,9 -9,18 -14,28 -2,11 -3,22 -4,34 -1,6 -2,12 -3,19 -1,7 -2,14 -4,23 -1,-9 -4,-3 -8,-4 3,-5 5,-11 6,-19 1,-8 2,-17 6,-25 -4,9 -5,6 -4,4 -3,10 -4,21 -6,32 -3,-2 -4,6 -7,14 4,-2 3,4 2,12 -2,8 -3,19 -4,26 -2,0 -3,-3 0,-19 -4,8 -3,14 -2,20 1,6 1,12 -1,20 0,-3 1,-5 0,-7 0,9 -4,31 -5,26l1 -4c-2,6 -2,15 -3,23 0,5 0,9 -1,14 0,4 0,8 0,13 1,8 1,16 2,22 0,6 1,10 3,11 -1,0 -6,-3 -8,-5 6,16 13,31 20,45 -5,-3 -14,13 -18,-8 0,6 0,14 2,27 1,-5 6,-11 7,-6 -3,17 -2,11 -3,32 0,-7 8,-1 9,9 -1,-1 -6,2 -8,-2 4,8 8,16 12,24 -3,-6 -6,0 -7,6 1,-3 5,21 7,27l-1 -11c3,14 7,20 11,26 5,6 9,12 14,25 -2,-1 -4,-3 -6,-2 -1,1 -2,1 -2,3 0,3 0,6 2,11 1,1 1,2 3,3 0,1 1,1 1,2 1,0 1,0 1,1 1,0 1,1 2,0 5,-1 11,-3 16,-4 10,-4 22,-6 34,-7l5 3 19 -1c-6,2 -18,5 -30,8 -6,1 -12,3 -18,4 -3,1 -6,1 -9,2 -4,0 -8,0 -11,1 14,2 7,3 22,4 3,1 1,1 -3,1 -4,1 -7,1 -12,0l38 5c-1,-5 28,-2 27,-6l-40 1c-1,-4 24,-9 50,-7 6,2 -6,7 -5,9 3,-2 24,-2 26,0l-11 1c15,2 24,-4 41,1 6,1 18,6 19,4 -10,-5 -11,-19 -4,-23 2,1 31,6 37,8 10,4 -15,8 -7,12 1,-1 6,-2 9,-3 6,1 -3,4 11,4 2,-4 27,1 6,-4 13,0 14,2 30,2 -5,-3 14,-9 27,-10 -1,1 2,3 4,3 27,1 41,3 67,3 2,1 14,2 9,4 4,-1 7,-2 15,-2 15,3 -17,0 -6,5 1,-3 20,-4 31,-5 -3,-4 -25,-1 -36,1 -1,-5 19,-11 45,-13 21,-2 9,3 13,2 40,0 33,-9 66,-7 13,3 1,7 4,9 -17,2 -26,-1 -38,-1l14 1c-5,1 -16,3 -23,2 11,2 67,-1 98,0 5,-1 14,-2 10,-4l-10 1c-9,-2 18,-4 6,-5 13,-2 27,-5 45,-5l4 4c0,-1 -12,-2 -17,0 7,-2 28,3 36,-2l-13 -2c13,-2 29,-7 45,-6 -7,-4 -4,0 -15,-3 10,4 -41,1 -25,6 -12,-4 -21,-1 -36,-5 0,1 5,2 -8,2 -1,0 -2,1 -3,1 0,0 -1,0 -1,0 0,0 1,0 1,0 -1,0 -1,1 0,0 3,1 6,1 7,2 -7,3 -28,4 -35,5 -8,0 3,-1 -1,-2l-11 2c-1,-2 -22,-4 -3,-6l-17 1c-10,-2 -24,-2 -32,-1 -8,0 -20,4 -13,2l-27 2 0 -1c-27,0 -54,5 -84,0 -9,1 -18,2 -33,1l-3 -2c-12,0 -34,-3 -39,-1 -6,-3 -20,-4 -35,-4 -14,0 -30,0 -40,-1l-1 3c-14,0 -27,0 -44,0l1 3c-15,1 -38,-4 -61,-5 2,-1 8,0 12,0 -14,-3 -29,-4 -43,-3 -7,0 -14,0 -21,-1 -2,0 -4,0 -5,0 -2,0 -2,0 -3,0 -2,-1 -3,-1 -4,-2 -1,0 -1,-1 -2,-2 0,-1 0,-2 0,-3 0,0 0,0 0,0 0,0 0,0 0,-1 -1,-3 -1,-6 -2,-9 1,3 1,5 1,8 -1,-5 -4,-12 -7,-18l2 -4c0,0 0,-1 0,-1 -1,-7 -3,-5 -4,-1 -2,-4 -3,-7 -4,-9 3,-7 -7,-18 -4,-26 -1,-2 -4,-11 -6,-19 -3,-9 -5,-17 -8,-19 1,0 1,-2 1,2 0,-8 -1,-16 -3,-23l3 -4c-2,-6 -4,-11 -6,-17 1,-11 2,-15 5,-5 -6,-25 -3,-20 -7,-41l2 1c0,-8 -3,-20 -1,-25 2,-9 3,-30 6,-54 2,-12 3,-26 6,-38 2,-6 3,-13 4,-18 2,-6 4,-12 5,-17 -4,3 -2,-2 0,-8 3,-6 6,-13 4,-14 2,-2 5,-8 4,-1 1,-5 3,-10 4,-14 1,-4 3,-8 4,-11 3,-7 5,-14 5,-22 3,-2 1,6 3,4 0,-2 1,-7 3,-9 2,-2 0,3 -1,7 8,-21 4,-25 1,-29 7,-10 9,-15 9,-24 2,-2 4,-4 5,-4 1,0 0,2 -3,9 2,-4 8,-15 13,-25 5,-10 11,-19 9,-20 2,-2 6,-10 7,-12 10,-15 11,-16 20,-31l-3 4c0,-9 8,-13 16,-25l0 1c11,-12 13,-15 15,-18 2,-3 4,-6 16,-17l-3 -1c-2,-3 3,-8 11,-14 7,-5 16,-12 22,-19 -2,1 -4,2 -6,3 3,-4 10,-8 17,-11 3,-1 6,-3 10,-4 3,-2 6,-3 8,-5 2,-1 -2,3 -4,6 22,-15 0,-6 14,-19 4,-1 0,7 10,-2 4,-1 10,-8 18,-16 8,-8 18,-16 27,-19 -5,0 -9,1 -2,-5 6,-4 15,-8 24,-12 8,-4 16,-8 21,-13 2,-1 2,-1 3,-1 4,-3 12,-7 19,-12 7,-4 14,-8 16,-11 4,2 9,0 15,-2 7,-3 14,-6 21,-10 7,-3 14,-6 19,-8 5,-2 9,-2 10,0l8 -3 8 -2 16 -5 -1 1c21,-5 28,-8 35,-12 5,0 1,1 1,2 16,-2 24,-3 32,-5 8,-1 15,-4 28,-7l3 2c3,-1 15,-1 29,-1 14,1 31,1 47,0 -1,0 -1,1 -4,1 9,0 18,0 28,1 9,2 19,3 28,5 8,1 17,3 23,3 7,1 13,1 16,-2 8,1 15,1 23,2 -29,-7 5,-3 -6,-8 11,2 29,10 15,8l-3 -2c-3,3 6,5 16,8 9,3 19,6 18,7 28,8 55,19 80,32 12,5 24,13 37,19 11,7 23,14 35,22l-3 -8 16 11c3,3 3,6 -8,-1 2,3 7,5 12,7 4,2 8,4 9,3 20,17 -12,-1 -5,3l9 6 -2 -1c9,3 11,2 23,12 8,7 3,6 6,8 0,1 1,2 5,4l17 16 -5 -9c5,3 9,7 11,9 3,2 3,1 0,-4 4,8 21,23 35,39 15,16 28,32 31,36 5,5 10,11 15,17 5,6 10,13 15,20 -2,-4 0,-9 8,5 -10,0 13,26 13,40 -1,-6 5,4 10,13 5,9 10,17 9,8 5,12 -3,2 0,11 17,27 26,64 37,100 1,1 1,-6 5,1 0,7 0,14 0,21 2,8 7,6 7,20 0,-2 1,-5 3,0 5,37 10,75 11,114 1,38 -2,78 -13,114 3,-10 2,-3 1,5 1,-5 3,1 4,0 -3,10 -7,20 -10,30 2,7 -9,33 -6,38l2 -10c1,14 15,-16 20,-13 -1,-8 3,-17 7,-28 4,-11 8,-24 6,-37 2,-5 1,5 3,2 -2,-6 -1,-14 1,-28l1 1c3,-40 6,-58 5,-104l-2 4c-1,-10 0,-12 1,-17 -6,-11 1,28 -4,18 1,-3 1,-9 1,-17 0,-3 0,-7 0,-11 -1,-4 -1,-9 -2,-13 -1,-8 -2,-16 -2,-23 -1,-7 -1,-12 0,-14 -2,-15 -2,4 -5,-10l1 -5 -3 -3c-2,-10 -1,-15 1,-16 0,3 2,7 2,9 0,-6 -2,-15 -5,-23 -2,-8 -5,-14 -5,-16l3 14c-6,-20 -13,-42 -21,-63 -4,-11 -9,-21 -14,-31 -2,-5 -4,-10 -7,-15 -2,-4 -5,-9 -8,-13l0 3c-8,-13 -10,-18 -13,-24 -1,-3 -3,-6 -5,-10 -2,-4 -5,-10 -10,-16l1 0c-5,-4 -10,-12 -15,-19 6,6 -6,-15 1,-7 -21,-25 -11,-12 -28,-26l-1 -6c-6,-4 -7,-4 -19,-16 11,9 -4,-11 8,-1 -5,-7 -10,-13 -14,-18 -5,-5 -10,-9 -14,-12 -8,-8 -14,-13 -18,-21 -15,-6 20,24 12,18 2,4 -1,2 -5,-1 -5,-3 -11,-9 -15,-12 -4,-4 -6,-9 -10,-15 -4,-6 -9,-14 -20,-22 2,2 3,1 5,3 -8,-8 -18,-11 -27,-21 -8,-1 -13,-10 -18,-7 8,4 15,9 22,14 -6,-4 -13,-7 -20,-10 -8,-4 -16,-9 -25,-16 2,0 8,3 13,5 -5,-5 -12,-7 -17,-12 4,-3 27,16 41,22 -5,-6 -26,-14 -17,-14 -13,0 -22,-16 -42,-21l3 -2c-3,-1 -9,-3 -14,-5 4,0 7,1 11,1 -8,-2 -14,-6 -20,-10 -7,-4 -13,-9 -20,-11 28,14 5,6 16,14 -18,-8 -22,-11 -27,-16 -5,-4 -10,-9 -30,-17 5,2 20,10 11,8 -8,-4 -18,-9 -22,-12 -27,-8 3,4 -9,2 -8,-6 -13,-3 -26,-6l1 -3c-15,-5 -18,-4 -20,-3 -2,1 -3,1 -17,-3 4,0 8,-1 13,-1 -5,-1 -10,-1 -15,-2l3 -3c-8,-1 -13,-1 -19,-2 -5,-2 -10,-3 -18,-5 3,3 -3,5 -17,3 -10,-3 6,-2 -15,-4 5,-2 11,-3 19,1 1,-1 5,-1 6,-2 -5,-2 -12,-3 -18,-4 -6,0 -12,-1 -16,-1 3,0 6,1 8,1 -5,0 -10,0 -15,1l-15 0c-4,-1 -1,-2 3,-2 -6,0 -10,1 -19,0 2,-2 2,-4 15,-4l-15 0 -14 1c-2,-1 -14,-3 -11,-4 -7,-1 -17,0 -27,2 -11,1 -21,3 -32,3 -1,0 -3,1 -7,1 -20,2 -38,1 -60,9 -4,-1 -9,-2 -14,-2 -17,5 19,1 -10,10 -21,6 -9,-2 -16,-2 -10,6 -27,14 -46,18 6,-3 11,-4 16,-7z" />
                <path class="fil0" d="M717 387c0,-1 1,-1 2,-1 0,-2 -1,-2 -2,1z" />
                <path class="fil0" d="M1232 22l1 0c0,-1 1,-1 1,-1l-2 1z" />
                <path class="fil0" d="M893 891c-4,-1 -6,-2 -7,-2 -1,1 1,1 7,2z" />
                <path class="fil0" d="M1300 858l-12 1c6,0 8,0 11,0 0,0 -3,-1 1,-1z" />
                <path class="fil0" d="M1410 871c1,-1 3,-1 5,-1l0 -1c-8,0 -14,1 -5,2z" />
                <path class="fil0" d="M1312 867c1,2 9,1 18,0 -1,0 -1,0 -2,0 3,-3 -7,-2 -16,0z" />
                <path class="fil0" d="M1332 867c2,0 5,0 8,0 1,-2 -3,-1 -8,0z" />
                <path class="fil0" d="M1221 864c5,0 3,-3 5,-2 5,-4 -27,4 -5,2z" />
                <polygon class="fil0" points="1319,874 1316,872 1311,874 " />
                <path class="fil0" d="M1250 875l14 0c0,0 2,0 4,-1 -9,0 -18,0 -18,1z" />
                <path class="fil0" d="M1268 874c4,0 9,0 11,-1 -2,0 -8,1 -11,1z" />
                <polygon class="fil0" points="1300,876 1296,876 1286,876 " />
                <path class="fil0" d="M1099 878l-15 1c-2,1 2,2 8,1 4,0 10,-1 7,-2z" />
                <path class="fil0" d="M1146 886c-4,-1 -5,-1 -7,-2l-1 3 8 -1z" />
                <path class="fil0" d="M1101 887c-2,1 -22,4 -3,3 2,-1 17,-2 3,-3z" />
                <polygon class="fil0" points="870,880 874,880 874,874 " />
                <path class="fil0" d="M678 835c4,18 4,3 8,20 3,4 -3,-14 0,-10 -5,-10 -6,-16 -8,-10z" />
                <path class="fil0" d="M686 845c0,2 1,4 2,5 -1,-3 -2,-4 -2,-5z" />
                <path class="fil0" d="M1866 813c-1,4 -2,7 -4,11 1,-2 3,-5 4,-7l0 -4z" />
                <path class="fil0" d="M1864 835l-4 2 1 8c1,-3 2,-8 3,-10z" />
                <path class="fil0" d="M870 169l-1 1c2,-1 5,-2 9,-6l-8 5z" />
                <polygon class="fil0" points="1007,82 1005,83 1011,83 " />
                <path class="fil0" d="M1135 31c-6,1 -12,4 -17,5 5,-2 10,-2 13,-2 4,-1 5,-1 4,-3z" />
                <path class="fil0" d="M1556 285c0,0 0,1 0,1 0,0 0,-1 0,-1z" />
                <polygon class="fil0" points="1561,284 1561,284 1562,284 " />
                <path class="fil0" d="M1566 284c-1,-1 -2,0 -3,0l0 0 0 0c1,0 2,0 3,0z" />
                <path class="fil0" d="M1568 286c0,-1 1,-1 -1,0 1,0 1,0 1,0 0,0 0,0 0,0z" />
                <path class="fil0" d="M1568 286c-1,0 0,0 0,0z" />
                <path class="fil0" d="M1570 285l-1 1c0,0 1,0 1,0 0,0 0,0 0,-1z" />
                <path class="fil0" d="M1570 285l0 0c0,0 0,0 0,0z" />
                <path class="fil0" d="M1569 285l1 0c0,0 0,-1 0,0 0,0 0,0 -1,0z" />
                <path class="fil0" d="M1569 285c0,0 -1,0 0,-1 -1,1 -1,1 0,1z" />
                <path class="fil0" d="M1566 283l-1 0 0 0c0,0 1,0 1,0z" />
                <path class="fil0" d="M1574 286c0,0 0,-1 -1,-1l0 0c0,0 1,0 1,1z" />
                <path class="fil0" d="M1573 285l1 0c0,0 -1,0 -1,0z" />
                <polygon class="fil0" points="1570,284 1569,284 1571,284 " />
                <polygon class="fil0" points="1576,286 1576,286 1577,285 " />
                <path class="fil0" d="M1578 286c0,0 1,0 0,0 1,0 1,0 2,0 -1,0 -1,0 -2,0z" />
                <path class="fil0" d="M1580 285c0,0 0,1 0,1 0,0 0,-1 0,-1z" />
                <path class="fil0" d="M1575 285c0,0 1,0 1,0l0 0 -1 0z" />
                <path class="fil0" d="M1576 285l0 0c0,0 0,0 0,0 0,0 0,0 0,0z" />
                <path class="fil0" d="M1575 285c0,0 0,0 0,0 0,0 0,0 0,0z" />
                <path class="fil0" d="M1572 284c1,0 2,0 1,-1 -1,1 0,1 -1,1z" />
                <path class="fil0" d="M1575 284l-1 0c0,0 0,0 0,0l1 0z" />
                <polygon class="fil0" points="1575,284 1575,284 1575,284 " />
                <path class="fil0" d="M1579 285c0,0 1,0 1,0 -1,-1 -1,-1 -1,-1 0,1 -1,1 0,1z" />
                <path class="fil0" d="M1577 285c0,0 0,0 0,0 0,0 0,0 0,0z" />
                <path class="fil0" d="M1584 284c0,0 0,0 0,0 0,0 0,0 0,0l0 0z" />
                <path class="fil0" d="M1579 284c-1,0 -1,0 -1,1 0,-1 0,-1 1,-1 0,0 0,0 0,0z" />
                <path class="fil0" d="M1581 285c0,0 0,0 0,0 0,0 0,0 0,0z" />
                <path class="fil0" d="M1577 285l0 0c1,0 0,0 0,0z" />
                <path class="fil0" d="M1577 285c1,0 1,0 1,0 0,0 -1,0 -1,0 0,0 0,0 0,0z" />
                <path class="fil0"
                    d="M1585 281c0,1 -1,1 -2,1 0,0 0,1 1,2 0,0 0,0 0,0 0,-1 -1,-1 -1,-1 1,-1 1,0 2,0 -1,-1 1,-1 1,-2l-1 1c0,-1 0,-1 0,-1z" />
                <path class="fil0" d="M1582 284l0 0c0,0 1,1 1,1 1,0 1,0 1,-1l-2 0 0 0z" />
                <path class="fil0"
                    d="M1581 284c0,0 1,0 0,-1 -1,0 0,1 -1,1 1,0 0,0 1,0 -1,0 -1,1 -1,1 0,0 0,0 1,0 0,0 0,0 0,0l0 0c0,0 0,0 0,0 0,0 0,0 0,0 0,0 0,0 0,0 0,0 0,0 0,-1 0,1 0,1 0,1 0,0 0,0 0,0 0,0 0,0 0,0l1 -1c0,0 -1,0 -1,0z" />
                <path class="fil0" d="M1573 282c0,0 0,0 1,0 0,0 0,0 -1,0z" />
                <path class="fil0"
                    d="M1574 282c0,0 0,1 0,1 -1,-1 0,-1 0,-1 -1,0 -1,1 -1,1l1 0c0,0 1,0 1,1 0,-1 -1,-1 -1,-2z" />
                <path class="fil0" d="M1577 283l2 0 -1 0 0 0c-1,0 -1,0 -1,0z" />
                <polygon class="fil0" points="1584,285 1584,285 1584,284 " />
                <polygon class="fil0" points="1586,285 1585,285 1586,285 " />
                <path class="fil0" d="M1673 277l0 -1c0,0 0,0 0,1z" />
                <path class="fil0" d="M1670 277l0 0c0,0 0,0 0,0z" />
                <path class="fil0" d="M1624 284c0,0 1,1 1,0l-1 0c0,0 0,0 0,0z" />
                <path class="fil0" d="M1649 280c0,0 0,0 0,0 0,0 0,0 0,0 0,0 0,0 0,0z" />
                <path class="fil0" d="M1650 278l0 0c0,0 0,0 0,0z" />
                <path class="fil0" d="M1687 276l0 -1c-1,0 0,0 0,1z" />
                <path class="fil0" d="M1601 284c1,0 1,0 1,0 0,0 -1,0 -1,0z" />
                <path class="fil0" d="M1672 282c0,0 0,0 0,0 0,0 0,0 0,0z" />
                <path class="fil0" d="M1604 284c0,0 0,0 -1,0 0,0 0,0 -1,0 1,0 1,1 2,0z" />
                <path class="fil0" d="M1737 275c0,0 0,0 0,0 0,0 0,0 0,0z" />
                <path class="fil0" d="M1752 280c-1,0 -1,0 -1,0 0,0 0,0 1,0z" />
                <path class="fil0" d="M1592 285c-1,0 0,0 0,0z" />
                <path class="fil0" d="M1590 283c0,0 0,0 0,-1 0,1 0,1 0,1z" />
                <path class="fil0" d="M1607 281l0 0c0,0 0,0 0,0z" />
                <path class="fil0" d="M1591 284c0,0 1,1 1,1 0,0 -1,-1 -1,-1z" />
                <path class="fil0" d="M1591 285c0,0 0,0 0,0 0,0 0,0 0,0z" />
                <path class="fil0" d="M1592 285c0,0 0,0 0,0 0,0 0,0 0,0 0,0 0,0 0,0z" />
                <path class="fil0" d="M1710 277c0,0 0,0 0,0 0,0 0,0 0,0z" />
                <path class="fil0" d="M1632 278c0,0 0,0 0,0 0,0 0,0 0,0l0 0z" />
                <path class="fil0" d="M1633 278c0,0 -1,0 -1,0l0 2 1 -2z" />
                <path class="fil0"
                    d="M1714 281l-1 0c1,-1 1,-1 1,0zm-120 3c0,0 0,0 0,0 0,0 0,0 1,0 0,0 0,0 -1,0zm1 0c0,0 0,0 0,0 1,0 1,0 0,0zm53 -5c0,0 0,0 0,0 0,0 0,0 0,0zm18 -2c1,0 1,-1 1,0 0,0 0,0 -1,0zm13 -1l-1 0c1,-1 2,-1 1,-1 0,1 -3,0 -3,1l-1 0c0,0 0,0 0,0 -1,-1 0,1 -2,1 0,0 -1,0 0,0l-1 0c-1,0 -1,0 0,0l-2 0 0 0c0,0 -1,0 -1,1 0,-1 0,-1 0,-1l-1 1c0,-1 1,-1 1,-1 -1,-2 0,0 -2,-1l1 0c-1,-1 -2,0 -3,-1 1,0 2,1 1,2 0,0 0,0 -1,0 0,-1 0,0 -1,0l0 -1c-1,0 -1,1 -1,1 -1,0 -1,-1 -1,-1 -1,0 1,1 -1,1 -1,0 -1,0 -3,0 0,0 0,0 0,0l0 0c-1,0 -1,0 0,0 -1,0 -1,1 -1,1 -1,1 -2,-1 -3,0 0,0 0,-1 0,-1 -2,1 -1,1 -3,1l-1 0c1,1 0,1 -1,2 1,0 1,0 1,0l-1 1c0,0 0,0 0,-1 0,0 0,0 0,0 -1,0 0,0 0,-1 0,0 0,1 0,1 1,-1 1,-1 1,-2 0,0 0,0 -1,0 1,0 1,0 1,0 -1,0 -1,0 -1,0l0 0 0 0 -2 -1c-1,1 -2,3 -4,3 0,-1 0,-1 0,-2 0,1 1,0 2,0 0,0 0,0 0,-1l-2 1c0,0 0,0 -1,0 1,1 -1,0 -2,1 0,-1 1,-1 1,-1 -1,-1 -1,1 -2,1 0,0 1,0 1,0 -1,0 -2,0 -2,-1l0 0c-1,0 -4,0 -4,1 0,0 0,-1 0,-1l-3 3c1,0 0,-2 1,-3 0,0 -1,0 -2,0 1,0 1,1 1,1 -1,-1 -1,0 -2,-1 0,0 0,2 -1,2 0,-1 0,-2 1,-2l-2 2c0,-1 0,-2 0,-2 0,0 -1,0 -2,0l1 0c-2,0 -2,2 -3,2 0,0 0,-1 -1,-2 0,1 -1,4 -2,4l-1 0 -1 0c1,-1 3,-3 4,-4 -1,0 -1,0 -1,0 -1,0 0,-1 0,-1l-2 0c0,1 -1,1 -1,2l2 -1c0,1 -1,2 -3,2 0,0 1,-1 0,-2 0,1 -1,1 -1,1l1 -1c-1,0 -2,1 -3,1 0,0 -1,-1 -1,-1 1,1 1,4 1,4 0,0 -2,0 -3,-1 0,-1 1,-2 1,-2 0,0 -1,0 -1,0 0,0 0,0 0,0 0,1 -2,0 -1,1 0,0 0,-1 -1,-1 0,1 -1,2 -2,3 0,-1 0,-1 0,-1 -2,0 -2,0 -4,0 0,-1 -1,-1 0,-1 -1,0 -1,0 -1,0 -1,0 1,0 0,-1 0,1 -1,1 -2,1 0,1 2,0 2,0 0,1 -1,2 -2,3 -1,0 -1,-1 -1,-1 -2,0 -2,2 -4,1 0,0 0,-1 0,-1 1,-1 2,0 2,0l-1 0c1,-1 1,-1 2,-1 -1,0 -4,0 -6,0 0,0 -1,0 0,1l0 0c1,0 -1,0 0,0 -1,1 -2,1 -3,1l0 -1c0,1 1,1 1,1 0,0 -2,-1 -2,0l1 0c-1,1 -2,1 -3,1 1,1 0,0 1,1 0,-1 2,0 2,-1 0,1 1,0 2,1 0,0 -1,0 0,0 0,0 0,-1 0,-1 0,0 0,0 0,0 0,0 0,0 0,0 0,0 0,0 0,0 0,0 0,0 0,0 0,-1 1,-1 2,-1 0,0 0,0 0,1l0 -1c1,1 2,1 1,1l1 0c0,1 1,1 1,1 1,0 2,-1 1,-1l2 0 0 0c1,0 3,-1 4,0 1,0 2,0 2,0l1 0c0,0 1,1 2,0 0,2 3,1 4,1l0 -1c1,0 2,0 3,0l-1 -1c1,0 3,0 4,0 0,1 0,1 -1,0 2,2 4,-1 5,0 0,0 1,0 1,0 0,0 0,0 0,0 0,0 0,0 0,0 0,0 0,0 1,1 -1,-1 -1,-1 -1,-1 0,0 1,0 1,0l0 1c0,0 0,0 0,0 1,0 1,-1 1,-1 0,0 0,0 0,0 0,0 1,-1 2,0 0,0 2,0 2,-1 0,0 0,0 0,0 0,0 1,0 1,0l0 1 1 -1c1,0 1,0 1,1 1,-1 1,-1 2,-1l0 0c0,0 1,-1 1,0 1,1 5,0 8,1 -1,-2 1,0 1,-1 0,0 1,1 0,1 1,0 2,0 3,-1 0,1 0,1 0,1 0,0 0,0 0,0 1,0 0,0 0,0 1,0 1,-1 2,-2 0,1 1,1 1,0 0,0 1,1 0,1 0,0 3,0 3,-1 0,1 0,0 1,0 1,0 1,0 2,0l-1 0c1,-1 1,0 2,0l0 0c2,1 1,0 3,0l0 0c0,-1 1,0 2,0l0 0c0,-1 2,1 2,1 0,1 0,1 0,1 1,0 0,-1 1,-1 0,0 0,1 1,1 0,0 2,-2 3,-1 0,0 -1,0 0,-1 1,0 2,1 3,0 0,1 0,1 0,1 1,-1 2,-1 3,-1 0,2 3,-1 3,0l2 0 0 1c2,0 2,-1 2,-1 1,0 1,0 0,0 2,0 2,0 4,-1l0 1c1,0 3,1 5,0 0,0 -1,0 -1,0 2,0 5,2 6,0l1 -1c-2,0 0,-1 0,-1 0,0 1,0 1,1l-1 0c0,1 3,0 3,1 3,-1 6,0 9,0l0 -1 1 0c0,0 0,1 0,1 0,0 1,-1 1,-1 2,0 -1,1 0,1l0 0 0 0c1,0 1,-1 2,-1 0,0 0,1 0,1 0,0 0,0 1,0l1 0 0 -1c0,0 1,0 0,-1 1,2 5,1 6,1 1,0 2,0 3,0 -1,0 -1,-1 0,-1 0,1 2,0 3,2 -1,-1 2,-1 1,-2 1,0 0,1 1,1 1,0 4,1 6,0 0,0 0,0 0,-1l1 1c1,0 1,-1 1,0 0,0 0,0 0,-1 5,1 9,-1 14,1 -1,0 -1,0 0,0 0,0 0,-1 0,-1l2 1c0,-1 2,0 2,-1l-1 0c1,-1 -1,-2 -1,-3 -1,1 -2,-2 -3,0 -1,0 0,0 0,-1 -1,1 -1,1 -2,1l0 0c-2,0 -3,-1 -6,-1l0 1c0,-1 0,-1 0,-1 -1,1 1,0 1,1 -1,-1 -4,0 -5,-1 -1,0 0,1 0,1l-1 -1 0 1c0,0 -1,-1 -1,-1 0,0 1,0 1,0 -1,-1 -2,0 -3,0l1 0c-2,0 -5,0 -7,1l0 0c-2,1 -1,0 -3,0l0 0c0,0 -1,0 -1,0 0,0 -1,0 -1,-1 -2,1 -1,1 -2,2l0 0c0,0 0,0 -1,0 0,0 -1,0 0,-1 -2,-1 -3,1 -4,0 -1,1 2,0 1,1 1,0 -1,1 -1,1 -1,-1 -1,-2 -3,-2 0,0 0,0 1,0 -1,0 -2,0 -2,0 -1,1 -1,0 -1,1l1 0c-1,0 -2,1 -3,0 0,0 1,0 1,0 -1,0 -1,0 -1,0 0,-1 1,0 2,-1 0,-1 -1,1 -1,-1 0,2 -1,0 -2,1l0 0c-1,0 -1,0 -1,0l0 -1c-1,1 -1,0 -2,0 2,0 0,1 1,1 -2,1 -1,-1 -4,-1 1,0 2,1 1,1 0,0 -1,0 -1,-1 -2,0 0,1 -1,1 0,-1 -1,0 -1,1l0 -1c-2,0 -1,1 -2,1l0 -1 0 0 0 0c-1,0 -2,0 -2,0 0,0 -1,1 -1,1 -1,0 0,-1 -1,0 0,-1 0,-1 1,-1 0,0 0,0 0,0 0,-1 -1,0 -2,0 0,0 1,0 1,0l-2 1c0,-1 0,-1 0,-1 0,0 0,0 -1,0 0,0 0,-1 1,-1l-2 1c0,0 0,-1 0,-1 -1,0 -2,1 -3,1 -1,0 -1,0 -1,0 -1,0 -2,-1 -3,0l-1 -1c-1,0 1,1 -1,2 -1,0 0,-1 -1,-1 0,0 -1,1 -2,0 0,0 0,0 1,0z" />
                <path class="fil0" d="M1650 278c0,0 0,0 0,0 0,0 0,0 0,0z" />
                <path class="fil0" d="M1686 276c0,0 0,0 1,0 0,0 0,0 0,0l-1 0z" />
                <path class="fil0" d="M1611 279c1,0 1,0 1,0 0,0 0,0 -1,0z" />
                <path class="fil0" d="M1588 285l1 0c0,0 0,0 -1,0 0,0 1,0 0,0z" />
                <path class="fil0" d="M1582 282c0,0 0,0 0,0l0 0c0,0 1,0 0,0z" />
                <path class="fil0" d="M1588 283c0,0 -1,0 -1,0 0,0 0,0 0,0 0,1 0,0 1,0z" />
                <path class="fil0" d="M1587 283c-1,0 -1,0 -1,0 0,0 0,0 1,0z" />
                <path class="fil0" d="M1593 284c0,0 0,1 0,1 -1,0 1,-1 0,-1z" />
                <polygon class="fil0" points="1587,282 1587,282 1588,282 " />
                <path class="fil0" d="M1591 282l-1 0c0,0 0,0 0,0 1,0 1,0 1,0z" />
                <path class="fil0" d="M1590 282c0,0 0,0 -1,0 1,0 1,0 1,0z" />
                <polygon class="fil0" points="1588,281 1589,281 1589,281 " />
                <path class="fil0" d="M1600 282l1 0c0,-1 -1,-1 -1,-1 0,0 0,1 0,1z" />
                <path class="fil0" d="M1597 280c0,0 0,0 0,1l0 -1 0 0z" />
                <path class="fil0" d="M1600 280c0,0 1,-1 0,-1 0,1 -1,1 0,1z" />
                <polygon class="fil0" points="1613,281 1612,281 1613,282 " />
                <path class="fil0" d="M1624 277c-1,0 0,1 -1,1 0,0 1,0 1,0 0,0 0,0 0,-1z" />
                <path class="fil0" d="M1624 278c-1,0 -1,0 -1,0 0,0 0,0 1,0z" />
                <polygon class="fil0" points="1754,280 1755,280 1754,280 " />
                <path class="fil0" d="M1755 279l0 1 1 -1c0,0 -1,0 -1,0z" />
                <path class="fil0" d="M1665 275l-1 1c1,0 1,0 1,0l0 -1z" />
                <polygon class="fil0" points="1674,276 1673,276 1674,276 " />
                <path class="fil0" d="M1681 275c0,0 -1,0 -1,0 1,0 1,1 1,0z" />
                <path class="fil0" d="M1616 687c-1,0 -1,1 -1,1 1,0 1,-1 1,-1z" />
                <polygon class="fil0" points="1623,685 1623,685 1624,684 " />
                <path class="fil0" d="M1629 685c0,-2 -2,0 -3,-1l0 0 -1 1c1,0 3,-1 4,0z" />
                <path class="fil0" d="M1633 688c0,0 1,0 -1,0 0,0 0,0 0,0 0,0 1,0 1,0z" />
                <path class="fil0" d="M1632 688c0,0 1,1 0,0z" />
                <path class="fil0" d="M1635 688l0 0c0,1 1,1 0,1 1,0 1,-1 0,-1z" />
                <path class="fil0" d="M1636 686l0 1c0,0 0,0 0,-1z" />
                <path class="fil0" d="M1635 687l1 0c0,-1 0,-1 -1,0 0,-1 0,0 0,0z" />
                <path class="fil0" d="M1634 687c0,0 -1,-1 0,-1 -2,0 -1,1 0,1z" />
                <path class="fil0" d="M1630 683l-1 -1 -1 1c1,0 2,0 2,0z" />
                <path class="fil0" d="M1641 688c0,0 0,-1 0,-1l-1 0c0,1 1,1 1,1z" />
                <path class="fil0" d="M1641 687l1 -1c-1,0 -1,1 -1,1z" />
                <polygon class="fil0" points="1636,685 1635,686 1637,684 " />
                <polygon class="fil0" points="1645,688 1644,689 1645,688 " />
                <path class="fil0" d="M1648 688c-1,1 0,1 0,2 0,0 1,-1 2,-2 -1,1 -2,1 -2,0z" />
                <path class="fil0" d="M1650 688c0,0 0,0 0,0 0,0 0,0 0,0z" />
                <path class="fil0" d="M1643 686c1,1 1,1 1,2l0 -2c0,0 0,0 -1,0z" />
                <path class="fil0" d="M1644 686l0 0c0,1 1,1 1,1 0,0 -1,0 -1,-1z" />
                <path class="fil0" d="M1643 686c0,0 0,0 0,0 0,0 0,0 0,0z" />
                <path class="fil0" d="M1639 685c1,0 2,-1 1,-2 -1,1 0,1 -1,2z" />
                <path class="fil0" d="M1643 685l-1 0c0,0 0,1 0,1l1 -1z" />
                <polygon class="fil0" points="1643,685 1643,685 1643,685 " />
                <path class="fil0" d="M1649 687c0,-1 1,-1 1,-1 -1,0 -1,0 -2,0 0,0 0,1 1,1z" />
                <path class="fil0" d="M1646 687c0,-1 0,-1 0,-1 0,0 0,0 0,1z" />
                <path class="fil0" d="M1656 686c0,0 0,0 0,0 0,0 0,0 0,0l0 0z" />
                <path class="fil0" d="M1648 686c0,0 -1,0 -1,0 0,0 1,0 1,0 0,0 0,0 0,0z" />
                <path class="fil0" d="M1652 687c0,0 -1,0 -1,0 0,0 1,0 1,0z" />
                <path class="fil0" d="M1647 687c0,0 0,0 -1,0 1,0 1,0 1,0z" />
                <path class="fil0" d="M1647 687c0,0 0,-1 0,-1 0,0 0,0 -1,0 0,1 1,1 1,1z" />
                <path class="fil0"
                    d="M1657 679c0,1 -1,2 -2,1 -1,1 0,4 1,6 0,-1 0,-1 1,-2 -1,0 -3,-1 -2,-2 2,0 1,1 2,1 -1,-1 2,-2 1,-3l-1 0c0,0 1,0 0,-1z" />
                <path class="fil0" d="M1654 686l-1 0c1,0 1,0 2,1 0,0 1,-1 1,-1l-3 0 1 0z" />
                <path class="fil0"
                    d="M1651 686c1,-1 2,-2 1,-3 -1,0 -1,1 -2,2 2,-1 0,0 1,1 0,0 -1,0 -1,0 0,0 1,0 1,1 0,0 0,0 0,0l0 0 0 0c0,-1 0,-1 0,-1 0,0 0,0 0,0 0,0 0,0 0,0 1,0 0,0 0,0 0,0 0,0 0,1 0,0 0,0 0,0l2 -1c0,0 -1,0 -2,0z" />
                <path class="fil0" d="M1641 681c0,0 0,0 0,0 0,0 0,0 0,0z" />
                <path class="fil0"
                    d="M1642 682c-1,0 -1,0 -1,0 -1,0 0,0 0,-1 -1,1 -1,1 0,2l0 -1c1,1 2,2 2,2 -1,-1 -1,-1 -1,-2z" />
                <path class="fil0" d="M1646 684l2 -1 -1 -1 0 1c-1,-1 0,0 -1,1z" />
                <polygon class="fil0" points="1656,687 1656,688 1657,686 " />
                <polygon class="fil0" points="1658,686 1658,687 1659,687 " />
                <path class="fil0" d="M1784 671l1 0c0,0 0,0 -1,0z" />
                <path class="fil0" d="M1781 671l0 1c0,0 0,-1 0,-1z" />
                <path class="fil0" d="M1713 685c1,1 2,2 2,1l-1 -1c0,0 0,0 -1,0z" />
                <path class="fil0" d="M1751 678c0,0 0,0 0,-1 -1,1 -1,1 -1,1 0,0 1,0 1,0z" />
                <path class="fil0" d="M1751 673l1 1c0,0 0,0 -1,-1z" />
                <path class="fil0" d="M1804 670l1 -1c-1,0 -1,0 -1,1z" />
                <path class="fil0" d="M1681 685c1,1 1,1 2,1 -1,-1 -2,-1 -2,-1z" />
                <path class="fil0" d="M1783 682c1,0 1,0 1,0 -1,0 -1,0 -1,0z" />
                <path class="fil0" d="M1685 686c-1,0 -1,0 -1,0 0,0 -1,0 -1,0 0,0 1,1 2,0z" />
                <path class="fil0" d="M1877 669c0,0 0,0 0,0 0,0 0,0 0,0z" />
                <path class="fil0" d="M1899 679c-1,0 -1,0 -1,0 0,0 0,0 1,0z" />
                <path class="fil0" d="M1667 687c0,0 0,0 0,0z" />
                <path class="fil0" d="M1665 683c0,-1 0,-1 0,-1 0,0 0,0 0,1z" />
                <path class="fil0" d="M1689 679c0,0 0,0 0,0 0,0 0,0 0,0z" />
                <path class="fil0" d="M1667 686c0,0 0,0 0,0 0,0 0,0 0,0z" />
                <path class="fil0" d="M1667 687c-1,0 -1,0 -1,0 0,0 0,0 1,0z" />
                <path class="fil0" d="M1668 686c0,1 -1,0 -1,0 0,0 0,1 0,1 0,0 1,0 1,-1z" />
                <path class="fil0" d="M1838 673c0,0 0,0 0,0 1,-1 1,-1 0,0z" />
                <path class="fil0" d="M1725 674c0,0 0,0 0,0 0,0 0,0 0,0l0 0z" />
                <path class="fil0" d="M1727 673c-1,1 -1,1 -2,1l1 3 1 -4z" />
                <path class="fil0"
                    d="M1844 680l-1 0c1,0 1,0 1,0zm-173 5c0,0 0,0 0,1 0,-1 0,-1 1,-1 -1,0 -1,0 -1,0zm1 0c0,0 0,0 0,0 1,1 1,1 0,0zm76 -9c0,-1 1,-1 1,0 0,0 0,0 -1,0zm27 -4c1,0 1,-1 2,0 -1,1 -1,0 -2,0zm18 -1l-1 -1c1,-2 2,-1 1,-2 0,3 -4,0 -4,3l-1 0c0,0 0,0 0,0 -1,-2 -1,2 -3,2 -1,-1 -1,-1 -1,-2l-1 1c-1,0 0,0 0,0l-2 0 0 0c-1,0 -1,1 -2,2 0,-1 1,-1 0,-1l-1 1c0,-1 1,-2 1,-2 -1,-3 -1,1 -3,-1l1 0c-1,-2 -2,-1 -3,-3 0,1 3,3 1,4 0,0 -1,0 -1,0 0,-1 -1,0 -2,0l0 -2c-1,1 -1,1 -2,2 -1,0 -1,-1 -1,-2 -2,0 1,2 -1,2 -2,-1 -3,0 -4,1 -1,0 0,-1 -1,-1l-1 1c0,0 0,0 0,-1 0,1 0,2 -1,2 0,2 -2,-2 -4,0 0,-1 0,-1 0,-2 -2,2 -2,1 -3,3l-2 -1c1,1 0,3 -1,4 0,0 1,1 1,1l-2 1c0,0 0,-1 0,-2 0,1 0,1 0,1 -1,-1 -1,-2 0,-3 0,1 0,1 1,1 0,-1 0,-2 0,-2 0,0 0,0 0,0 0,0 0,-1 0,-1 0,0 0,1 -1,1l0 -2 0 1 -3 -1c-2,2 -3,4 -6,5 1,-1 0,-2 0,-4 1,2 2,0 4,0 -1,0 -1,-1 -1,-1l-2 1c0,-1 -1,0 -1,-1 0,2 -2,2 -3,2 0,0 0,-1 1,-1 -1,-2 -2,3 -3,1 0,0 0,0 0,0 0,1 -2,0 -2,0l1 -1c-2,0 -7,1 -7,3 0,-1 0,-3 0,-3l-3 7c0,-2 -1,-6 0,-7 0,0 -1,-1 -2,0 0,0 1,2 1,3 -2,-2 -1,-1 -3,-3 1,0 0,3 -1,3 0,0 0,-3 0,-3l-2 3c1,-1 0,-2 0,-3 0,0 -2,0 -2,0l1 1c-3,-1 -3,3 -5,3 0,0 1,-3 0,-3 -1,1 -3,6 -5,7l0 0 -1 1c0,-3 3,-7 4,-9 0,0 0,-1 -1,0 -1,-1 1,-2 1,-2l-3 0c0,2 -2,2 -2,3l3 -2c0,2 -2,5 -4,5 0,-1 0,-3 0,-4 0,1 -2,1 -2,1l1 -1c-1,-1 -2,2 -3,1 -1,0 -2,-2 -2,-1 1,1 1,7 1,8 0,0 -3,-1 -3,-2 -1,-2 1,-4 0,-5 0,1 0,1 -1,1 0,0 1,-1 0,-1 -1,2 -3,0 -1,2 -1,0 -1,-1 -2,-1 0,1 -1,4 -3,5 1,-1 0,-1 0,-2 -2,0 -3,0 -5,0 -1,-1 -2,-1 -1,-2 0,0 -1,1 -1,1 -2,-1 1,0 0,-2 0,1 -2,1 -2,2 0,1 2,0 3,0 0,2 -2,4 -4,5 -2,0 -1,-2 -1,-1 -3,-1 -3,3 -6,2 -1,-1 0,-3 0,-4 1,0 2,1 3,1l-1 0c0,-1 1,-1 2,-1 -1,-1 -6,0 -8,-1 -1,1 -1,1 -1,1l1 0c1,1 -2,2 -1,2 -1,1 -2,2 -3,2l-1 -2c0,1 1,1 2,1 -1,0 -3,-2 -3,0l1 1c-1,0 -2,2 -4,1 1,2 1,0 2,2 -1,-2 3,0 2,-2 1,2 1,1 3,2 -1,0 -1,-1 0,0 0,-1 0,-1 0,-1 0,0 0,0 1,0 -1,0 -1,0 -1,0 0,0 0,0 0,0 0,0 0,0 0,-1 0,-1 2,-1 3,-1 0,0 -1,0 0,1l1 -1c0,1 1,2 0,2l1 0c1,1 2,1 3,1 1,0 2,-2 1,-1l2 -1 0 1c2,0 5,-2 7,0 1,-1 2,-1 3,-1l0 1c1,0 3,1 3,0 1,3 5,1 7,1l0 -1c1,0 2,-1 3,-1l0 -1c1,-1 3,0 5,0 0,1 0,1 -1,0 3,3 5,-1 7,0 1,0 1,0 1,0 0,0 0,0 0,0 0,0 0,0 1,0 0,0 0,1 0,1 0,0 0,-1 0,-1 0,0 1,0 1,0l0 1c1,0 1,0 1,0 0,0 0,-1 0,-1 0,-1 0,-1 1,-1 0,2 1,-1 2,1 0,-1 3,-1 3,-3 0,1 0,1 0,1 1,0 1,0 2,0l0 1 2 -2c0,1 1,1 0,2 2,-1 2,0 3,-2l0 1c1,0 2,-1 2,-1 2,2 7,0 11,2 -1,-3 2,1 2,-1 0,1 1,1 0,2 2,-1 3,1 4,-1 1,0 0,1 0,1 0,0 1,0 1,0 0,0 0,1 -1,1 2,0 2,-2 2,-4 1,1 2,0 3,-1 0,1 1,1 -1,2 1,0 4,1 5,-1 0,0 0,0 1,0 1,0 1,0 3,0l-1 0c1,-2 2,-1 3,-1l0 0c2,1 1,0 4,1l-1 -1c1,-3 3,1 4,0l0 0c1,-1 2,3 3,3 0,0 0,1 0,1 2,1 0,-2 2,-2 0,1 -1,2 0,2 1,1 3,-3 5,-1 0,-1 -1,-1 0,-2 1,0 3,2 4,0 1,1 1,1 1,1 1,-1 3,-1 3,-2 1,4 6,-2 6,1l3 0 0 1c1,0 2,-1 3,-2 0,0 0,1 0,1 2,0 3,0 5,-2l0 2c0,-1 4,1 6,0 0,0 0,0 0,0 3,-1 7,3 8,-1l2 -1c-3,0 0,-2 -1,-3 1,0 3,2 1,2l0 0c0,2 3,0 3,2 5,0 10,1 14,1l0 -2 1 0c1,1 1,2 0,2 1,0 2,-1 2,-2 2,1 -1,2 0,2l1 0 -1 0c1,-1 1,-2 3,-1 0,0 0,1 0,1 0,0 0,0 1,0l2 0 -1 -2c1,0 2,0 1,-1 1,2 7,1 8,1 1,-1 3,-1 4,-1 0,0 0,-1 1,-1 -1,3 2,1 3,3 -1,-1 4,0 3,-2 1,0 0,1 1,2 2,-2 5,0 8,0 1,-1 0,-1 1,-2l1 2c1,0 1,-2 2,-1 0,0 0,-1 0,-1 6,2 13,-2 19,2 -1,-1 0,-1 1,-1 -1,0 0,-1 0,-2l2 2c1,-2 3,0 3,-2l0 0c1,-1 -2,-4 -2,-6 -1,2 -3,-3 -5,0 -1,0 0,-1 0,-1 -1,1 -1,1 -3,1l1 -1c-4,1 -5,0 -9,-1l0 1c0,0 -1,0 -1,0 -1,1 2,0 1,2 -1,-3 -5,0 -6,-3 -1,0 0,1 -1,1l0 0 0 1c-1,0 -2,-1 -2,-2 1,0 1,0 1,0 -1,-1 -3,0 -3,0l1 0c-3,1 -7,0 -11,2l1 0c-3,1 -2,0 -5,0l0 0c0,1 -1,1 -2,1 1,-1 -1,-1 0,-2 -3,1 -2,1 -3,3l-1 -1c0,1 0,1 -2,2 1,-1 -1,-2 1,-3 -3,-2 -5,2 -6,-1 -1,3 3,2 2,2 0,1 -1,2 -2,2 -1,0 -2,-3 -4,-3 0,0 0,0 0,0 0,-1 -1,1 -2,0 -1,1 -2,0 -2,2l2 -1c-1,1 -2,3 -4,2 0,-1 1,-1 1,-1 0,-1 -1,0 -1,-1 0,-1 2,0 3,-2 0,0 -2,2 -1,0 -1,2 -3,0 -4,2l0 -2c0,1 -1,1 -1,1l0 -1c-1,1 -2,-1 -3,-1 2,0 0,2 2,3 -4,1 -2,-3 -6,-3 1,0 2,1 1,1 0,0 -1,0 -2,-1 -2,1 1,1 0,2 -1,-1 -1,1 -2,1l0 -1c-3,-1 -1,2 -3,2l1 -2 -2 0 1 -1c-2,1 -2,1 -4,1 1,0 0,2 -1,2 -1,-1 1,-1 -1,-1 0,-1 1,-2 1,-1 1,0 1,-1 1,-1 -1,-1 -2,0 -3,0 0,0 1,0 1,0l-3 2c0,-1 0,-1 1,-1 -1,0 -1,0 -2,1 0,-1 0,-2 1,-3l-2 1c0,0 -1,-1 -1,-1 -1,-1 -3,2 -5,1 0,0 0,0 0,1 -2,-1 -3,-2 -5,0l-1 -2c-2,0 1,2 -1,3 -2,0 -1,-2 -1,-2 -1,1 -3,2 -4,1 0,0 1,0 1,0z" />
                <path class="fil0" d="M1751 674c0,0 0,0 0,1 0,-1 0,-1 0,-1z" />
                <path class="fil0" d="M1804 670c0,0 0,0 0,0 0,0 0,0 0,0l0 0z" />
                <path class="fil0" d="M1695 675c1,0 1,0 1,0 0,0 0,0 -1,0z" />
                <path class="fil0" d="M1662 687l1 0c0,0 0,0 -1,0 0,0 1,0 0,0z" />
                <path class="fil0" d="M1653 680c0,0 0,0 0,0l0 1c0,0 1,0 0,-1z" />
                <path class="fil0" d="M1661 683c0,-1 0,0 -1,0 0,0 0,0 0,0 0,1 1,1 1,0z" />
                <path class="fil0" d="M1660 683c-1,0 -1,0 -1,0 0,1 0,0 1,0z" />
                <path class="fil0" d="M1669 686c-1,-1 0,1 -1,1 0,1 3,-2 1,-1z" />
                <polygon class="fil0" points="1661,680 1661,681 1661,680 " />
                <path class="fil0" d="M1666 681l-1 0c0,0 0,0 0,0 1,0 1,0 1,0z" />
                <path class="fil0" d="M1665 681c-1,0 -1,0 -1,0 0,0 1,0 1,0z" />
                <polygon class="fil0" points="1662,680 1663,680 1663,680 " />
                <path class="fil0" d="M1679 681l1 0c0,-1 0,-1 -1,-1 0,0 0,0 0,1z" />
                <path class="fil0" d="M1675 678c0,0 0,0 0,1l0 -2 0 1z" />
                <path class="fil0" d="M1679 677c0,0 1,-1 0,-1 0,1 -2,1 0,1z" />
                <polygon class="fil0" points="1698,679 1697,679 1697,681 " />
                <path class="fil0" d="M1714 672c-1,0 0,2 -2,1 0,1 2,1 1,1 1,0 2,0 1,-2z" />
                <path class="fil0" d="M1713 674c0,0 0,1 0,1 0,0 0,-1 0,-1z" />
                <polygon class="fil0" points="1902,680 1903,680 1902,680 " />
                <path class="fil0" d="M1904 678l0 2 1 -2c-1,0 -1,1 -1,0z" />
                <path class="fil0" d="M1773 669l-1 0c1,1 1,1 1,1l0 -1z" />
                <polygon class="fil0" points="1786,670 1785,670 1786,671 " />
                <path class="fil0" d="M1796 668c0,0 -1,0 -1,0 1,0 2,2 1,0z" />
                <path class="fil0" d="M668 520c-1,0 -1,1 -1,1 1,0 1,-2 1,-1z" />
                <polygon class="fil0" points="672,516 672,517 673,515 " />
                <path class="fil0" d="M677 516c-1,-2 -2,1 -2,0l-1 -1 0 2c1,0 2,-2 3,-1z" />
                <path class="fil0" d="M680 522c-1,-1 0,-1 -1,-1 0,0 0,0 0,1 0,-1 0,-1 1,0z" />
                <path class="fil0" d="M679 522c0,0 0,0 0,0z" />
                <path class="fil0" d="M681 521l0 1c0,0 0,1 0,1 1,-1 1,-1 0,-2z" />
                <path class="fil0" d="M682 519l0 0c0,1 0,1 0,0z" />
                <path class="fil0" d="M681 520l1 -1c-1,0 -1,-1 -1,1 0,-1 0,0 0,0z" />
                <path class="fil0" d="M680 520c0,-1 0,-1 0,-2 -1,0 -1,2 0,2z" />
                <path class="fil0" d="M677 513l0 0 -1 1c0,-1 1,0 1,-1z" />
                <path class="fil0" d="M685 522c0,0 0,-1 0,-2l-1 1c1,0 1,0 1,1z" />
                <path class="fil0" d="M685 520l1 -1c-1,0 -1,0 -1,1z" />
                <polygon class="fil0" points="682,516 681,518 682,516 " />
                <polygon class="fil0" points="688,522 688,523 688,521 " />
                <path class="fil0" d="M690 522c-1,1 0,2 0,2 0,0 1,-1 1,-2 0,1 -1,1 -1,0z" />
                <path class="fil0" d="M692 521c-1,0 -1,1 -1,1 0,0 0,0 1,-1z" />
                <path class="fil0" d="M687 519c0,1 0,1 0,2l0 -2c0,0 0,0 0,0z" />
                <path class="fil0" d="M687 519l0 0c0,0 1,0 1,0 0,0 -1,0 -1,0z" />
                <path class="fil0" d="M687 519c0,0 0,0 0,0 0,0 0,0 0,0z" />
                <path class="fil0" d="M684 518c0,-1 1,-2 0,-4 0,1 0,2 0,4z" />
                <path class="fil0" d="M686 517l0 0c0,0 0,1 0,1l0 -1z" />
                <polygon class="fil0" points="687,517 686,517 687,517 " />
                <path class="fil0" d="M690 520c1,-1 1,-1 1,-1 0,0 0,-1 -1,-1 0,1 0,2 0,2z" />
                <path class="fil0" d="M689 519c0,0 0,0 0,0 0,0 0,0 0,0z" />
                <path class="fil0" d="M695 519c0,0 0,0 0,0 0,0 0,0 0,0l0 0z" />
                <path class="fil0" d="M690 518c0,0 0,0 -1,1 1,0 1,-1 1,-1 0,0 0,0 0,0z" />
                <path class="fil0" d="M693 520c0,0 -1,0 -1,0 0,0 1,1 1,0z" />
                <path class="fil0" d="M689 520c0,0 0,0 0,0 0,0 0,0 0,0z" />
                <path class="fil0" d="M689 520c0,-1 0,-1 0,-1 0,0 0,0 0,0 0,0 0,1 0,1z" />
                <path class="fil0"
                    d="M696 509c0,1 -1,3 -1,1 -1,1 0,6 0,9 0,-1 0,-2 1,-3 0,0 -2,-1 -1,-3 1,0 1,1 1,2 0,-2 1,-3 1,-6l-1 1c0,0 0,-1 0,-1z" />
                <path class="fil0" d="M694 518l0 1c0,0 0,0 1,2 0,-1 0,-2 0,-2l-1 0 0 -1z" />
                <path class="fil0"
                    d="M692 519c0,-2 1,-3 1,-4 -1,0 -1,1 -2,2 2,-1 0,1 1,1 0,1 0,1 -1,1 1,0 1,0 1,1 0,0 0,0 0,-1l0 0 0 0c0,0 0,0 0,0 0,0 0,0 0,0 0,0 0,0 0,0 1,0 0,0 0,0 0,0 0,0 0,0 0,0 0,0 0,0l2 0c-1,-1 -1,-1 -2,0z" />
                <path class="fil0" d="M685 511c0,0 0,0 0,0 0,0 0,0 0,0z" />
                <path class="fil0"
                    d="M685 512c0,0 0,1 0,1 0,-1 0,-1 0,-2 0,1 -1,2 0,2l0 0c0,1 1,3 1,3 0,-2 0,-3 -1,-4z" />
                <path class="fil0" d="M689 515l1 -1 -1 -1 0 1c0,-1 0,0 0,1z" />
                <polygon class="fil0" points="695,520 695,521 696,519 " />
                <polygon class="fil0" points="697,519 697,521 697,520 " />
                <path class="fil0" d="M784 500l0 -1c0,0 0,0 0,1z" />
                <path class="fil0" d="M781 500l0 0c0,0 0,0 0,0z" />
                <path class="fil0" d="M735 518c1,2 1,4 1,2l0 -2c0,1 -1,1 -1,0z" />
                <path class="fil0" d="M761 508c0,0 0,0 0,0 0,0 -1,1 -1,1 0,0 1,0 1,-1z" />
                <path class="fil0" d="M761 502l1 1c0,-1 -1,-1 -1,-1z" />
                <path class="fil0" d="M798 498l0 -2c-1,0 0,1 0,2z" />
                <path class="fil0" d="M713 518c0,1 1,1 1,1 -1,-1 -1,-2 -1,-1z" />
                <path class="fil0" d="M783 516c1,0 1,-1 1,-1 -1,0 -1,1 -1,1z" />
                <path class="fil0" d="M715 519c0,0 0,0 0,0 0,0 -1,0 -1,0 0,1 1,1 1,0z" />
                <path class="fil0" d="M848 498c0,0 0,0 0,0 0,0 0,0 0,0z" />
                <path class="fil0" d="M863 513c0,0 0,0 -1,0 0,0 1,0 1,0z" />
                <path class="fil0" d="M703 520c0,0 0,0 0,0z" />
                <path class="fil0" d="M701 514c1,0 1,-1 1,-1 0,0 0,1 -1,1z" />
                <path class="fil0" d="M718 509c0,0 0,0 0,0 0,0 0,0 0,0z" />
                <path class="fil0" d="M703 519c0,0 0,1 0,1 0,-1 0,-1 0,-1z" />
                <path class="fil0" d="M703 520c0,0 0,0 0,0 -1,0 0,0 0,0z" />
                <path class="fil0" d="M704 520c-1,0 -1,0 -1,0 0,0 0,0 0,0 0,0 0,0 1,0z" />
                <path class="fil0" d="M821 502c0,0 0,0 0,1 1,-1 0,-1 0,-1z" />
                <path class="fil0" d="M743 502c0,0 0,0 0,0 0,0 0,0 0,0l0 0z" />
                <path class="fil0" d="M744 501c0,2 0,1 -1,1l1 4 0 -5z" />
                <path class="fil0"
                    d="M825 514l0 0c0,-1 0,-1 0,0zm-119 4c0,0 0,0 0,0 0,0 0,0 0,0 0,0 0,-1 0,0zm1 0c0,0 0,0 0,0 0,1 0,1 0,0zm52 -13c0,-1 0,0 1,0 -1,0 -1,0 -1,0zm19 -5c0,0 0,-1 0,0 0,2 0,1 0,0zm12 -1l-1 -1c1,-3 2,-2 1,-4 0,5 -3,1 -3,6l-1 -2c0,1 0,0 1,0 -2,-2 -1,4 -3,3 0,0 0,-1 0,-1l-1 1c0,0 0,-1 0,-1l-2 0 0 0c0,1 0,2 -1,3 0,-1 1,-1 0,-1l0 1c-1,-2 0,-3 1,-3 -1,-4 -1,2 -3,-1l1 -1c-1,-3 -1,-1 -2,-3 0,1 2,4 1,5 -1,0 -1,0 -2,1 0,-2 0,-1 -1,-1l0 -3c0,1 0,2 -1,3 -1,0 -1,-2 -1,-3 -1,-1 1,3 0,3 -2,-1 -2,0 -3,2 -1,-1 0,-2 -1,-3l0 2c0,0 0,0 0,-1 -1,1 0,3 -1,3 0,3 -2,-3 -3,0 0,-1 0,-2 0,-3 -1,2 -1,2 -2,4l-1 -1c0,2 0,4 -1,5 0,1 0,2 0,2l-1 1c0,0 0,-1 0,-2 0,0 0,1 0,1 0,-1 0,-2 0,-4 0,1 0,1 1,2 0,-2 0,-3 0,-4 0,0 0,0 0,0 0,0 0,-1 0,-1 0,0 0,0 -1,1l0 -2 0 1 -2 -2c-1,3 -2,6 -4,7 1,-1 0,-3 0,-5 1,3 2,-1 3,0 -1,-1 -1,-2 -1,-2l-1 2c0,-2 -1,-1 -1,-2 0,4 -2,2 -2,4 0,-2 0,-3 1,-3 -1,-2 -2,5 -3,2 1,0 1,1 1,0 -1,1 -2,0 -2,-1l1 0c-2,0 -5,0 -5,3 0,0 0,-3 0,-4l-2 10c0,-2 -1,-9 0,-10 0,0 -1,-1 -1,0 0,0 0,4 0,4 -1,-3 -1,-1 -2,-4 1,1 0,5 0,5 0,-1 0,-4 0,-5l-2 4c1,-1 0,-3 0,-4 0,0 -1,0 -2,0l1 1c-1,-1 -1,6 -3,5 0,0 0,-5 0,-5 -1,2 -2,10 -3,11l0 -1 -1 2c0,-3 2,-10 3,-13 -1,-1 0,-1 -1,-1 -1,-1 0,-2 0,-2l-2 0c1,2 -1,2 -1,4l2 -2c0,2 -1,6 -2,6 -1,-1 0,-4 0,-5 0,1 -2,2 -2,1l1 -1c-1,-1 -1,3 -2,1 -1,0 -2,-3 -2,-2 1,3 1,11 1,13 0,0 -2,-2 -2,-4 -1,-2 0,-5 0,-7 0,1 0,2 0,2 -1,0 0,-2 -1,-2 0,3 -2,0 0,3 -1,0 -1,-1 -2,-1 0,2 -1,6 -2,6 1,0 0,-1 0,-2 -1,0 -2,-1 -4,-1 0,0 0,-1 0,-2 0,0 -1,1 -1,1 -1,-2 1,0 0,-3 0,2 -1,2 -1,3 0,2 1,1 2,0 0,3 -1,6 -3,7 -1,1 0,-2 -1,-1 -2,-1 -1,5 -3,3 -1,-2 0,-4 -1,-5 1,-1 2,1 3,1l-1 -1c0,-1 1,-1 1,-1 -1,-1 -4,0 -5,-1 -1,0 -1,1 -1,2l1 -1c0,2 -1,3 -1,3 0,1 -1,3 -2,2l-1 -2c1,1 1,1 1,1 0,1 -1,-3 -2,0l1 1c-1,1 -1,4 -2,3 0,2 0,0 1,2 -1,-3 2,0 1,-3 1,3 1,1 2,4 0,-1 0,-2 1,-1 0,0 0,-1 0,-1 0,0 0,0 0,0 0,0 0,0 0,0 0,0 0,0 0,0 -1,0 -1,-1 -1,-1 1,-2 2,-2 2,-3 1,1 0,1 0,2l1 -1c0,1 1,2 0,3l1 0c1,1 1,2 2,1 0,0 1,-2 1,-1l1 -1 0 1c2,0 3,-3 5,0 0,-1 1,-1 2,-1l0 2c1,-1 2,1 2,0 1,3 3,0 5,1l0 -2c0,0 1,0 2,-1l0 -2c1,-1 2,1 3,1 0,1 0,1 0,0 1,4 3,-2 5,0 0,0 0,0 0,0 0,0 0,0 0,0 0,0 0,0 0,0 1,1 1,1 1,1 0,0 0,0 0,-1 0,0 0,0 1,0l0 1c0,0 0,0 0,0 0,1 0,0 0,-2 0,0 0,0 1,-1 0,3 1,-1 1,2 0,-1 2,-1 2,-4 0,0 0,1 0,1 1,0 1,0 2,-1l0 3 1 -3c0,1 1,2 0,3 1,-2 1,-1 2,-3l0 1c1,0 1,-2 2,-1 1,3 5,1 7,3 0,-4 1,2 2,-1 0,1 0,1 0,2 1,-1 2,2 2,-1 1,1 0,1 0,2 0,0 1,-1 1,0 0,0 0,0 0,1 1,0 1,-3 1,-6 1,1 1,1 1,-1 1,1 1,2 0,2 1,0 3,2 3,-1 0,1 1,0 1,0 1,0 1,1 2,0l0 0c0,-3 1,-1 1,-1l0 0c2,2 1,-1 3,1l0 -1c0,-4 2,2 3,0l-1 -1c1,-1 2,5 3,6 0,0 -1,0 -1,1 2,2 0,-3 2,-3 0,1 -1,3 0,3 1,1 2,-4 3,-2 0,0 0,-1 0,-2 1,0 3,3 3,0 1,1 1,1 1,1 0,-1 2,-1 2,-3 1,6 4,-3 4,3l2 -1 0 1c1,0 1,-1 2,-2 0,0 0,0 0,1 2,1 2,1 3,-2l1 2c0,-1 2,2 4,0 0,0 0,1 0,1 2,-2 5,5 5,-2l2 -1c-2,-1 0,-3 -1,-4 1,-1 2,2 1,2l0 0c0,3 2,1 2,3 3,0 7,2 10,2l-1 -3 1 0c1,1 1,2 0,2 1,2 1,-1 1,-2 2,1 0,3 0,4l1 -1 0 0c0,-1 0,-2 1,-2 1,0 1,2 1,2 0,0 0,0 0,0l2 0 -1 -2c1,-1 1,0 1,-2 1,3 5,1 5,2 1,-2 2,-2 3,-2 0,0 0,-2 0,-2 0,5 2,2 3,5 -1,-2 3,0 1,-3 1,0 1,1 1,3 2,-2 4,1 6,0 0,-1 0,-2 0,-3l2 4c0,-1 0,-4 1,-2 0,0 -1,-1 0,-1 4,2 9,-3 13,2 0,-1 0,-1 0,-1 0,0 0,-2 0,-2l2 2c0,-2 2,0 2,-3l0 1c0,-3 -2,-6 -2,-9 0,3 -2,-5 -3,-1 -1,0 0,-1 0,-1 -1,1 -1,1 -2,1l0 -1c-2,1 -3,-1 -6,-2l1 2c-1,0 -1,-1 -1,-1 -1,3 1,0 1,3 -1,-4 -4,0 -5,-4 -1,0 1,2 0,2l0 -1 -1 1c0,0 -1,-1 -1,-2 1,0 1,0 1,0 -1,-2 -2,0 -2,0l0 0c-2,1 -5,0 -7,2l0 1c-1,2 -1,-1 -3,0l0 0c0,1 -1,1 -1,1 0,-1 -1,-2 0,-3 -2,2 -1,1 -3,4l0 -1c0,1 0,2 -1,2 1,-1 -1,-2 0,-3 -2,-3 -3,3 -4,-2 -1,4 2,2 1,3 1,1 0,3 -1,3 0,0 -1,-5 -3,-5 1,0 1,0 1,0 -1,-1 -1,1 -2,0 -1,2 -1,-1 -1,2l1 0c-1,0 -1,4 -3,2 0,0 1,-1 1,-2 0,0 -1,1 -1,0 0,-3 2,-1 3,-3 -1,-1 -2,2 -2,-1 0,4 -1,0 -2,3l0 -2c0,0 -1,1 -1,1l0 -2c0,2 -1,-2 -2,-1 2,0 0,2 1,4 -2,2 -1,-5 -4,-4 1,0 2,1 1,2 0,0 -1,-1 -1,-2 -2,0 0,2 -1,3 0,-2 0,1 -1,1l0 -1c-2,-1 0,3 -2,2l1 -2 -1 0 0 -2c-1,2 -1,1 -2,1 0,1 0,3 -1,3 -1,-1 0,-2 -1,-1 0,-1 1,-3 1,-1 0,-1 0,-1 0,-2 0,-1 -1,0 -2,0 1,0 1,0 1,0l-2 3c0,-1 0,-1 0,-2 0,0 0,1 -1,1 0,-1 0,-3 1,-3l-1 1c-1,0 -1,-1 -1,-2 -1,-1 -2,3 -3,2 0,0 0,0 -1,1 -1,-1 -2,-2 -3,0l-1 -3c-1,1 1,3 0,4 -2,1 -1,-2 -1,-3 -1,2 -2,4 -3,2 0,0 1,0 1,0z" />
                <path class="fil0" d="M761 503c0,0 0,0 0,1 0,-1 0,-1 0,-1z" />
                <path class="fil0" d="M798 498c0,0 0,0 0,0 0,0 0,0 0,0l0 0z" />
                <path class="fil0" d="M722 503c1,0 1,0 1,0 0,0 0,0 -1,0z" />
                <path class="fil0" d="M700 521l1 -1c-1,0 -1,0 -1,0 0,0 0,1 0,1z" />
                <path class="fil0" d="M693 510c0,0 0,0 0,0l0 1c1,0 1,0 0,-1z" />
                <path class="fil0" d="M699 515c0,-1 0,-1 -1,-1 0,0 0,0 0,0 0,2 1,2 1,1z" />
                <path class="fil0" d="M698 514c0,0 0,0 -1,0 0,1 1,1 1,0z" />
                <path class="fil0" d="M704 519c0,-1 0,2 0,1 0,2 2,-2 0,-1z" />
                <polygon class="fil0" points="699,510 699,512 699,511 " />
                <path class="fil0" d="M702 511l0 0c0,0 0,0 -1,1 1,0 2,0 1,-1z" />
                <path class="fil0" d="M701 512c0,0 0,0 0,0 0,0 0,0 0,0z" />
                <polygon class="fil0" points="700,510 700,510 700,510 " />
                <path class="fil0" d="M711 512l1 -1c0,-1 0,-1 -1,-1 0,1 0,1 0,2z" />
                <path class="fil0" d="M708 507c1,0 1,0 1,1l0 -2 -1 1z" />
                <path class="fil0" d="M711 506c0,0 1,-2 0,-2 0,1 -1,2 0,2z" />
                <polygon class="fil0" points="724,509 724,509 724,512 " />
                <path class="fil0" d="M735 500c-1,-1 0,2 -1,1 0,1 1,1 1,1 0,-1 1,0 0,-2z" />
                <path class="fil0" d="M735 502c0,1 0,1 -1,1 1,0 1,0 1,-1z" />
                <polygon class="fil0" points="865,515 866,516 866,514 " />
                <path class="fil0" d="M867 512l0 2 0 -2c0,0 0,1 0,0z" />
                <path class="fil0" d="M776 496l0 0c0,1 0,1 0,1l0 -1z" />
                <polygon class="fil0" points="785,497 785,497 785,499 " />
                <path class="fil0" d="M792 494c0,0 -1,1 -1,1 1,-1 1,2 1,-1z" />
            </g>
            <path class="fil4"
                d="M3034 595l20 0 0 28c7,-11 16,-19 27,-24 10,-5 21,-8 34,-8 22,0 40,8 56,24 16,15 23,34 23,56 0,23 -7,42 -23,58 -15,16 -34,23 -56,23 -12,0 -23,-2 -33,-7 -11,-5 -20,-13 -28,-23l0 83 -20 0 0 -210zm79 15c-17,0 -31,6 -43,18 -12,12 -17,27 -17,44 0,12 2,23 7,32 6,9 13,17 23,22 10,5 20,8 31,8 10,0 20,-3 30,-8 9,-6 16,-13 22,-23 6,-10 8,-20 8,-31 0,-11 -2,-21 -8,-31 -5,-10 -13,-17 -22,-23 -9,-5 -20,-8 -31,-8zm210 -19c24,0 44,8 59,26 14,15 21,34 21,55 0,22 -7,40 -22,56 -15,16 -34,24 -58,24 -24,0 -43,-8 -58,-24 -15,-16 -22,-34 -22,-56 0,-21 7,-40 21,-55 15,-17 35,-26 59,-26zm0 19c-16,0 -31,6 -42,19 -12,12 -18,26 -18,44 0,11 3,21 8,31 5,9 13,17 22,22 9,5 19,8 30,8 11,0 21,-3 30,-8 9,-5 17,-13 22,-22 5,-10 8,-20 8,-31 0,-18 -6,-32 -18,-44 -12,-13 -26,-19 -42,-19zm128 -15l20 0 0 22c6,-9 13,-15 19,-20 7,-4 14,-6 21,-6 6,0 12,2 18,5l-10 17c-4,-2 -8,-3 -11,-3 -6,0 -13,3 -19,8 -6,6 -11,14 -14,25 -3,9 -4,27 -4,54l0 52 -20 0 0 -154zm130 -58l20 0 0 58 31 0 0 17 -31 0 0 137 -20 0 0 -137 -27 0 0 -17 27 0 0 -58zm98 58l19 0 0 72c0,17 1,29 3,36 3,9 8,17 16,22 8,6 18,8 29,8 11,0 20,-2 28,-8 8,-5 13,-12 16,-21 2,-6 3,-18 3,-37l0 -72 20 0 0 75c0,21 -2,37 -7,48 -5,11 -12,19 -22,25 -10,6 -23,9 -38,9 -15,0 -27,-3 -37,-9 -11,-6 -18,-14 -23,-25 -5,-11 -7,-27 -7,-49l0 -74zm330 0l20 0 0 122c0,22 -2,38 -6,48 -5,14 -14,25 -27,32 -13,8 -28,12 -46,12 -13,0 -25,-2 -36,-6 -10,-4 -19,-9 -25,-15 -7,-6 -13,-16 -19,-28l22 0c6,11 13,18 23,23 9,5 20,7 34,7 14,0 25,-2 34,-7 10,-5 16,-11 20,-19 4,-7 6,-20 6,-37l0 -8c-7,10 -16,17 -27,22 -11,5 -22,8 -35,8 -14,0 -27,-4 -39,-11 -13,-7 -23,-16 -29,-28 -7,-12 -11,-25 -11,-39 0,-15 4,-28 11,-40 7,-12 17,-22 29,-29 13,-8 26,-11 40,-11 12,0 22,2 32,7 10,5 20,12 29,23l0 -26zm-58 15c-12,0 -22,3 -32,8 -9,6 -17,13 -22,23 -6,9 -9,20 -9,31 0,17 6,31 17,42 12,11 26,16 44,16 19,0 33,-5 44,-16 11,-11 17,-26 17,-43 0,-12 -3,-22 -8,-31 -5,-10 -12,-17 -21,-22 -10,-5 -20,-8 -30,-8zm292 -15l0 154 -20 0 0 -27c-8,10 -17,18 -28,23 -10,5 -21,7 -33,7 -22,0 -41,-7 -56,-23 -16,-16 -23,-35 -23,-58 0,-22 8,-41 23,-56 16,-16 34,-24 56,-24 13,0 24,3 34,8 11,5 20,13 27,24l0 -28 20 0zm-79 15c-11,0 -21,3 -31,8 -9,6 -16,13 -22,23 -5,10 -8,20 -8,31 0,11 3,21 8,31 6,10 13,17 22,23 10,5 20,8 31,8 10,0 21,-3 30,-8 10,-5 18,-13 23,-22 5,-9 8,-20 8,-32 0,-17 -6,-32 -18,-44 -12,-12 -26,-18 -43,-18zm139 -75l20 0 0 214 -20 0 0 -214z" />
            <path class="fil5"
                d="M2059 9l29 0 0 85 47 0 0 26 -47 0 0 204 -29 0 0 -204 -40 0 0 -26 40 0 0 -85zm230 80c35,0 64,12 88,38 21,23 31,51 31,83 0,32 -11,60 -33,84 -22,24 -51,35 -86,35 -36,0 -65,-11 -87,-35 -22,-24 -33,-52 -33,-84 0,-32 10,-60 31,-83 24,-26 53,-38 89,-38zm0 29c-25,0 -46,9 -64,27 -17,18 -26,40 -26,65 0,17 4,32 12,47 8,14 19,25 32,33 14,7 29,11 46,11 16,0 31,-4 45,-11 13,-8 24,-19 32,-33 8,-15 12,-30 12,-47 0,-25 -9,-47 -26,-65 -18,-18 -39,-27 -63,-27zm174 -24l30 0 0 42c11,-16 25,-28 40,-35 15,-8 32,-12 51,-12 33,0 60,11 84,35 23,23 34,51 34,84 0,34 -11,63 -34,86 -23,24 -51,35 -83,35 -19,0 -35,-3 -51,-11 -15,-8 -29,-19 -41,-34l0 124 -30 0 0 -314zm119 23c-26,0 -47,9 -65,27 -17,18 -26,40 -26,66 0,18 4,33 12,47 7,14 19,25 33,33 15,8 30,12 46,12 16,0 31,-4 45,-12 14,-8 25,-20 33,-34 8,-15 13,-31 13,-47 0,-16 -5,-31 -13,-46 -8,-14 -19,-26 -33,-34 -14,-8 -29,-12 -45,-12z" />
            <path class="fil6"
                d="M2729 94l56 0 46 131 50 -131 35 0 48 129 47 -129 56 0 -83 230 -37 0 -49 -131 -51 131 -36 0 -82 -230zm541 0l57 0 0 230 -57 0 0 -25c-12,11 -23,19 -34,23 -11,5 -24,7 -37,7 -30,0 -55,-11 -77,-34 -22,-23 -33,-51 -33,-86 0,-35 11,-64 32,-86 21,-23 46,-34 76,-34 14,0 27,2 39,7 12,5 23,13 34,23l0 -25zm-61 47c-18,0 -33,7 -44,19 -12,13 -18,29 -18,49 0,19 6,36 18,49 12,12 27,19 44,19 18,0 33,-7 45,-19 12,-13 18,-29 18,-50 0,-20 -6,-36 -18,-48 -12,-12 -27,-19 -45,-19zm170 -135l58 0 0 318 -58 0 0 -318zm110 0l58 0 0 183 85 -95 72 0 -99 110 111 120 -71 0 -98 -106 0 106 -58 0 0 -318zm273 -6c11,0 19,4 26,11 8,7 11,16 11,26 0,11 -3,19 -10,27 -8,7 -16,10 -26,10 -10,0 -19,-3 -26,-11 -8,-7 -11,-16 -11,-26 0,-11 3,-19 11,-26 7,-7 15,-11 25,-11zm-28 94l57 0 0 230 -57 0 0 -230zm109 0l58 0 0 24c13,-11 25,-19 35,-23 11,-4 22,-6 33,-6 23,0 42,8 58,23 13,14 20,34 20,60l0 152 -57 0 0 -101c0,-27 -1,-45 -4,-54 -2,-9 -7,-16 -13,-21 -6,-4 -13,-7 -22,-7 -12,0 -22,4 -30,12 -9,8 -14,19 -18,32 -1,8 -2,23 -2,47l0 92 -58 0 0 -230zm430 0l57 0 0 197c0,38 -8,67 -23,85 -21,25 -53,37 -95,37 -23,0 -42,-2 -57,-8 -15,-6 -28,-14 -39,-25 -10,-11 -18,-24 -23,-40l63 0c6,7 13,12 22,15 9,3 20,5 32,5 15,0 28,-3 37,-7 10,-5 16,-11 20,-19 4,-7 6,-20 6,-39 -10,10 -21,18 -32,22 -11,5 -24,7 -38,7 -31,0 -57,-11 -78,-33 -22,-23 -32,-51 -32,-85 0,-36 11,-65 34,-87 20,-20 45,-30 73,-30 13,0 26,2 38,7 11,5 23,13 35,24l0 -26zm-60 49c-18,0 -33,6 -45,18 -12,12 -18,27 -18,45 0,19 6,35 18,47 12,12 28,19 46,19 18,0 33,-6 44,-18 12,-12 18,-28 18,-47 0,-19 -6,-35 -18,-46 -12,-12 -27,-18 -45,-18zm182 -133l58 0 0 84 34 0 0 50 -34 0 0 180 -58 0 0 -180 -29 0 0 -50 29 0 0 -84zm231 79c22,0 42,5 61,16 19,11 34,25 45,44 11,18 16,38 16,60 0,21 -6,42 -16,60 -11,19 -26,34 -44,45 -19,10 -39,15 -62,15 -33,0 -61,-11 -84,-35 -24,-23 -35,-51 -35,-85 0,-36 13,-65 39,-89 23,-21 50,-31 80,-31zm1 54c-18,0 -33,6 -45,18 -12,13 -18,29 -18,48 0,20 6,36 18,48 12,13 26,19 45,19 18,0 33,-6 45,-19 12,-12 18,-28 18,-48 0,-20 -6,-36 -18,-48 -12,-12 -27,-18 -45,-18zm168 -49l58 0 0 111c0,21 2,36 4,44 3,9 8,15 15,20 6,5 14,7 24,7 10,0 18,-2 25,-7 6,-5 11,-11 14,-20 3,-7 4,-21 4,-42l0 -113 58 0 0 97c0,40 -4,68 -10,83 -8,18 -19,31 -34,41 -15,10 -34,14 -58,14 -25,0 -45,-5 -61,-16 -15,-12 -26,-27 -33,-47 -4,-14 -6,-40 -6,-76l0 -96zm246 0l49 0 0 29c6,-11 13,-20 22,-25 9,-6 18,-9 29,-9 7,0 15,2 23,6l-18 49c-7,-3 -12,-5 -16,-5 -9,0 -17,6 -23,17 -6,11 -9,32 -9,64l0 11 0 93 -57 0 0 -230zm292 33l-36 36c-14,-15 -27,-22 -39,-22 -6,0 -11,1 -15,4 -4,3 -6,6 -6,10 0,3 2,6 4,9 2,2 8,6 17,10l21 11c22,11 38,22 46,33 8,12 12,25 12,40 0,21 -7,38 -22,51 -15,14 -35,20 -61,20 -33,0 -60,-13 -80,-39l36 -38c7,8 15,14 24,19 9,5 17,7 24,7 7,0 14,-2 18,-5 5,-4 7,-8 7,-13 0,-9 -8,-18 -25,-26l-19 -10c-37,-18 -56,-42 -56,-70 0,-18 7,-33 21,-46 14,-13 32,-19 54,-19 14,0 28,3 42,10 13,6 24,16 33,28z" />
        </g>
    </g>
</svg>