<svg viewBox="0 0 1316 1024" version="1.1" xmlns="http://www.w3.org/2000/svg">
    <title>tripadvisor</title>
    <path
        d="M372 569.714286q0 22.285714-15.714286 38T318.857143 623.428571q-22.285714 0-38-15.714285T265.142857 569.714286q0-21.714286 15.714286-37.428572T318.857143 516.571429q21.714286 0 37.428571 15.714285T372 569.714286z m659.428571-0.571429q0 22.285714-15.714285 38T977.714286 622.857143t-38-15.714286T924 569.142857t15.714286-37.714286 38-15.428571 38 15.428571 15.714285 37.714286z m-594.285714 0.571429q0-45.142857-32.285714-77.714286T326.857143 459.428571t-78 32.285715T216.571429 569.714286t32.285714 78T326.857143 680t78-32.285714T437.142857 569.714286z m658.857143-0.571429q0-45.714286-32.285714-78T985.714286 458.857143q-45.142857 0-77.714286 32.285714T875.428571 569.142857t32.285715 78T985.714286 679.428571t78-32.285714T1096 569.142857z m-610.285714 0.571429q0 66.285714-46.571429 112.857143T326.857143 729.142857q-66.285714 0-112.857143-46.857143T167.428571 569.714286t46.857143-112.285715T326.857143 410.857143t112.285714 46.571428T485.714286 569.714286z m659.428571-0.571429q0 65.714286-46.571428 112.285714T985.714286 728q-65.714286 0-112.285715-46.571429T826.857143 569.142857t46.571428-112.285714T985.714286 410.285714q66.285714 0 112.857143 46.571429T1145.142857 569.142857z m-550.857143 1.714286q0-109.142857-77.428571-186.571429T330.285714 306.857143q-71.428571 0-132 35.428571T102.285714 438.571429 66.857143 570.857143t35.428571 132.285714T198.285714 799.428571t132 35.428572q109.142857 0 186.571429-77.428572T594.285714 570.857143z m381.714286-327.428572q-145.142857-63.428571-317.714286-63.428571-182.285714 0-327.428571 62.857143 66.857143 0 127.428571 26T562.571429 338.857143t69.714285 104.571428T658.285714 570.857143q0-65.714286 24.857143-125.428572t67.428572-103.142857T852 272t124-28.571429z m273.714286 327.428572q0-109.142857-77.142857-186.571429T986.285714 306.857143t-186.571428 77.428571T722.285714 570.857143t77.428572 186.571428T986.285714 834.857143t186.285715-77.428572T1249.714286 570.857143z m-152-323.428572h218.857143q-25.142857 29.142857-42.857143 65.428572T1250.857143 378.285714q62.857143 86.285714 62.857143 192.571429 0 89.142857-44 164.571428t-119.428572 119.142858-164 43.714285q-76 0-142.285714-32t-112-88.571428q-26.857143 32-73.714286 102.285714-6.285714-12.571429-30.571428-47.142857T585.142857 777.142857q-45.714286 56.571429-112.285714 88.857143T330.285714 898.285714q-88.571429 0-164-43.714285T46.857143 735.428571t-44-164.571428q0-106.285714 62.857143-192.571429-5.142857-29.142857-22.857143-65.428571T0 247.428571h208.571429q85.142857-57.142857 202.857142-89.428571T658.285714 125.714286q128 0 240.571429 32t198.857143 89.714285z" />
</svg>