<svg xmlns="http://www.w3.org/2000/svg" width="761.556" height="133.366" viewBox="0 0 2833 496"
    shape-rendering="geometricPrecision" text-rendering="geometricPrecision" image-rendering="optimizeQuality"
    fill-rule="evenodd" clip-rule="evenodd">
    <defs>
        <style>
            .prefix__fil0,
            .prefix__fil1 {
                fill: currentColor;
                fill-rule: nonzero
            }

            .prefix__fil0 {
                fill: #f70
            }
        </style>
    </defs>
    <g id="prefix__Camada_x0020_1">
        <g id="prefix___795540960">
            <path class="prefix__fil0"
                d="M39 496c25-82 100-142 190-142s166 60 191 142h38c-26-103-119-178-229-178S26 393 1 496h38z"
                stroke="#f70" stroke-width="1.071" />
            <path class="prefix__fil1"
                d="M669 67l90-9c10-1 19 4 24 11 6 8 6 18 2 26l-9 21c-7 13-7 28-3 42 7 19 15 43 25 70L512 459l-75-239c-6 0-14-1-24-2l26 84-44 49c5 4 10 8 14 13l37-40 53 172h24l-4-14 287-231c5 14 10 29 15 45L632 496h31l167-177c26 73 52 145 67 177h25c-9-16-37-89-76-199 0-2-1-4-2-5-15-43-32-90-49-142-3-8-3-16 1-24l10-21c7-16 6-34-4-49-10-14-27-22-45-20l-90 8c-6 1-11 6-10 12s6 11 12 11z" />
            <path class="prefix__fil0"
                d="M339 162v13s91 26 102 20 96-37 96-37-17-22-28-22c-10 0-78 4-135-4-18-3-35 11-35 30zM1189 496h-38c-25-82-101-141-191-141-22 0-43 3-62 10-4-11-8-23-13-35 24-8 49-12 75-12 111 0 203 75 229 178zM819 365c4 12 9 25 13 36-29 25-51 57-62 95h-38c13-53 44-99 87-131z" />
            <path class="prefix__fil1"
                d="M1480 345h12v16c4-6 9-11 15-14s12-5 20-5c12 0 23 5 32 14s13 20 13 32c0 13-4 24-13 33-9 10-20 14-32 14-7 0-13-1-19-4s-12-8-16-13v47h-12V345zm46 8c-10 0-18 4-25 11-7 6-10 15-10 25 0 7 1 13 4 18 3 6 8 10 13 13 6 3 12 5 18 5s12-2 17-5c6-3 10-8 13-13 3-6 5-12 5-18s-2-12-5-18-7-10-13-13c-5-3-11-5-17-5zm120-11c13 0 25 5 34 15 8 9 12 20 12 32s-5 23-13 32c-9 9-20 14-33 14-14 0-25-5-33-14-9-9-13-20-13-32s4-23 12-32c9-10 20-15 34-15zm0 11c-10 0-18 4-24 11-7 7-11 15-11 25 0 7 2 13 5 18 3 6 7 10 13 13 5 3 11 4 17 4s12-1 17-4 10-7 13-13c3-5 4-11 4-18 0-10-3-18-10-25s-15-11-24-11zm73-8h12v13c3-6 7-9 11-12 4-2 8-4 12-4 3 0 6 1 10 3l-6 10c-3-1-5-2-6-2-4 0-8 2-11 5-4 3-6 8-8 14s-2 16-2 31v30h-12v-88zm75-33h11v33h18v9h-18v79h-11v-79h-16v-9h16v-33zm56 33h11v41c0 10 0 17 2 21 1 5 4 9 9 12 4 4 10 5 16 5 7 0 12-1 16-5 5-3 8-7 9-12 2-3 2-10 2-21v-41h12v43c0 12-2 21-5 27-2 7-7 11-12 15-6 3-13 5-22 5-8 0-16-2-21-5-6-4-10-8-13-15-3-6-4-15-4-28v-42zm189 0h11v70c0 12-1 21-3 27-3 8-8 14-16 19-7 4-16 6-26 6-8 0-15-1-21-3s-11-5-14-8c-4-4-8-9-11-16h12c4 6 8 10 13 13 6 3 12 4 20 4s14-1 20-4c5-3 9-7 11-11 2-5 4-12 4-21v-5c-5 5-10 10-16 13-6 2-13 4-20 4-8 0-15-2-23-6-7-4-12-10-16-16-4-7-6-15-6-23s2-16 6-23 10-12 17-17c7-4 15-6 23-6 6 0 12 2 18 4 6 3 11 8 17 14v-15zm-34 8c-6 0-12 2-18 5-5 3-10 7-13 13-3 5-5 11-5 18 0 9 4 17 10 24 7 6 15 9 25 9 11 0 19-3 26-9 6-7 9-15 9-25 0-7-1-13-4-18s-7-9-13-12c-5-3-11-5-17-5zm168-8v88h-11v-15c-5 5-10 10-16 13s-13 4-20 4c-12 0-23-4-32-14-9-9-13-20-13-33 0-12 4-23 13-32s20-14 33-14c7 0 13 2 19 5s11 8 16 14v-16h11zm-46 8c-6 0-12 2-17 5s-10 7-13 13-5 12-5 18 2 12 5 18c3 5 8 10 13 13s11 5 17 5c7 0 12-2 18-5s10-7 13-13c3-5 4-11 4-18 0-10-3-19-10-25-6-7-15-11-25-11zm80-42h12v122h-12V311zM958 7h42v63h26v36h-26v132h-42V106h-22V70h22V7zm170 58c16 0 31 4 45 12s25 19 32 33c8 13 12 28 12 44s-4 31-12 45c-8 13-18 24-32 32s-29 12-45 12c-24 0-45-9-62-26s-26-38-26-63c0-26 10-48 29-66 17-15 37-23 59-23zm0 40c-13 0-24 5-32 14-9 9-14 21-14 35 0 15 5 27 13 36 9 9 20 13 33 13s24-4 33-13c9-10 13-21 13-36s-4-26-12-35c-9-9-20-14-34-14zm166-35v18c8-7 16-13 25-17s18-6 28-6c22 0 41 9 57 25 15 17 23 38 23 64 0 25-8 46-24 63s-35 26-57 26c-10 0-19-2-27-5-8-4-17-10-25-17v79h-42V70h42zm44 34c-13 0-24 5-33 14s-13 21-13 36 4 27 13 36 20 14 33 14 24-5 33-14c9-10 13-22 13-36 0-15-4-26-13-36-8-9-19-14-33-14z" />
            <path class="prefix__fil0"
                d="M1504 4v84c7-7 16-13 25-17s18-6 28-6c22 0 41 9 56 25 16 17 23 38 23 64 0 25-7 46-23 63s-35 26-57 26c-10 0-19-2-27-5-9-4-17-10-25-17v17h-42V4h42zm44 100c-13 0-24 5-33 14s-13 21-13 36 4 27 13 36 20 14 33 14 24-5 33-14c9-10 13-22 13-36 0-15-4-26-13-36-8-9-19-14-33-14zM1688 0c8 0 14 3 19 8 6 5 8 12 8 20 0 7-2 14-8 19-5 5-11 8-19 8-7 0-13-3-19-8-5-6-8-12-8-20 0-7 3-14 8-19s12-8 19-8zm-21 70h42v168h-42V70zm81-66h42v135l63-69h53l-73 81 82 87h-53l-72-77v77h-42V4zm353 162h-136c2 12 7 22 16 29s19 11 33 11c16 0 29-6 41-17l35 17c-9 12-19 22-32 28-12 6-27 9-44 9-26 0-48-9-65-25-16-17-25-38-25-63 0-26 9-47 25-64 17-17 38-26 63-26 26 0 48 9 65 26 16 17 25 39 25 67l-1 8zm-42-33c-3-10-8-17-17-23-8-6-17-9-28-9-12 0-22 3-31 10-6 4-11 11-16 22h92zm82-126h42v63h25v36h-25v132h-42V106h-22V70h22V7zm169 58c16 0 31 4 45 12s25 19 33 33c8 13 12 28 12 44s-4 31-12 45c-8 13-19 24-32 32-14 8-29 12-45 12-25 0-45-9-62-26-18-17-26-38-26-63 0-26 9-48 29-66 17-15 36-23 58-23zm1 40c-13 0-24 5-33 14s-13 21-13 35c0 15 4 27 13 36s20 13 33 13 24-4 33-13c9-10 13-21 13-36s-4-26-13-35-20-14-33-14zm123-35h43v81c0 16 1 27 3 33 3 6 6 11 11 14 5 4 11 5 18 5s13-1 18-5c5-3 8-8 10-15 2-4 3-15 3-31V70h43v71c0 30-3 50-7 61-6 13-14 23-25 30-12 7-26 11-43 11-18 0-33-4-45-13-11-8-19-19-24-34-3-10-5-29-5-56V70zm181 0h37v21c4-9 9-15 15-19 7-5 14-7 22-7 5 0 11 2 17 5l-13 36c-5-2-9-4-13-4-6 0-12 4-16 12-5 8-7 24-7 48v76h-42V70zm215 23l-26 26c-11-10-20-15-29-15-5 0-9 1-11 3-3 2-4 4-4 7 0 2 1 4 2 6 2 2 6 5 13 8l16 8c16 8 27 16 33 25 6 8 9 18 9 29 0 15-5 28-16 38s-26 15-45 15c-24 0-44-10-58-29l26-28c5 5 10 10 17 14 7 3 13 5 18 5s10-1 13-4c4-3 5-6 5-9 0-7-6-13-18-20l-14-7c-28-13-41-31-41-51 0-14 5-25 15-35 10-9 24-14 40-14 11 0 21 3 31 7 9 5 17 12 24 21z" />
        </g>
    </g>
</svg>