<svg xmlns="http://www.w3.org/2000/svg" xml:space="preserve" width="201.495mm" height="35.2865mm" version="1.1"
    style="shape-rendering:geometricPrecision; text-rendering:geometricPrecision; image-rendering:optimizeQuality; fill-rule:evenodd; clip-rule:evenodd"
    viewBox="0 0 2833 496" xmlns:xlink="http://www.w3.org/1999/xlink">
    <defs>
        <style type="text/css">
            <![CDATA[
            .str0 {
                stroke: #FF7700;
                stroke-width: 1.07149
            }

            .fil1 {
                fill: #2B2A29;
                fill-rule: nonzero
            }

            .fil0 {
                fill: #FF7700;
                fill-rule: nonzero
            }
            ]]>
        </style>
    </defs>
    <g id="Camada_x0020_1">
        <metadata id="CorelCorpID_0Corel-Layer" />
        <g id="_795540960">
            <g>
                <path class="fil0 str0"
                    d="M39 496c25,-82 100,-142 190,-142 90,0 166,60 191,142l38 0c-26,-103 -119,-178 -229,-178 -110,0 -203,75 -228,178l38 0z" />
                <path class="fil1"
                    d="M669 67l90 -9c10,-1 19,4 24,11 6,8 6,18 2,26l-9 21c-7,13 -7,28 -3,42 7,19 15,43 25,70l-286 231 -75 -239c-6,0 -14,-1 -24,-2l26 84 -44 49c5,4 10,8 14,13l37 -40 53 172 24 0 -4 -14 287 -231c5,14 10,29 15,45l-189 200 31 0 167 -177c26,73 52,145 67,177l25 0c-9,-16 -37,-89 -76,-199 0,-2 -1,-4 -2,-5 -15,-43 -32,-90 -49,-142 -3,-8 -3,-16 1,-24l10 -21c7,-16 6,-34 -4,-49 -10,-14 -27,-22 -45,-20l-90 8c-6,1 -11,6 -10,12 1,6 6,11 12,11z" />
                <path class="fil0"
                    d="M339 162l0 13c0,0 91,26 102,20 11,-6 96,-37 96,-37 0,0 -17,-22 -28,-22 -10,0 -78,4 -135,-4 -18,-3 -35,11 -35,30z" />
                <path class="fil0"
                    d="M1189 496l-38 0c-25,-82 -101,-141 -191,-141 -22,0 -43,3 -62,10 -4,-11 -8,-23 -13,-35 24,-8 49,-12 75,-12 111,0 203,75 229,178z" />
                <path class="fil0" d="M819 365c4,12 9,25 13,36 -29,25 -51,57 -62,95l-38 0c13,-53 44,-99 87,-131z" />
            </g>
            <path class="fil1"
                d="M1480 345l12 0 0 16c4,-6 9,-11 15,-14 6,-3 12,-5 20,-5 12,0 23,5 32,14 9,9 13,20 13,32 0,13 -4,24 -13,33 -9,10 -20,14 -32,14 -7,0 -13,-1 -19,-4 -6,-3 -12,-8 -16,-13l0 47 -12 0 0 -120zm46 8c-10,0 -18,4 -25,11 -7,6 -10,15 -10,25 0,7 1,13 4,18 3,6 8,10 13,13 6,3 12,5 18,5 6,0 12,-2 17,-5 6,-3 10,-8 13,-13 3,-6 5,-12 5,-18 0,-6 -2,-12 -5,-18 -3,-6 -7,-10 -13,-13 -5,-3 -11,-5 -17,-5zm120 -11c13,0 25,5 34,15 8,9 12,20 12,32 0,12 -5,23 -13,32 -9,9 -20,14 -33,14 -14,0 -25,-5 -33,-14 -9,-9 -13,-20 -13,-32 0,-12 4,-23 12,-32 9,-10 20,-15 34,-15zm0 11c-10,0 -18,4 -24,11 -7,7 -11,15 -11,25 0,7 2,13 5,18 3,6 7,10 13,13 5,3 11,4 17,4 6,0 12,-1 17,-4 5,-3 10,-7 13,-13 3,-5 4,-11 4,-18 0,-10 -3,-18 -10,-25 -7,-7 -15,-11 -24,-11zm73 -8l12 0 0 13c3,-6 7,-9 11,-12 4,-2 8,-4 12,-4 3,0 6,1 10,3l-6 10c-3,-1 -5,-2 -6,-2 -4,0 -8,2 -11,5 -4,3 -6,8 -8,14 -2,6 -2,16 -2,31l0 30 -12 0 0 -88zm75 -33l11 0 0 33 18 0 0 9 -18 0 0 79 -11 0 0 -79 -16 0 0 -9 16 0 0 -33zm56 33l11 0 0 41c0,10 0,17 2,21 1,5 4,9 9,12 4,4 10,5 16,5 7,0 12,-1 16,-5 5,-3 8,-7 9,-12 2,-3 2,-10 2,-21l0 -41 12 0 0 43c0,12 -2,21 -5,27 -2,7 -7,11 -12,15 -6,3 -13,5 -22,5 -8,0 -16,-2 -21,-5 -6,-4 -10,-8 -13,-15 -3,-6 -4,-15 -4,-28l0 -42zm189 0l11 0 0 70c0,12 -1,21 -3,27 -3,8 -8,14 -16,19 -7,4 -16,6 -26,6 -8,0 -15,-1 -21,-3 -6,-2 -11,-5 -14,-8 -4,-4 -8,-9 -11,-16l12 0c4,6 8,10 13,13 6,3 12,4 20,4 8,0 14,-1 20,-4 5,-3 9,-7 11,-11 2,-5 4,-12 4,-21l0 -5c-5,5 -10,10 -16,13 -6,2 -13,4 -20,4 -8,0 -15,-2 -23,-6 -7,-4 -12,-10 -16,-16 -4,-7 -6,-15 -6,-23 0,-8 2,-16 6,-23 4,-7 10,-12 17,-17 7,-4 15,-6 23,-6 6,0 12,2 18,4 6,3 11,8 17,14l0 -15zm-34 8c-6,0 -12,2 -18,5 -5,3 -10,7 -13,13 -3,5 -5,11 -5,18 0,9 4,17 10,24 7,6 15,9 25,9 11,0 19,-3 26,-9 6,-7 9,-15 9,-25 0,-7 -1,-13 -4,-18 -3,-5 -7,-9 -13,-12 -5,-3 -11,-5 -17,-5zm168 -8l0 88 -11 0 0 -15c-5,5 -10,10 -16,13 -6,3 -13,4 -20,4 -12,0 -23,-4 -32,-14 -9,-9 -13,-20 -13,-33 0,-12 4,-23 13,-32 9,-9 20,-14 33,-14 7,0 13,2 19,5 6,3 11,8 16,14l0 -16 11 0zm-46 8c-6,0 -12,2 -17,5 -5,3 -10,7 -13,13 -3,6 -5,12 -5,18 0,6 2,12 5,18 3,5 8,10 13,13 5,3 11,5 17,5 7,0 12,-2 18,-5 6,-3 10,-7 13,-13 3,-5 4,-11 4,-18 0,-10 -3,-19 -10,-25 -6,-7 -15,-11 -25,-11zm80 -42l12 0 0 122 -12 0 0 -122z" />
            <path class="fil1"
                d="M958 7l42 0 0 63 26 0 0 36 -26 0 0 132 -42 0 0 -132 -22 0 0 -36 22 0 0 -63zm170 58c16,0 31,4 45,12 14,8 25,19 32,33 8,13 12,28 12,44 0,16 -4,31 -12,45 -8,13 -18,24 -32,32 -14,8 -29,12 -45,12 -24,0 -45,-9 -62,-26 -17,-17 -26,-38 -26,-63 0,-26 10,-48 29,-66 17,-15 37,-23 59,-23zm0 40c-13,0 -24,5 -32,14 -9,9 -14,21 -14,35 0,15 5,27 13,36 9,9 20,13 33,13 13,0 24,-4 33,-13 9,-10 13,-21 13,-36 0,-15 -4,-26 -12,-35 -9,-9 -20,-14 -34,-14zm166 -35l0 18c8,-7 16,-13 25,-17 9,-4 18,-6 28,-6 22,0 41,9 57,25 15,17 23,38 23,64 0,25 -8,46 -24,63 -16,17 -35,26 -57,26 -10,0 -19,-2 -27,-5 -8,-4 -17,-10 -25,-17l0 79 -42 0 0 -230 42 0zm44 34c-13,0 -24,5 -33,14 -9,9 -13,21 -13,36 0,15 4,27 13,36 9,9 20,14 33,14 13,0 24,-5 33,-14 9,-10 13,-22 13,-36 0,-15 -4,-26 -13,-36 -8,-9 -19,-14 -33,-14z" />
            <path class="fil0"
                d="M1504 4l0 84c7,-7 16,-13 25,-17 9,-4 18,-6 28,-6 22,0 41,9 56,25 16,17 23,38 23,64 0,25 -7,46 -23,63 -16,17 -35,26 -57,26 -10,0 -19,-2 -27,-5 -9,-4 -17,-10 -25,-17l0 17 -42 0 0 -234 42 0zm44 100c-13,0 -24,5 -33,14 -9,9 -13,21 -13,36 0,15 4,27 13,36 9,9 20,14 33,14 13,0 24,-5 33,-14 9,-10 13,-22 13,-36 0,-15 -4,-26 -13,-36 -8,-9 -19,-14 -33,-14zm140 -104c8,0 14,3 19,8 6,5 8,12 8,20 0,7 -2,14 -8,19 -5,5 -11,8 -19,8 -7,0 -13,-3 -19,-8 -5,-6 -8,-12 -8,-20 0,-7 3,-14 8,-19 5,-5 12,-8 19,-8zm-21 70l42 0 0 168 -42 0 0 -168zm81 -66l42 0 0 135 63 -69 53 0 -73 81 82 87 -53 0 -72 -77 0 77 -42 0 0 -234zm353 162l-136 0c2,12 7,22 16,29 9,7 19,11 33,11 16,0 29,-6 41,-17l35 17c-9,12 -19,22 -32,28 -12,6 -27,9 -44,9 -26,0 -48,-9 -65,-25 -16,-17 -25,-38 -25,-63 0,-26 9,-47 25,-64 17,-17 38,-26 63,-26 26,0 48,9 65,26 16,17 25,39 25,67l-1 8zm-42 -33c-3,-10 -8,-17 -17,-23 -8,-6 -17,-9 -28,-9 -12,0 -22,3 -31,10 -6,4 -11,11 -16,22l92 0zm82 -126l42 0 0 63 25 0 0 36 -25 0 0 132 -42 0 0 -132 -22 0 0 -36 22 0 0 -63zm169 58c16,0 31,4 45,12 14,8 25,19 33,33 8,13 12,28 12,44 0,16 -4,31 -12,45 -8,13 -19,24 -32,32 -14,8 -29,12 -45,12 -25,0 -45,-9 -62,-26 -18,-17 -26,-38 -26,-63 0,-26 9,-48 29,-66 17,-15 36,-23 58,-23zm1 40c-13,0 -24,5 -33,14 -9,9 -13,21 -13,35 0,15 4,27 13,36 9,9 20,13 33,13 13,0 24,-4 33,-13 9,-10 13,-21 13,-36 0,-15 -4,-26 -13,-35 -9,-9 -20,-14 -33,-14zm123 -35l43 0 0 81c0,16 1,27 3,33 3,6 6,11 11,14 5,4 11,5 18,5 7,0 13,-1 18,-5 5,-3 8,-8 10,-15 2,-4 3,-15 3,-31l0 -82 43 0 0 71c0,30 -3,50 -7,61 -6,13 -14,23 -25,30 -12,7 -26,11 -43,11 -18,0 -33,-4 -45,-13 -11,-8 -19,-19 -24,-34 -3,-10 -5,-29 -5,-56l0 -70zm181 0l37 0 0 21c4,-9 9,-15 15,-19 7,-5 14,-7 22,-7 5,0 11,2 17,5l-13 36c-5,-2 -9,-4 -13,-4 -6,0 -12,4 -16,12 -5,8 -7,24 -7,48l0 8 0 68 -42 0 0 -168zm215 23l-26 26c-11,-10 -20,-15 -29,-15 -5,0 -9,1 -11,3 -3,2 -4,4 -4,7 0,2 1,4 2,6 2,2 6,5 13,8l16 8c16,8 27,16 33,25 6,8 9,18 9,29 0,15 -5,28 -16,38 -11,10 -26,15 -45,15 -24,0 -44,-10 -58,-29l26 -28c5,5 10,10 17,14 7,3 13,5 18,5 5,0 10,-1 13,-4 4,-3 5,-6 5,-9 0,-7 -6,-13 -18,-20l-14 -7c-28,-13 -41,-31 -41,-51 0,-14 5,-25 15,-35 10,-9 24,-14 40,-14 11,0 21,3 31,7 9,5 17,12 24,21z" />
        </g>
    </g>
</svg>