<svg xmlns="http://www.w3.org/2000/svg" width="350" height="261.866" viewBox="0 0 92.604 69.285"><path fill="#009739" d="M26.543.002c-3.468.107-6.144 4.138-4.805 7.42.438 1.754 2.087 2.965 3.644 3.632 1.435.33 3.296.34 4.472-.546 2.222-1 3.465-3.93 2.687-6.173-.375-2.436-2.726-4.484-5.295-4.3a4.6 4.6 0 0 0-.703-.033m37.01.007c-1.957.013-3.9.915-4.83 2.75-1.903 2.983-.05 7.35 3.28 8.318 1.934.444 3.935.11 5.365-1.222 1.846-1.616 2.599-4.428 1.43-6.533-.796-2.201-3.03-3.328-5.246-3.313m4.989 12.351c-3.024-.105-3.814 3.896-4.697 6.207-1.143 2.336-.379 6.77-4.223 6.02-1.88.786-6.419-.843-6.91 1.359-.01 1.326-.459 3.494 1.678 2.511 3.529-.06 7.027-.351 10.528-.64 1.46-2.445 1.447-5.917 2.596-8.693.603-3.442 1.714-.5 2.141 1.04 1.02 2.91 1.883 6.031 2.733 9.148-3.595.984-7.523 1.498-10.663 3.606-3.087 1.567-2.974 5.506-1.855 8.262 1.244 2.323 2.635 4.51 4.474 6.535.881 1.745 1.823-.13 2.813-.843 1.849-1.383-2.178-2.95-2.411-4.662-1.073-1.766-2.703-3.757-1.545-5.916 1.556-1.105 3.22-1.593 4.933-2.199 2.616-1.077 7.025-.56 8.627-2.18-.952-4.138-2.11-8.413-3.462-12.48-.95-2.511-1.768-5.817-4.458-7.052a4 4 0 0 0-.3-.023m-44.143.301c-.616-.03-1.302.157-2.064.635-.637 1.165-1.524 2.051-1.872 3.41-1.793 3.931-2.672 8.27-3.955 12.373-2.298 4.038 1.705 3.977 4.896 4.295 2.093.33 4.1.996 5.982 1.73 2.083.4 3.387 2.713 1.875 4.467-.306 3.029-6.531 5.708-2.774 7.989l.973.886c1.78-1.958 3.509-3.985 4.663-6.236 1.194-2.042 2.125-5.163.73-7.384-2.794-3.774-7.958-4.306-12.238-5.384-.262-2.15 1.272-5.256 1.852-7.638.585-1.38.82-3.473 1.93-4.224 1.46 3.25 2.053 6.843 2.994 10.22 3.579.354 7.233.672 10.871.796 2.112.893 1.726-.928 1.696-2.39.104-2.41-4.185-.736-5.83-1.476-3.824.902-4.588-2.304-5.077-5.263-.615-2.437-1.983-6.672-4.652-6.806m-12.853 20.26c-2.086.038-4.143.692-5.84 1.637-3.583 2.241-6.127 6.327-5.648 10.63-.274 5.02 3.631 9.178 8.198 10.89 2.346.396 5.4.553 7.567-.338 3.466-1.16 6.26-4.211 7.19-7.518.86-2.663.721-5.856-.493-8.306-.743-2.044-2.662-3.853-4.324-5.123-1.365-.817-2.867-1.473-4.565-1.693a10 10 0 0 0-2.085-.18m34.822.005a12.2 12.2 0 0 0-5.682 1.45c-3.84 1.985-6.418 6.437-6.128 10.87.043 5.2 4.041 9.717 9.044 10.993.561.174 1.164.105 1.74.161 4.378.617 8.661-1.863 11.013-5.445 2.575-4.062 2.257-9.704-.729-13.482-1.701-2.221-3.987-3.608-6.548-4.19a10 10 0 0 0-2.71-.357m34.364.035c-1.165.018-2.33.193-3.425.522-1.74.42-3.123 1.47-4.457 2.628-1.744 1.615-2.937 3.508-3.377 5.734-.736 2.714-.382 5.847.911 8.2 1.615 3.391 5.443 6.244 9.383 6.343 4.92.759 9.87-2.432 11.934-6.708 1.192-2.702 1.094-6.075.344-8.928-.996-2.737-3.302-5.343-5.81-6.559-1.62-.854-3.562-1.261-5.503-1.232m-69.18 3.584a7 7 0 0 1 1.897.199c2.55.587 4.918 2.573 5.9 5.101 1.77 4.126-.83 9.26-5.059 10.62-4.737 1.685-10.363-1.86-10.622-6.967-.683-4.585 3.466-8.809 7.884-8.953m69.175.01c3.898-.058 7.696 3.037 8.258 7.014.631 3.905-1.966 7.885-5.696 8.915-1.91.615-4.24.521-5.982-.457-3.665-1.744-5.608-6.486-4.008-10.181.87-2.288 3.046-4.184 5.273-4.92a7 7 0 0 1 2.155-.37M46.28 36.6c2.468-.001 4.95 1.072 6.432 3.154 1.27 1.837 2.327 4.233 1.511 6.497-.389 3.198-3.227 5.925-6.519 6.511-1.856.428-3.999-.079-5.559-1.12-2.3-1.23-3.369-3.521-3.957-5.833-.219-2.493.52-4.9 2.293-6.651 1.456-1.72 3.622-2.557 5.8-2.558M38.5 59.326l-2.414.05-2.414.052-.049 4.782-.048 4.783H38.5V67.9h-3.46v-3.28h3.097v-1.093h-3.112l.053-1.503.053-1.503 1.275-.047c1.84-.066 2.095-.15 2.095-.691zm-32.248.01c-.972 0-1.64.075-1.64.183 0 .1-.13.182-.29.182-.649 0-1.953 1.179-2.463 2.227-.918 1.882-.901 3.328.059 5.135.273.515 1.433 1.566 1.728 1.566.13 0 .237.082.237.182s.267.188.592.195c.326.007.757.083.957.17.2.085.46.125.579.088s.528-.12.91-.183c1.318-.219 1.7-.448 1.7-1.021 0-.403-.085-.525-.365-.525-.2 0-.364.073-.364.161 0 .229-1.849.431-2.617.287-.805-.15-2.129-1.389-2.44-2.283-.272-.78-.3-2.47-.045-2.628.1-.062.182-.266.182-.452 0-.435 1.292-1.826 1.696-1.826.17 0 .308-.082.308-.182 0-.104.547-.182 1.276-.182s1.275.078 1.275.182c0 .1.148.182.328.182s.426.098.547.219c.17.17.218.048.218-.547 0-.644-.058-.765-.364-.765-.2 0-.364-.082-.364-.182 0-.108-.668-.182-1.64-.182m4.116 0c-.72 0-.952.223-.6.578.215.216 1.314 2.128 1.84 3.202.11.224.262.409.337.41.076 0 .137.165.137.365s.082.365.182.365.182.164.182.364.082.365.183.365c.11 0 .182.79.182 2.004v2.004h1.473l-.036-2.132c-.024-1.474.03-2.153.175-2.201.115-.039.21-.227.21-.42s.082-.349.182-.349.182-.123.182-.273.082-.273.182-.273.183-.164.183-.365.082-.364.182-.364.182-.164.182-.364.066-.365.148-.365.26-.287.399-.637c.137-.351.316-.638.398-.638.081 0 .148-.123.148-.273s.082-.274.182-.274.182-.164.182-.364c0-.304-.121-.364-.728-.364-.608 0-.73.06-.73.364 0 .2-.081.364-.181.364s-.182.123-.182.274c0 .15-.082.273-.183.273s-.182.164-.182.364-.082.365-.182.365-.182.164-.182.364-.082.365-.182.365-.183.163-.183.364-.082.364-.182.364-.182.164-.182.365c0 .226-.121.363-.319.362-.307 0-.515-.31-1.657-2.458-.266-.5-.53-.951-.588-1.002-.058-.05-.158-.234-.222-.41-.081-.22-.314-.318-.75-.318m17.018 0v9.657h4.856l-.08-.547-.08-.546h-1.6c-1.29 0-1.62-.056-1.71-.289-.06-.158-.11-2.085-.11-4.281v-3.993h-.638zm14.566 0-.815.816c-.685.684-.815.927-.815 1.52 0 1.123.593 2.038 1.744 2.692l.795.456c.972.56 1.652 1.404 1.652 2.05 0 .53-.094.668-.62.918a3.12 3.12 0 0 1-2.596-.004c-.602-.286-.643-.283-.984.083-.446.478-.454.761-.022.761.184 0 .395.062.469.137s.558.221 1.077.325c1.617.322 3.768-.403 3.768-1.269 0-.157.082-.286.183-.286s.182-.41.182-.91c0-.502-.082-.912-.182-.912s-.183-.127-.183-.282c0-.46-1.33-1.56-2.232-1.846-.175-.055-.318-.173-.318-.262 0-.088-.086-.16-.19-.16-.106 0-.392-.202-.638-.448-.616-.615-.615-1.588.002-1.991.47-.309 2.206-.414 2.314-.14.033.084.286.209.562.276.475.117.5.09.5-.518 0-.52-.068-.641-.364-.641-.2 0-.364-.082-.364-.182 0-.107-.61-.183-1.463-.183zm5.84 0v3.83c0 2.723.066 3.945.228 4.235.413.739 1.424 1.569 2.015 1.654.904.131 3.307-.044 3.374-.246.034-.1.188-.18.344-.18.397 0 1.144-.922 1.144-1.412 0-.226.083-.41.183-.41.115 0 .182-1.367.182-3.735v-3.735h-1.458v3.826c0 2.429-.066 3.826-.182 3.826-.1 0-.182.113-.182.252 0 .348-1.103.84-1.883.84-1.233 0-2.307-.709-2.307-1.524 0-.263-.082-.48-.183-.48-.115 0-.182-1.244-.182-3.37v-3.37h-.546zm9.839 0v9.657h1.275v-3.36c0-1.848.067-3.402.15-3.452.167-.104.76.522.76.802 0 .099.083.18.183.18s.182.146.182.324.164.442.365.587.364.39.364.546.164.402.364.547c.2.144.366.388.366.541s.215.378.476.499c.534.248.702.142 1.148-.721.142-.276.326-.501.41-.501s.151-.127.151-.281.164-.457.364-.672.365-.5.365-.63c0-.132.082-.24.182-.24s.182-.155.182-.344c0-.359.457-.644.745-.465.092.056.166 1.573.166 3.371v3.269h1.184l-.03-4.783-.03-4.782-.653-.057c-.359-.03-.653.014-.653.1s-.122.316-.272.512c-.682.893-1.914 2.818-1.914 2.99 0 .104-.072.19-.16.19s-.262.246-.387.546c-.243.588-.91.77-.91.25 0-.164-.145-.43-.321-.593s-.436-.52-.577-.795c-.142-.276-.326-.501-.41-.501-.082 0-.15-.093-.15-.205 0-.113-.374-.727-.83-1.366-.744-1.043-.893-1.162-1.457-1.162zm11.842 0v9.657h1.093v-3.34c0-1.838.05-3.39.11-3.45.147-.147.619.046.619.254 0 .183.873 1.572 1.217 1.937.12.125.269.392.332.592s.186.363.273.363.21.164.273.364.233.365.377.365c.143 0 .267.102.275.228.012.182.033.182.107 0 .05-.126.187-.233.304-.238.226-.011 1.397-1.681 1.397-1.993 0-.1.082-.184.182-.184s.182-.123.182-.273.062-.273.138-.273.247-.246.38-.547c.133-.3.317-.546.409-.546.095 0 .166 1.45.166 3.37v3.37h1.458v-9.655h-.65c-.69 0-1.172.332-1.172.806 0 .158-.082.287-.182.287s-.182.123-.182.273-.082.273-.183.273-.182.123-.182.274c0 .15-.082.273-.182.273s-.182.123-.182.273-.082.274-.182.274-.183.163-.183.364-.068.364-.151.364-.268.226-.41.501c-.292.566-.626.957-.816.957-.157 0-.809-.735-.809-.91 0-.07-.205-.365-.455-.656s-.456-.632-.456-.757-.082-.228-.182-.228-.182-.123-.182-.273-.082-.273-.182-.273-.183-.123-.183-.274c0-.15-.082-.273-.182-.273s-.182-.123-.182-.273-.082-.274-.182-.274-.182-.114-.182-.253c0-.294-.388-.475-1.017-.475zm11.66 0v9.657h1.276v-9.656h-.638zm6.442.003c-1.698.002-3.423.04-3.603.108-.158.06-.288.307-.288.547 0 .423.042.436 1.458.436h1.457v8.563h1.458V60.43l1.32-.001c1.223-.001 1.337-.035 1.528-.447.114-.245.161-.49.106-.545-.068-.069-1.738-.1-3.436-.098zm-64.537.003c-.773-.007-1.495.05-1.573.177-.062.1-.272.182-.466.182-.195 0-.354.062-.355.137 0 .075-.236.27-.523.433-1.414.804-2.285 3.268-1.869 5.285.128.616.35 1.237.493 1.38.143.144.26.324.26.402 0 .529 1.703 1.653 2.51 1.658.273 0 .62.085.77.186s.478.134.729.072c.25-.061.804-.153 1.23-.205.425-.05.774-.167.774-.257s.164-.164.364-.164c.427 0 .46-.313.087-.806-.237-.314-.314-.325-.735-.1-.267.144-.996.252-1.688.25-1.397-.003-2.226-.424-2.969-1.507-.374-.547-.434-.849-.434-2.196 0-1.442.042-1.621.547-2.335.3-.426.772-.876 1.047-1.001.276-.126.501-.29.501-.366 0-.248 2.309-.144 2.975.134.437.183.688.21.768.081.217-.351-.085-1.016-.559-1.232-.285-.13-1.11-.202-1.884-.209z"/></svg>