<svg xmlns="http://www.w3.org/2000/svg" xmlns:v="https://vecta.io/nano" width="1298.423" height="217.079"
    viewBox="0 0 5337 892" shape-rendering="geometricPrecision" image-rendering="optimizeQuality" fill-rule="evenodd">
    <defs>
        <linearGradient id="A" gradientUnits="userSpaceOnUse" x1="667.182" y1="458.622" x2="1902.57" y2="458.622">
            <stop offset="0" stop-color="#c1af2b" />
            <stop offset=".51" stop-color="#c1af2b" />
            <stop offset=".902" stop-color="#dda320" />
            <stop offset="1" stop-color="#f39314" />
        </linearGradient>
        <path id="B"
            d="M1867 833c5 0 3-2 4-2-9 0-4 3-4 2zm-86 9l1-1-12 3zm-80 4c7 4 29-2 43-1l2 1 7-4c-18 1-40 5-52 4zm-44-7c3 1-9 2 10 0h-10zm9 0c8-1-6-2 0 0zm-39 3l11-2c-3-1-13-1-9-2-11 1-9 2-2 4zm-11 3l6-1c-1 0-3 0-6 1zm18-3l-12 2c2 1 2 2 5 0 0 1 2 0 7-2zm7 1c6 0 14 0 3 2 22-1 18-4-3-2zm56 8h8l7-1c-3 1-16-1-15 1zm-140-8c-1 1 4 2 5 3l8-1c-4 0-12-1-13-2zm5 3l-12 3c11-1 13-2 12-3zm52 4l20-4-23 4zm-104-4l7-3-12 4zm-31 2c5-2-7-3-2-4-8 0-15 2-22 4 7-1 14-1 24 0zm-35 2c4 0 7-1 11-2-3 1-7 1-11 2zm85-1c-1 0-3-2-10-2l5 3c1-1 3-1 5-1zm-5 1h-11 11zm6-1h-1c0 1 0 1 1 0zm52 0c-7 2-22 5-7 6 5-2-4-3 7-6zm-46 3h13c0-1-3-2 1-2l-14 2zm-6 1l6-1h-5zm-63-1c-6 1-12 2-19 2h23c1-1 4-3-4-2zm28-1h-2 2zm-115 7h1v-1l-1 1zm92-4c6 0 9-1 12-2-4 1-9 1-13 2h1zm-47-1c3 0 7 0 10 1-3-1-9-2-10-1zm66-2l1-1c-2 0-1 0-1 1zm0 0c-2 0-5 1-7 1 4 0 7 0 9-1h-2zm-131 24c0-2 15-5 28-4 12-2 4-9-7-13-1 1-1 2-13 4 4 1 28 2 18 4-17 2-14 0-23-1 7 3-21 6-17 10l14-2c1 0-5 1 0 2zm45-18l6-1c-6 0-11 0-19-2-9 2-10 3-11 3h26-2zm29-2c-4 3-16 5-8 7 15-1 10-3 20-4-25 2 7-2-11-3 5 0 9-1 13-1h-13 1 0-1c0 1 0 1-1 1-7 0-1 0 1-1h1l-25 2c5 0 12 0 23-1zm127 6c-2 0-3 0 0 0zm-10-1c2 0 3-1 9-1 5 0 0 1 1 2 3-1 12-3 1-3h-2c-10 0-23-3-22-3 3 2 6 3 13 5zm-59-2l-21 3 11 2-1-2c12 0 10-1 11-3zm-115-2l3-2-12 4zm-27 2l1-2-7 1zM995 92l6-4c-3 2-4 3-6 4zm-40 22v2c2-2 2-3 0-2zM711 839c0-9 0-19-2-17l-2 3c3 6 4 10 4 14zm12-443c-1 0-1 1-2 2v6c0-2 1-5 2-8zm-7-11c2-3 4-6 7-10-2 2-5 6-7 10zm518-364l7-3c-12 1-6 2-7 3zm-163 846c-8-1-14-1-19-1 9 1 17 3 19 1zm-78-743c3-2 4-3 4-4-4 3-5 4-4 4zm36 742h5c5 0 11-1 18 0-7-2-15-2-23 0zm873-350v2c1 0 1 0 0-2zm-23 257c1-2 1-6 2-10 0 2-1 5-2 10zm-639 88h0zm29 10c-1 0-2 0-2 1 0-1 1-1 2-1zm-297 10h-1c2 1 2 1 1 0zm277-19h-7 7zm-1-1h5c1 0 0-1-5 0zm-16 1h10c-2 0-2-1-2-1-1 0-4 1-8 1zm398-730s1 0 1 1c5 2 3 1-1-1zM657 697h0zm-3-21c3 9 3 14 3 21l7-8c-4-4-7-8-10-13z" />
        <path id="C"
            d="M1668 184l-2-3c7 5 4 4 2 3zm-471 682c2 0 1-1 1-1-2 1-6 1-11 1 1 1 4 1 10 0zm-20 0c-10-1-6-1 0 0zM705 423c0-3 3-7 6-12-2 4-3 8-6 12zm195-269c2-2 4-4 6-7 2-2 5-3 7-4-2 6-6 7-13 11zm196-105l-15 3c16-10 30-12 15-11 0 4-14 9-27 14-14 5-28 11-27 15-3 1-6 2-10 2l6-2c-10 2-12 5-16 8-3 4-6 7-18 12-7 4-13 5-9 2-5 3-10 7-15 11-5 2-5 0 0-2-8 5-17 10-25 15l-13 13c-7 3 3-3 1-3-5 4-9 7-13 11-6 2 3-8 13-13-17 1-10 9-39 24 4-4 8-7 12-10-11 2-20 11-35 19 4-1 32-16 19-3-4 2-10 6-16 13-2-2-9 5-17 12l-2-3c-9 9-7 10-11 16-10 10-14 10-19 10-16 16 14-8-3 12-14 12-22 23-34 41-9 10-1-3-4 0l-5 11c-2 2-2 1-2 0-5 9 2 3-6 16 0 3-5 8-12 15s-14 16-17 25c-4 4-1-3-3-2-6 11-8 17-10 21-1 5-3 9-6 19l-10 15c4-5 5-3 4 1 0 3-1 6-2 9 0 3-1 7-2 11 3-4 6-7 7-9l-7 22c-2 2-2 0-2-5-1 2-1 3-1 5-5 7-5 2-5-4 2-3 4-5 6-7 0-6 0-12-2-12-1 1-1 4-3 7 1-1 0-3 0-2-1 0-1 3-2 7l-6 3 1 2c-5 9-9 18-14 28-2 11-3 22-4 34l-3 19c-1 7-2 14-4 23-1-9-4-3-8-4 3-5 5-11 6-19s2-17 6-25c-4 9-5 6-4 4-3 10-4 21-6 32-3-2-4 6-7 14 4-2 3 4 2 12-2 8-3 19-4 26-2 0-3-3 0-19-4 8-3 14-2 20s1 12-1 20c0-3 1-5 0-7 0 9-4 31-5 26l1-4c-2 6-2 15-3 23 0 5 0 9-1 14v13c1 8 1 16 2 22 0 6 1 10 3 11-1 0-6-3-8-5 6 16 13 31 20 45-5-3-14 13-18-8 0 6 0 14 2 27 1-5 6-11 7-6-3 17-2 11-3 32 0-7 8-1 9 9-1-1-6 2-8-2l12 24c-3-6-6 0-7 6 1-3 5 21 7 27l-1-11c3 14 7 20 11 26 5 6 9 12 14 25-2-1-4-3-6-2-1 1-2 1-2 3 0 3 0 6 2 11 1 1 1 2 3 3 0 1 1 1 1 2 1 0 1 0 1 1 1 0 1 1 2 0 5-1 11-3 16-4 10-4 22-6 34-7l5 3 19-1c-6 2-18 5-30 8-6 1-12 3-18 4-3 1-6 1-9 2-4 0-8 0-11 1 14 2 7 3 22 4 3 1 1 1-3 1-4 1-7 1-12 0l38 5c-1-5 28-2 27-6l-40 1c-1-4 24-9 50-7 6 2-6 7-5 9 3-2 24-2 26 0l-11 1c15 2 24-4 41 1 6 1 18 6 19 4-10-5-11-19-4-23 2 1 31 6 37 8 10 4-15 8-7 12 1-1 6-2 9-3 6 1-3 4 11 4 2-4 27 1 6-4 13 0 14 2 30 2-5-3 14-9 27-10-1 1 2 3 4 3 27 1 41 3 67 3 2 1 14 2 9 4 4-1 7-2 15-2 15 3-17 0-6 5 1-3 20-4 31-5-3-4-25-1-36 1-1-5 19-11 45-13 21-2 9 3 13 2 40 0 33-9 66-7 13 3 1 7 4 9-17 2-26-1-38-1l14 1c-5 1-16 3-23 2 11 2 67-1 98 0 5-1 14-2 10-4l-10 1c-9-2 18-4 6-5 13-2 27-5 45-5l4 4c0-1-12-2-17 0 7-2 28 3 36-2l-13-2c13-2 29-7 45-6-7-4-4 0-15-3 10 4-41 1-25 6-12-4-21-1-36-5 0 1 5 2-8 2-1 0-2 1-3 1h-1 1c-1 0-1 1 0 0 3 1 6 1 7 2-7 3-28 4-35 5-8 0 3-1-1-2l-11 2c-1-2-22-4-3-6l-17 1c-10-2-24-2-32-1-8 0-20 4-13 2l-27 2v-1c-27 0-54 5-84 0-9 1-18 2-33 1l-3-2c-12 0-34-3-39-1-6-3-20-4-35-4-14 0-30 0-40-1l-1 3h-44l1 3c-15 1-38-4-61-5 2-1 8 0 12 0-14-3-29-4-43-3-7 0-14 0-21-1h-8c-2-1-3-1-4-2-1 0-1-1-2-2v-3-1c-1-3-1-6-2-9 1 3 1 5 1 8-1-5-4-12-7-18l2-4v-1c-1-7-3-5-4-1-2-4-3-7-4-9 3-7-7-18-4-26-1-2-4-11-6-19-3-9-5-17-8-19 1 0 1-2 1 2 0-8-1-16-3-23l3-4c-2-6-4-11-6-17 1-11 2-15 5-5-6-25-3-20-7-41l2 1c0-8-3-20-1-25 2-9 3-30 6-54 2-12 3-26 6-38 2-6 3-13 4-18 2-6 4-12 5-17-4 3-2-2 0-8 3-6 6-13 4-14 2-2 5-8 4-1 1-5 3-10 4-14s3-8 4-11c3-7 5-14 5-22 3-2 1 6 3 4 0-2 1-7 3-9s0 3-1 7c8-21 4-25 1-29 7-10 9-15 9-24 2-2 4-4 5-4s0 2-3 9c2-4 8-15 13-25s11-19 9-20c2-2 6-10 7-12 10-15 11-16 20-31l-3 4c0-9 8-13 16-25v1c11-12 13-15 15-18s4-6 16-17l-3-1c-2-3 3-8 11-14 7-5 16-12 22-19l-6 3c3-4 10-8 17-11 3-1 6-3 10-4 3-2 6-3 8-5 2-1-2 3-4 6 22-15 0-6 14-19 4-1 0 7 10-2 4-1 10-8 18-16s18-16 27-19c-5 0-9 1-2-5 6-4 15-8 24-12 8-4 16-8 21-13 2-1 2-1 3-1 4-3 12-7 19-12 7-4 14-8 16-11 4 2 9 0 15-2 7-3 14-6 21-10l19-8c5-2 9-2 10 0l8-3 8-2 16-5-1 1c21-5 28-8 35-12 5 0 1 1 1 2 16-2 24-3 32-5 8-1 15-4 28-7l3 2c3-1 15-1 29-1 14 1 31 1 47 0-1 0-1 1-4 1 9 0 18 0 28 1 9 2 19 3 28 5 8 1 17 3 23 3 7 1 13 1 16-2 8 1 15 1 23 2-29-7 5-3-6-8 11 2 29 10 15 8l-3-2c-3 3 6 5 16 8 9 3 19 6 18 7 28 8 55 19 80 32 12 5 24 13 37 19l35 22-3-8 16 11c3 3 3 6-8-1 2 3 7 5 12 7 4 2 8 4 9 3 20 17-12-1-5 3l9 6-2-1c9 3 11 2 23 12 8 7 3 6 6 8 0 1 1 2 5 4l17 16-5-9c5 3 9 7 11 9 3 2 3 1 0-4 4 8 21 23 35 39 15 16 28 32 31 36 5 5 10 11 15 17s10 13 15 20c-2-4 0-9 8 5-10 0 13 26 13 40-1-6 5 4 10 13s10 17 9 8c5 12-3 2 0 11 17 27 26 64 37 100 1 1 1-6 5 1v21c2 8 7 6 7 20 0-2 1-5 3 0 5 37 10 75 11 114 1 38-2 78-13 114 3-10 2-3 1 5 1-5 3 1 4 0-3 10-7 20-10 30 2 7-9 33-6 38l2-10c1 14 15-16 20-13-1-8 3-17 7-28s8-24 6-37c2-5 1 5 3 2-2-6-1-14 1-28l1 1c3-40 6-58 5-104l-2 4c-1-10 0-12 1-17-6-11 1 28-4 18 1-3 1-9 1-17v-11c-1-4-1-9-2-13-1-8-2-16-2-23-1-7-1-12 0-14-2-15-2 4-5-10l1-5-3-3c-2-10-1-15 1-16 0 3 2 7 2 9 0-6-2-15-5-23-2-8-5-14-5-16l3 14c-6-20-13-42-21-63-4-11-9-21-14-31-2-5-4-10-7-15-2-4-5-9-8-13v3c-8-13-10-18-13-24-1-3-3-6-5-10s-5-10-10-16h1c-5-4-10-12-15-19 6 6-6-15 1-7-21-25-11-12-28-26l-1-6c-6-4-7-4-19-16 11 9-4-11 8-1-5-7-10-13-14-18-5-5-10-9-14-12-8-8-14-13-18-21-15-6 20 24 12 18 2 4-1 2-5-1-5-3-11-9-15-12-4-4-6-9-10-15s-9-14-20-22c2 2 3 1 5 3-8-8-18-11-27-21-8-1-13-10-18-7 8 4 15 9 22 14-6-4-13-7-20-10-8-4-16-9-25-16 2 0 8 3 13 5-5-5-12-7-17-12 4-3 27 16 41 22-5-6-26-14-17-14-13 0-22-16-42-21l3-2c-3-1-9-3-14-5 4 0 7 1 11 1-8-2-14-6-20-10-7-4-13-9-20-11 28 14 5 6 16 14-18-8-22-11-27-16-5-4-10-9-30-17 5 2 20 10 11 8-8-4-18-9-22-12-27-8 3 4-9 2-8-6-13-3-26-6l1-3c-15-5-18-4-20-3s-3 1-17-3c4 0 8-1 13-1-5-1-10-1-15-2l3-3c-8-1-13-1-19-2-5-2-10-3-18-5 3 3-3 5-17 3-10-3 6-2-15-4 5-2 11-3 19 1 1-1 5-1 6-2-5-2-12-3-18-4-6 0-12-1-16-1 3 0 6 1 8 1-5 0-10 0-15 1h-15c-4-1-1-2 3-2-6 0-10 1-19 0 2-2 2-4 15-4h-15l-14 1c-2-1-14-3-11-4-7-1-17 0-27 2-11 1-21 3-32 3-1 0-3 1-7 1-20 2-38 1-60 9-4-1-9-2-14-2-17 5 19 1-10 10-21 6-9-2-16-2-10 6-27 14-46 18 6-3 11-4 16-7z" />
        <path id="D"
            d="M717 387c0-1 1-1 2-1 0-2-1-2-2 1zm515-365h1c0-1 1-1 1-1l-2 1zM893 891l-7-2c-1 1 1 1 7 2zm407-33l-12 1h11s-3-1 1-1zm110 13c1-1 3-1 5-1v-1c-8 0-14 1-5 2zm-98-4c1 2 9 1 18 0h-2c3-3-7-2-16 0zm20 0h8c1-2-3-1-8 0zm-111-3c5 0 3-3 5-2 5-4-27 4-5 2zm98 10l-3-2-5 2zm-69 1h14s2 0 4-1c-9 0-18 0-18 1zm18-1c4 0 9 0 11-1-2 0-8 1-11 1zm32 2h-14zm-201 2l-15 1c-2 1 2 2 8 1 4 0 10-1 7-2zm47 8c-4-1-5-1-7-2l-1 3 8-1zm-45 1c-2 1-22 4-3 3 2-1 17-2 3-3zm-231-7h4v-6zm-192-45c4 18 4 3 8 20 3 4-3-14 0-10-5-10-6-16-8-10z" />
    </defs>
    <g fill="#14693c" fill-rule="nonzero">
        <path
            d="M2601 853c3 0 2-3 3-3-7 0-3 3-3 3zm-64 5l1-1-9 3zm-59 0c5 5 21 0 32 1l2 1 4-3c-13 0-29 2-38 1zm-32-9c2 2-7 2 7 1 0-1 0-1-1-1h-6zm6 0c6 0-4-1 0 0zm-29 1l9-1c-2-1-10-2-7-2-8 1-7 2-2 3zm-8 3h5c-1-1-2-1-5 0zm14-2l-9 2c1 0 1 2 4-1-1 1 1 0 5-1zm5 1c5 1 10 1 2 3 16-1 14-4-2-3zm41 11l6 1 5-1c-2 0-12-2-11 0zm-103-15c-1 1 3 2 3 3l6-1c-3 0-9-1-9-2zm3 4l-9 1c8 0 10-1 9-1zm39 6l15-3-18 3zm-77-10l5-2-9 3zm-23 0c4-2-5-3-1-4-6 0-12 2-16 3 5 0 10 0 17 1zm-25 1c2 0 5-1 8-2-3 1-6 1-8 2zm62 4c-1-1-2-2-7-3l3 3h4zm-4 0c-4 0-6-1-8-1 1 0 4 1 8 1zm5 0h-1 1zm38 3c-5 1-16 3-6 5 4-2-2-3 6-5zm-34 0h10s-2-1 1-2l-11 2zm-5 1l5-1h-3zm-46-5c-4 1-9 1-14 1 6 1 11 1 17 1 1-1 3-2-3-2zm21 0c-1 0-1 0-1 1 0 0 1 0 1-1zm-86 1h1-1zm69 1c4 1 6 0 9-1-3 1-7 1-10 1h1zm-35-4c3 1 5 1 8 2-3-1-7-2-8-2zm49 2h1c-1-1-1-1-1 0zm0 0c-2 0-4 1-5 1h7c-1-1-1-1-2-1zm-98 17c1-2 12-4 21-2 9-1 3-9-5-14 0 2 0 2-10 4 4 1 22 3 14 5-13 1-11-1-17-2 5 3-16 4-13 9l11-2c0 1-4 2-1 2zm34-15l4-1c-4 0-7-1-13-3-7 1-8 2-9 3h20l-2 1zm22-1c-3 3-13 4-7 7 12 0 8-2 15-3-18 0 6-2-8-3 4-1 7-1 10-1-3 0-6-1-9-1 1 0 1 1 0 0 0 1-1 1-1 1-5 0-1 0 1-1l-19 1c4 1 9 1 18 0zm94 13h0zm-8-1c1-1 2-2 7-1 4 0 0 1 0 2 3-1 9-2 1-3h-1c-8-1-18-4-16-4 2 2 4 4 9 6zm-44-5l-15 1 8 2-1-1c9 0 7-1 8-2zm-84-8l2-3-9 4zm-21 0l1-2-5 1zm-1138 29l-4 1c2 0 3 0 4-1zm33 1l1-2c-1 1-2 2-1 2zm610-30c-7-2-14-5-13-3l2 3c5-1 8 0 11 0zm-339 16s1 0 2 1c1-1 3-2 4-3-2 1-4 1-6 2zm-5 11l-9-2c2 0 5 1 9 2zm-479 5l-5 3c8 0 4-2 5-3zm1112-31c-6-1-10-1-14-2 6 2 12 4 14 2zm-919 1c-3 0-4 1-4 1 3 0 5 0 4-1zm888-3c1 1 2 1 3 1 4 0 8-1 14-1-6-1-11-1-17 0zM246 882h-2 2zM55 856h8c-1-1-4-1-8 0zm2082-5h0zm21 10c-1 0-1 1-2 1 1 0 1-1 2-1zm-220 7h0zm206-16c-2 0-4 0-6-1 1 1 3 1 6 1zm-1-1h4s0-1-4 0zm-12 0h7-7zM596 875h-1c-4 1-2 1 1 0zm1016 4zm-16 2c7-3 11-3 16-2l-5-7-11 9z" />
        <path
            d="M551 856h2c-6 1-4 1-2 0zm1554-1c1-1 1-1 1-2-1 1-5 1-8 1 1 1 3 1 7 1zm-15-2c-7-1-4 0 0 0zm-682 20c-3 1-6 1-10 0h10zm-246 7c-3 1-9 3-11 1 3-3 6-2 11-1zm-161 2l11 2c-13 4-22 3-12 6 1-8 42-1 43-9l7 2h-4c14 4 10-6 28-4 6 0 10 1 6 2l14-2c4 1 3 2-1 2l21-1c3-1 10-3 13-4 6 1-2 1-1 2l12-2c4 2-5 4-13 4 11 8 9-2 33 3l-11 1c7 4 16 3 28 6-3-2-25-8-12-10 3 1 8 1 15 0 0 3 7 2 15 2l-1 3c9-1 9-3 14-4 10 0 12 3 15 6 16 0-12-5 8-6 13 2 22 0 38-2 10 1-1 2 2 3l9-3c2 0 1 1 1 2 7-2 0-4 11-5 3-5 23 6 36 1 4 1-1 2 0 4 19-3 16-2 31-7l13 3c-9-3 3-6 14-9-4-2-6-3-8-3l17-2c2 0 0 2-3 3 1 0 3-1 3-1 7 2 3 4-1 6-2-1-4-2-6-2-4 2-8 4-8 7 2-1 4-1 6-1-1 0-2 1-1 1 0 1 2 0 5-1l4 4 1-2 22 3c16-4 30-11 56-12-6 3-1 5-2 9-7-4-20 1-33 0 7 1 6 3 4 3l23-3c0 3 5 2 12 3-5-6 17-4 27-6 0 2-2 4-14 4 13 4 17-7 30-3-3 0-5-1-6 0 7-1 23 0 19 2h-2c19 1 57 0 60-5 0 1-2 6-3 7l34-17c-3 4 8 15-8 17 5 1 10 1 20 0-3-1-8-6-4-7 12 5 8 3 23 7-5-1 0-8 8-8-2 1 0 7-3 8l19-7c-5 1-1 6 3 8-2-2 16 0 21-1l-8-1c20 1 20-10 40-9-2 1-6 8 5 9 5-3 21-17 39-19l3 2 14-3c-9 6-33 17-46 21 8 1 2 2 14 2 4 2-7 3-10 3l27 1c-1-4 20-4 19-7l-29 4c-1-4 17-12 36-11 5 2-4 7-3 9 2-2 18-3 20-2l-8 2c10 2 17-5 30-1 4 0 13 5 13 2-7-4-8-18-3-22 1 1 23 5 28 7 7 3-11 8-5 11 0-1 4-2 6-2 4 1-2 3 8 3 2-5 20 0 5-4 9-1 10 1 22 1-4-3 10-9 20-10-1 1 1 2 2 3 20 0 31 2 50 2 2 1 11 2 7 4 3-1 5-2 11-2 11 3-13 0-5 4 1-2 15-3 24-4-3-4-19-1-28 0 0-5 15-10 34-12 16-2 7 3 10 2 29 1 25-9 49-5 9 3 0 7 2 9-12 1-19-2-28-2l11 1c-4 2-13 2-17 1 8 3 49 1 72 4 4-1 11-3 7-4l-7 1c-6-3 14-4 5-5 9-2 20-5 33-3l3 3c0-1-9-2-13-1 6-1 21 5 27 0l-9-2c9-2 21-6 33-5-5-3-3 1-11-4 7 6-31 0-19 6-9-5-15-2-26-7 0 2 4 3-6 2-1 0-2 1-3 1h1c2 1 4 1 5 2-5 3-21 3-27 4-6 0 3-1 0-2l-8 2c-1-3-16-5-2-6h-13c-7-2-17-3-24-1-6-1-15 3-10 0l-19 2-1-1c-19 0-40 5-62 0-7 1-13 2-24 1l-2-3c-9 1-26-2-29 1-9-7-41-2-56-3l-1 3c-10 0-20 1-32 2l1 3c-11 2-29-2-46-2 1-1 6-1 9 0-21-6-44 4-62 0-5 1-8 1-12 0h0c-2-1-5-1-7-2 2 1 4 2 6 2-4 0-10 0-15 1l-2-3h-1c-6-1-5 1-2 4-2 0-5 1-7 1-4-4-14 2-20-3-3 2-27 2-29 7-1-1-2-1 1-1-6-1-12-1-18 0l-2-4-13 5c-8-2-11-3-3-6-19 4-16 2-32 6l1-2c-6 0-15 3-19 1-12-5-63-1-96-5 6 7-16-3-17 2-2-1-7-2-1-4-17 2-26-2-37 2-2-1 3-2 2-3-2 0-6 1-8 0-1-1 3-1 6-2-18 0-19 6-21 10-8-2-13-2-19 2-3-2-8-4 3-4-6 0-37-3-38 1-2-1-8 0-10 0h-28l4 1c-5 4-11 1-22 1-24-3-10 2-34-2l1 3c-2 6-22-4-36-2l5 2c-7 2-21-8-29-9-1-1 3-1 5-1-20-4-2 3-17 4-3-2 3-5-7-5-5-2-29 6-43 2 3 2 6 4-1 5-11 0-29-6-39-1-1-1-2-1-2-2-8 2-26 3-31 5-8-10-51 5-51-4h-25l1-1c-17 0-22 2-28 4-4 0-1-1-1-2-23-2-25-1-45 3l-2-3c-6 2-34-4-57-1 0 0 0-1 2-1-26 3-62-8-71 3l-18 2c23 1-3 5 6 7-8 0-22-4-12-4h2c4-5-27-2-27-5-43 0-86-3-127-4l5 5h-14c-4-1-5-4 5-4-5-2-17 2-17 3-20-1 7-5 1-5h-8l2 1c-7 2-8 4-20 3-7 0-4-2-7-2 0-1-1-1-4-1h-18l7 4c-8 1-17-1-9 3-12-6-67-2-74-4-11 3-22 3-36 2 3 1 5 5-6 5 4-8-22-4-31-10 8 4-34 1-20 7-10-1-1-3-8-5-24 3-52-2-81-1 0 1 5 2-2 4l-15-5c-5 0-5 6-15 2 1 1 3 2-1 3-56-5-115 4-172-6 7 2 2 3-4 3 4 0 0 2 1 4l-24-4c-5 4-26 0-28 4l7-1c-10 5 14 10 13 16 11-5 30 7 48 0 4 1-3 2-1 3 5-2 10-3 21-2l-1 1c29-1 42 2 75 3l-2-3c7 1 9 2 12 2 8-4-20 0-13-5 10 6 51 1 57 7 11 0-3-3 8-3l3 2 3-3c7 1 11 3 11 4-2 0-5 1-7 1 9 2 26-1 30 0l-11-1c30-2 67 1 96-3l-3-1c23-3 18 1 43 0h-1c4-1 11-2 18-2-6 2 11 3 3 5 24-2 12-2 28-7l4 2c5-2 5-3 18-3-10 2 7 3-4 6 26 4 38-5 50 2 11-6-22-4-16-5-5-2 10-5 18-4 8 0 14 8 34 8h-4c8 2 15-2 24 1 6-4 13 0 14-5l-19 1c11-1 21-7 39-4-2 1-7 2-11 3 5 1 10-1 16 1-2 4-23 1-35 4 6 2 22-3 16 2 8-7 20 1 34-4l-1 3c2-1 7-2 11-2l-7 4c11-4 21 2 32 1-22 0-5-4-14-6 27-4 16 8 47 6-4 1-16-2-10-3 6 1 14 2 18 3 21 0-3-3 5-4 8 3 11-2 20-3v3c23 2 6-6 27-4l-9 4 11-1-2 4c12-3 16-2 27-1-2-2 2-6 12-6 8 2-4 3 11 3-3 1-7 4-13 1-1 1-3 2-4 3 7 2 19 0 24 0h-5l21-4c3 1 1 1-2 2 4 0 7-1 14-2-2 3-1 5-11 6l21-2c1 1 10 3 8 3 11 2 27-4 42-2 1-1 3-1 6-2 14 1 27 4 43 1l10 4c13-1-13-5 9-7 15-1 5 4 11 5 7-2 21-7 35-3h-13z" />
        <path
            d="M1380 877c-1 0-1-1-2-1s-1 1 2 1zm-479 7h-1 1zm980-5c-3 0-5-1-6-2 0 1 1 2 6 2zm301-29h-10c5 0 6 1 9 1-1 0-2-1 1-1zm80 17h4v-1c-6 0-10 1-4 1zm-72-8c1 3 7 2 13 1h-1c2-3-5-2-12-1zm15 1h6c0-1-3 0-6 0zm-82-7c3 1 2-3 4-2 3-3-21 4-4 2zm72 14l-2-3-4 3zm-51-2l11 1c-1-1 1-1 2-1-6 0-13-1-13 0zm13 0c4 0 7 0 9-1-2 0-6 0-9 1zm24 3l-3-1h-7zm-148-4l-12 1c-1 1 2 2 6 2 3-1 7-2 6-3zm34 9c-3-1-3-2-5-3v4l5-1zm-33 0c-1 2-17 3-2 3 1-1 12-2 2-3zm-171-4h3v-6zm-150 14c13 2 3-3 15-2 3-1-10-1-7-2-8 1-12 0-8 4zm8-4c2-1 3-1 5-1-3 0-4 0-5 1zM24 853l-9-2 6 2zm-17 4l-2-4-5 4c2 0 6-1 7 0zm1179 31l1-1c-1-1-3-1-7-1l6 2zm-117-3h2l-3-3zm-98 5c4 0 9-1 13-1-9 1-14-4-13 1z" />
    </g>
    <path
        d="M667 653c0 75 14 147 38 214 389 37 777-7 1166-19 20-61 32-127 32-195 0-341-277-617-618-617S667 312 667 653z"
        fill="url(#A)" />
    <g fill-rule="nonzero">
        <g fill="#009846">
            <use href="#B" />
            <use href="#C" />
            <use href="#D" />
            <path
                d="M686 845c0 2 1 4 2 5-1-3-2-4-2-5zm1180-32c-1 4-2 7-4 11 1-2 3-5 4-7v-4zm-2 22l-4 2 1 8c1-3 2-8 3-10zM870 169l-1 1c2-1 5-2 9-6l-8 5zm137-87l-2 1h6zm128-51c-6 1-12 4-17 5 5-2 10-2 13-2 4-1 5-1 4-3z" />
        </g>
        <g fill="#fefefe">
            <path d="M1344 736l11-59 84 13 12 63s-89 32-107-17z" />
            <path
                d="M1585 777c-46-7-80-19-107-41-4-3-7-6-9-9-3-4-8-4-12-1-14 11-32 21-52 21-28 0-45-10-54-18-5-4-12-2-13 4-3 11-4 23-5 35v61c0 10 7 19 17 19h39c7 0 13-5 16-13l4-9 12 14c3 5 9 8 14 8h172c10 0 18-10 17-21-2-22-9-46-39-50z" />
            <path
                d="M1607 848h-172c-5 0-11-3-14-8l-12-14-4 9c-3 8-9 13-16 13h-39c-10 0-17-9-17-19v-9l290 1c1 2 1 4 1 6 1 11-7 21-17 21zM1499 71l-6 122c-7 165-18 330-36 496-1 7-4 14-9 19-29 28-75 25-100-6-5-5-7-12-8-19-2-162-11-325-23-487l-14-169 196 44zM974 674l32-51 74 43-12 63s-95-2-94-55z" />
            <path
                d="M1184 800c-41-23-68-47-85-77-3-4-4-8-6-12-1-4-6-7-10-5-17 6-37 8-56 1-27-11-39-26-44-37-3-5-10-6-14-1-6 9-12 20-17 31l-22 56c-4 10 0 21 8 24l37 15c7 2 14 0 19-7l8-6 6 17c1 6 5 10 10 12l161 63c9 4 20-2 23-13 6-21 7-46-18-61z" />
            <path
                d="M1179 874l-161-63c-5-2-9-6-10-12l-6-17-8 6c-5 7-12 9-19 7l-37-15c-8-3-12-14-8-24 1-2 2-5 3-7 106 44 229 90 270 106 0 2-1 4-1 6-3 11-14 17-23 13zm85-833c-4 51-8 101-15 152-2 21-5 42-9 64-3 21-8 45-14 66-11 41-24 80-38 119-27 77-56 153-92 228-3 7-8 12-15 15-37 18-79-4-92-40-3-6-3-13-1-19 24-72 43-148 59-224 8-38 16-76 21-112l3-26c0-8 1-17 1-26 1-18 1-37 1-56 0-36-1-74-3-112l194-29z" />
        </g>
        <g fill="#14693c">
            <use href="#B" />
            <use href="#C" />
            <use href="#D" />
            <path
                d="M686 845c0 2 1 4 2 5-1-3-2-4-2-5zm1180-32c-1 4-2 7-4 11 1-2 3-5 4-7v-4zm-2 22l-4 2 1 8c1-3 2-8 3-10zM870 169l-1 1c2-1 5-2 9-6l-8 5zm137-87l-2 1h6zm128-51c-6 1-12 4-17 5 5-2 10-2 13-2 4-1 5-1 4-3zm421 254h0zm5-1h1zm5 0c-1-1-2 0-3 0h3zm2 2c0-1 1-1-1 0h1zm0 0c-1 0 0 0 0 0zm2-1l-1 1h1v-1zm0 0zm-1 0h1s0-1 0 0h-1zm0 0s-1 0 0-1c-1 1-1 1 0 1zm-3-2h-1 1zm8 3s0-1-1-1c0 0 1 0 1 1zm-1-1h0zm-3-1h-1 2zm6 2l1-1zm2 0h0 2-2zm2-1h0zm-5 0h1-1zm1 0zm-1 0zm-3-1c1 0 2 0 1-1-1 1 0 1-1 1zm3 0h-1 1zm0 0zm4 1h1l-1-1c0 1-1 1 0 1zm-2 0zm7-1zm-5 0c-1 0-1 0-1 1 0-1 0-1 1-1zm2 1zm-4 0h0zm0 0h0zm8-4c0 1-1 1-2 1 0 0 0 1 1 2 0-1-1-1-1-1 1-1 1 0 2 0-1-1 1-1 1-2l-1 1v-1zm-3 3l1 1c1 0 1 0 1-1h-2zm-1 0s1 0 0-1c-1 0 0 1-1 1h1c-1 0-1 1-1 1h1v-1 1l1-1h-1zm-8-2h0zm1 0v1c-1-1 0-1 0-1-1 0-1 1-1 1h1s1 0 1 1c0-1-1-1-1-2zm3 1h2-2zm7 2v-1zm2 0h-1 1zm87-8v-1 1zm-3 0zm-46 7s1 1 1 0h-1zm25-4zm1-2zm37-2v-1c-1 0 0 0 0 1zm-86 8h0zm71-2zm-68 2h-1-1c1 0 1 1 2 0zm133-9zm15 5h-1 1zm-160 5c-1 0 0 0 0 0zm-2-2v-1 1zm17-2zm-16 3l1 1-1-1zm0 1zm1 0zm118-8zm-78 1zm1 0h-1v2l1-2z" />
            <path
                d="M1714 281h-1c1-1 1-1 1 0zm-120 3h0zm1 0h0zm53-5zm18-2c1 0 1-1 1 0h-1zm13-1h-1c1-1 2-1 1-1 0 1-3 0-3 1h-1c-1-1 0 1-2 1 0 0-1 0 0 0h-1c-1 0-1 0 0 0h-2s-1 0-1 1v-1l-1 1c0-1 1-1 1-1-1-2 0 0-2-1h1c-1-1-2 0-3-1 1 0 2 1 1 2h-1c0-1 0 0-1 0v-1c-1 0-1 1-1 1-1 0-1-1-1-1-1 0 1 1-1 1h-3c-1 0-1 0 0 0-1 0-1 1-1 1-1 1-2-1-3 0v-1c-2 1-1 1-3 1h-1c1 1 0 1-1 2h1l-1 1v-1c-1 0 0 0 0-1v1c1-1 1-1 1-2h-1 1-1l-2-1c-1 1-2 3-4 3v-2c0 1 1 0 2 0v-1l-2 1h-1c1 1-1 0-2 1 0-1 1-1 1-1-1-1-1 1-2 1h1c-1 0-2 0-2-1-1 0-4 0-4 1v-1l-3 3c1 0 0-2 1-3h-2c1 0 1 1 1 1-1-1-1 0-2-1 0 0 0 2-1 2 0-1 0-2 1-2l-2 2v-2h-2 1c-2 0-2 2-3 2 0 0 0-1-1-2 0 1-1 4-2 4h-2l4-4h-1c-1 0 0-1 0-1h-2c0 1-1 1-1 2l2-1c0 1-1 2-3 2 0 0 1-1 0-2 0 1-1 1-1 1l1-1c-1 0-2 1-3 1l-1-1c1 1 1 4 1 4s-2 0-3-1c0-1 1-2 1-2h-1c0 1-2 0-1 1 0 0 0-1-1-1 0 1-1 2-2 3v-1h-4c0-1-1-1 0-1h-1c-1 0 1 0 0-1 0 1-1 1-2 1 0 1 2 0 2 0 0 1-1 2-2 3-1 0-1-1-1-1-2 0-2 2-4 1v-1c1-1 2 0 2 0h-1c1-1 1-1 2-1h-6s-1 0 0 1c1 0-1 0 0 0-1 1-2 1-3 1v-1c0 1 1 1 1 1s-2-1-2 0h1c-1 1-2 1-3 1l1 1c0-1 2 0 2-1 0 1 1 0 2 1 0 0-1 0 0 0v-1c0-1 1-1 2-1v1-1c1 1 2 1 1 1h1c0 1 1 1 1 1 1 0 2-1 1-1h2c1 0 3-1 4 0h3s1 1 2 0c0 2 3 1 4 1v-1h3l-1-1h4c0 1 0 1-1 0 2 2 4-1 5 0h1l1 1-1-1h1v1c1 0 1-1 1-1s1-1 2 0c0 0 2 0 2-1h1v1l1-1c1 0 1 0 1 1 1-1 1-1 2-1 0 0 1-1 1 0 1 1 5 0 8 1-1-2 1 0 1-1 0 0 1 1 0 1 1 0 2 0 3-1v1h0c1 0 1-1 2-2 0 1 1 1 1 0 0 0 1 1 0 1 0 0 3 0 3-1 0 1 0 0 1 0h2-1c1-1 1 0 2 0 2 1 1 0 3 0 0-1 1 0 2 0 0-1 2 1 2 1v1c1 0 0-1 1-1 0 0 0 1 1 1 0 0 2-2 3-1 0 0-1 0 0-1 1 0 2 1 3 0v1c1-1 2-1 3-1 0 2 3-1 3 0h2v1c2 0 2-1 2-1h0c2 0 2 0 4-1v1c1 0 3 1 5 0h-1c2 0 5 2 6 0l1-1c-2 0 0-1 0-1s1 0 1 1h-1c0 1 3 0 3 1 3-1 6 0 9 0v-1h1v1l1-1c2 0-1 1 0 1s1-1 2-1v1h2v-1s1 0 0-1c1 2 5 1 6 1h3c-1 0-1-1 0-1 0 1 2 0 3 2-1-1 2-1 1-2 1 0 0 1 1 1s4 1 6 0v-1l1 1c1 0 1-1 1 0v-1c5 1 9-1 14 1-1 0-1 0 0 0v-1l2 1c0-1 2 0 2-1h-1c1-1-1-2-1-3-1 1-2-2-3 0-1 0 0 0 0-1-1 1-1 1-2 1-2 0-3-1-6-1h0c-1 1 1 0 1 1-1-1-4 0-5-1-1 0 0 1 0 1l-1-1v1l-1-1h1c-1-1-2 0-3 0h1c-2 0-5 0-7 1s-1 0-3 0h-1s-1 0-1-1c-2 1-1 1-2 2h-1s-1 0 0-1c-2-1-3 1-4 0-1 1 2 0 1 1 1 0-1 1-1 1-1-1-1-2-3-2h1-2c-1 1-1 0-1 1h1c-1 0-2 1-3 0h1-1c0-1 1 0 2-1 0-1-1 1-1-1 0 2-1 0-2 1h-1v-1c-1 1-1 0-2 0 2 0 0 1 1 1-2 1-1-1-4-1 1 0 2 1 1 1 0 0-1 0-1-1-2 0 0 1-1 1 0-1-1 0-1 1v-1c-2 0-1 1-2 1v-1h-2l-1 1c-1 0 0-1-1 0 0-1 0-1 1-1 0-1-1 0-2 0h1l-2 1v-1h-1s0-1 1-1l-2 1v-1c-1 0-2 1-3 1h-1c-1 0-2-1-3 0l-1-1c-1 0 1 1-1 2-1 0 0-1-1-1 0 0-1 1-2 0h1zm-29 2zm36-2h1-1zm-75 3h0zm-23 6h0 0zm-6-3h0z" />
            <path
                d="M1588 283h-1c0 1 0 0 1 0zm-1 0h-1 1zm6 1v1c-1 0 1-1 0-1zm-6-2h1zm4 0h-1 1zm-1 0h-1 1zm-2-1h1zm12 1h1c0-1-1-1-1-1v1zm-3-2v1-1zm3 0s1-1 0-1c0 1-1 1 0 1zm13 1h-1l1 1zm11-4c-1 0 0 1-1 1h1v-1zm0 1h-1 1zm130 2h1-1zm1-1v1l1-1h-1zm-90-4l-1 1h1v-1zm9 1h-1 1zm7-1h-1c1 0 1 1 1 0zm-65 412c-1 0-1 1-1 1 1 0 1-1 1-1zm7-2l1-1zm6 0c0-2-2 0-3-1l-1 1c1 0 3-1 4 0zm4 3h-1 1zm-1 0s1 1 0 0zm3 0c0 1 1 1 0 1 1 0 1-1 0-1zm1-2h0zm-1 1h1c0-1 0-1-1 0 0-1 0 0 0 0zm-1 0s-1-1 0-1c-2 0-1 1 0 1zm-4-4l-1-1-1 1h2zm11 5v-1h-1c0 1 1 1 1 1zm0-1l1-1c-1 0-1 1-1 1zm-5-2l-1 1 2-2zm9 3l-1 1 1-1zm3 0c-1 1 0 1 0 2l2-2c-1 1-2 1-2 0zm2 0zm-7-2c1 1 1 1 1 2v-2h-1zm1 0c0 1 1 1 1 1s-1 0-1-1zm-1 0zm-4-1c1 0 2-1 1-2-1 1 0 1-1 2zm4 0h-1v1l1-1zm0 0zm6 2c0-1 1-1 1-1h-2s0 1 1 1zm-3 0v-1 1zm10-1zm-8 0h-1 1zm4 1h-1 1zm-5 0h-1 1zm0 0v-1h-1c0 1 1 1 1 1zm10-8c0 1-1 2-2 1-1 1 0 4 1 6 0-1 0-1 1-2-1 0-3-1-2-2 2 0 1 1 2 1-1-1 2-2 1-3h-1s1 0 0-1zm-3 7h-1c1 0 1 0 2 1l1-1h-3 1zm-3 0c1-1 2-2 1-3-1 0-1 1-2 2 2-1 0 0 1 1h-1s1 0 1 1v-1h0v1l2-1h-2zm-10-5zm1 1h-1c-1 0 0 0 0-1-1 1-1 1 0 2v-1l2 2c-1-1-1-1-1-2zm4 2l2-1-1-1v1c-1-1 0 0-1 1zm10 3v1l1-2zm2-1v1h1zm126-15h0zm-3 0h0zm-68 14c1 1 2 2 2 1l-1-1h-1zm38-7v-1l-1 1h1zm0-5l1 1-1-1zm53-3l1-1c-1 0-1 0-1 1zm-123 15c1 1 1 1 2 1-1-1-2-1-2-1zm102-3h1-1zm-98 4h-1-1s1 1 2 0zm192-17zm22 10h-1 1zm-232 8zm-2-4v-1 1zm24-4zm-22 7zm0 1h-1 1zm1-1c0 1-1 0-1 0v1s1 0 1-1zm170-13c1-1 1-1 0 0zm-113 1zm2-1c-1 1-1 1-2 1l1 3 1-4z" />
            <path
                d="M1844 680h-1 1zm-173 5v1c0-1 0-1 1-1h-1zm1 0c1 1 1 1 0 0zm76-9c0-1 1-1 1 0h-1zm27-4c1 0 1-1 2 0-1 1-1 0-2 0zm18-1l-1-1c1-2 2-1 1-2 0 3-4 0-4 3h-1c-1-2-1 2-3 2-1-1-1-1-1-2l-1 1c-1 0 0 0 0 0h-2c-1 0-1 1-2 2 0-1 1-1 0-1l-1 1c0-1 1-2 1-2-1-3-1 1-3-1h1c-1-2-2-1-3-3 0 1 3 3 1 4h-1c0-1-1 0-2 0v-2l-2 2c-1 0-1-1-1-2-2 0 1 2-1 2-2-1-3 0-4 1-1 0 0-1-1-1l-1 1v-1c0 1 0 2-1 2 0 2-2-2-4 0v-2c-2 2-2 1-3 3l-2-1c1 1 0 3-1 4l1 1-2 1v-2 1c-1-1-1-2 0-3 0 1 0 1 1 1v-2-1s0 1-1 1v-2 1l-3-1c-2 2-3 4-6 5 1-1 0-2 0-4 1 2 2 0 4 0-1 0-1-1-1-1l-2 1c0-1-1 0-1-1 0 2-2 2-3 2 0 0 0-1 1-1-1-2-2 3-3 1 0 1-2 0-2 0l1-1c-2 0-7 1-7 3v-3l-3 7c0-2-1-6 0-7 0 0-1-1-2 0 0 0 1 2 1 3l-3-3c1 0 0 3-1 3v-3l-2 3c1-1 0-2 0-3h-2l1 1c-3-1-3 3-5 3 0 0 1-3 0-3-1 1-3 6-5 7l-1 1c0-3 3-7 4-9 0 0 0-1-1 0-1-1 1-2 1-2h-3c0 2-2 2-2 3l3-2c0 2-2 5-4 5v-4c0 1-2 1-2 1l1-1c-1-1-2 2-3 1-1 0-2-2-2-1 1 1 1 7 1 8 0 0-3-1-3-2-1-2 1-4 0-5 0 1 0 1-1 1 0 0 1-1 0-1-1 2-3 0-1 2-1 0-1-1-2-1 0 1-1 4-3 5 1-1 0-1 0-2h-5c-1-1-2-1-1-2l-1 1c-2-1 1 0 0-2 0 1-2 1-2 2s2 0 3 0c0 2-2 4-4 5-2 0-1-2-1-1-3-1-3 3-6 2-1-1 0-3 0-4 1 0 2 1 3 1h-1c0-1 1-1 2-1-1-1-6 0-8-1l-1 1h1c1 1-2 2-1 2-1 1-2 2-3 2l-1-2c0 1 1 1 2 1-1 0-3-2-3 0l1 1c-1 0-2 2-4 1 1 2 1 0 2 2-1-2 3 0 2-2 1 2 1 1 3 2-1 0-1-1 0 0v-1h1-1v-1c0-1 2-1 3-1 0 0-1 0 0 1l1-1c0 1 1 2 0 2h1c1 1 2 1 3 1s2-2 1-1l2-1v1c2 0 5-2 7 0 1-1 2-1 3-1v1c1 0 3 1 3 0 1 3 5 1 7 1v-1c1 0 2-1 3-1v-1c1-1 3 0 5 0 0 1 0 1-1 0 3 3 5-1 7 0h2 0 1v1h1v-1c0-1 0-1 1-1 0 2 1-1 2 1 0-1 3-1 3-3v1h2v1l2-2c0 1 1 1 0 2 2-1 2 0 3-2v1c1 0 2-1 2-1 2 2 7 0 11 2-1-3 2 1 2-1 0 1 1 1 0 2 2-1 3 1 4-1 1 0 0 1 0 1h1s0 1-1 1c2 0 2-2 2-4 1 1 2 0 3-1 0 1 1 1-1 2 1 0 4 1 5-1h4-1c1-2 2-1 3-1 2 1 1 0 4 1l-1-1c1-3 3 1 4 0s2 3 3 3v1c2 1 0-2 2-2 0 1-1 2 0 2 1 1 3-3 5-1 0-1-1-1 0-2 1 0 3 2 4 0l1 1c1-1 3-1 3-2 1 4 6-2 6 1h3v1c1 0 2-1 3-2v1c2 0 3 0 5-2v2c0-1 4 1 6 0 3-1 7 3 8-1l2-1c-3 0 0-2-1-3 1 0 3 2 1 2 0 2 3 0 3 2 5 0 10 1 14 1v-2h1c1 1 1 2 0 2 1 0 2-1 2-2 2 1-1 2 0 2h1-1c1-1 1-2 3-1v1h3l-1-2c1 0 2 0 1-1 1 2 7 1 8 1 1-1 3-1 4-1 0 0 0-1 1-1-1 3 2 1 3 3-1-1 4 0 3-2 1 0 0 1 1 2 2-2 5 0 8 0 1-1 0-1 1-2l1 2c1 0 1-2 2-1v-1c6 2 13-2 19 2-1-1 0-1 1-1-1 0 0-1 0-2l2 2c1-2 3 0 3-2 1-1-2-4-2-6-1 2-3-3-5 0-1 0 0-1 0-1-1 1-1 1-3 1l1-1c-4 1-5 0-9-1v1h-1c-1 1 2 0 1 2-1-3-5 0-6-3-1 0 0 1-1 1v1c-1 0-2-1-2-2h1c-1-1-3 0-3 0h1c-3 1-7 0-11 2h1c-3 1-2 0-5 0 0 1-1 1-2 1 1-1-1-1 0-2-3 1-2 1-3 3l-1-1c0 1 0 1-2 2 1-1-1-2 1-3-3-2-5 2-6-1-1 3 3 2 2 2 0 1-1 2-2 2s-2-3-4-3c0-1-1 1-2 0-1 1-2 0-2 2l2-1c-1 1-2 3-4 2 0-1 1-1 1-1 0-1-1 0-1-1s2 0 3-2c0 0-2 2-1 0-1 2-3 0-4 2v-2c0 1-1 1-1 1v-1c-1 1-2-1-3-1 2 0 0 2 2 3-4 1-2-3-6-3 1 0 2 1 1 1 0 0-1 0-2-1-2 1 1 1 0 2-1-1-1 1-2 1v-1c-3-1-1 2-3 2l1-2h-2l1-1c-2 1-2 1-4 1 1 0 0 2-1 2-1-1 1-1-1-1 0-1 1-2 1-1 1 0 1-1 1-1-1-1-2 0-3 0h1l-3 2c0-1 0-1 1-1-1 0-1 0-2 1 0-1 0-2 1-3l-2 1-1-1c-1-1-3 2-5 1v1c-2-1-3-2-5 0l-1-2c-2 0 1 2-1 3-2 0-1-2-1-2-1 1-3 2-4 1h1zm-42 3h0zm53-4zm-109 5h0zm-33 12h0 0zm-9-7v1s1 0 0-1z" />
            <path
                d="M1661 683c0-1 0 0-1 0 0 1 1 1 1 0zm-1 0h-1c0 1 0 0 1 0zm9 3c-1-1 0 1-1 1 0 1 3-2 1-1zm-8-6v1-1zm5 1h-1 1zm-1 0h-1 1zm-3-1h1zm17 1h1c0-1 0-1-1-1v1zm-4-3v1-2 1zm4-1s1-1 0-1c0 1-2 1 0 1zm19 2h-1v2zm16-7c-1 0 0 2-2 1 0 1 2 1 1 1 1 0 2 0 1-2zm-1 2h0zm189 6h1-1zm2-2v2l1-2c-1 0-1 1-1 0zm-131-9h-1l1 1v-1zm13 1h-1l1 1zm10-2h-1c1 0 2 2 1 0zM668 520c-1 0-1 1-1 1 1 0 1-2 1-1zm4-4v1l1-2zm5 0c-1-2-2 1-2 0l-1-1v2c1 0 2-2 3-1zm3 6c-1-1 0-1-1-1v1c0-1 0-1 1 0zm-1 0zm2-1v2c1-1 1-1 0-2zm1-2c0 1 0 1 0 0zm-1 1l1-1c-1 0-1-1-1 1 0-1 0 0 0 0zm-1 0v-2c-1 0-1 2 0 2zm-3-7l-1 1c0-1 1 0 1-1zm8 9v-2l-1 1c1 0 1 0 1 1zm0-2l1-1c-1 0-1 0-1 1zm-3-4l-1 2 1-2zm6 6v1-2zm2 0c-1 1 0 2 0 2s1-1 1-2c0 1-1 1-1 0zm2-1c-1 0-1 1-1 1l1-1zm-5-2v2-2zm0 0h0zm0 0zm-3-1c0-1 1-2 0-4v4zm2-1v1-1zm1 0h-1 1zm3 3l1-1s0-1-1-1v2zm-1-1zm6 0zm-5-1l-1 1c1 0 1-1 1-1zm3 2h-1s1 1 1 0zm-4 0zm0 0v-1 1zm7-11c0 1-1 3-1 1-1 1 0 6 0 9 0-1 0-2 1-3 0 0-2-1-1-3 1 0 1 1 1 2 0-2 1-3 1-6l-1 1v-1zm-2 9v1l1 2v-2h-1v-1zm-2 1c0-2 1-3 1-4-1 0-1 1-2 2 2-1 0 1 1 1 0 1 0 1-1 1 1 0 1 0 1 1v-1h0 2c-1-1-1-1-2 0zm-7-8zm0 1v-1c0 1-1 2 0 2 0 1 1 3 1 3 0-2 0-3-1-4zm4 3l1-1-1-1v2zm6 5v1l1-2zm2-1v2-1zm87-19v-1 1zm-3 0zm-46 18c1 2 1 4 1 2v-2c0 1-1 1-1 0zm26-10l-1 1s1 0 1-1zm0-6l1 1c0-1-1-1-1-1zm37-4v-2c-1 0 0 1 0 2zm-85 20c0 1 1 1 1 1-1-1-1-2-1-1zm70-2c1 0 1-1 1-1-1 0-1 1-1 1zm-68 3h-1c0 1 1 1 1 0zm133-21zm15 15h-1 1zm-160 7zm-2-6c1 0 1-1 1-1s0 1-1 1zm17-5zm-15 10h0zm0 1c-1 0 0 0 0 0zm1 0h-1 1zm117-18v1c1-1 0-1 0-1zm-78 0zm1-1c0 2 0 1-1 1l1 4v-5z" />
            <path
                d="M825 514c0-1 0-1 0 0zm-119 4s0-1 0 0zm1 0c0 1 0 1 0 0zm52-13c0-1 0 0 1 0h-1zm19-5s0-1 0 0c0 2 0 1 0 0zm12-1l-1-1c1-3 2-2 1-4 0 5-3 1-3 6l-1-2c0 1 0 0 1 0-2-2-1 4-3 3v-1l-1 1v-1h-2c0 1 0 2-1 3 0-1 1-1 0-1v1c-1-2 0-3 1-3-1-4-1 2-3-1l1-1c-1-3-1-1-2-3 0 1 2 4 1 5-1 0-1 0-2 1 0-2 0-1-1-1v-3c0 1 0 2-1 3-1 0-1-2-1-3-1-1 1 3 0 3-2-1-2 0-3 2-1-1 0-2-1-3v1c-1 1 0 3-1 3 0 3-2-3-3 0v-3l-2 4-1-1c0 2 0 4-1 5v2l-1 1v-2-3c0 1 0 1 1 2v-4-1l-1 1v-2 1l-2-2c-1 3-2 6-4 7 1-1 0-3 0-5 1 3 2-1 3 0-1-1-1-2-1-2l-1 2c0-2-1-1-1-2 0 4-2 2-2 4 0-2 0-3 1-3-1-2-2 5-3 2 1 0 1 1 1 0-1 1-2 0-2-1h1c-2 0-5 0-5 3v-4l-2 10c0-2-1-9 0-10 0 0-1-1-1 0v4c-1-3-1-1-2-4 1 1 0 5 0 5v-5l-2 4c1-1 0-3 0-4h-2l1 1c-1-1-1 6-3 5v-5c-1 2-2 10-3 11v-1l-1 2c0-3 2-10 3-13-1-1 0-1-1-1-1-1 0-2 0-2h-2c1 2-1 2-1 4l2-2c0 2-1 6-2 6-1-1 0-4 0-5 0 1-2 2-2 1l1-1c-1-1-1 3-2 1-1 0-2-3-2-2 1 3 1 11 1 13 0 0-2-2-2-4-1-2 0-5 0-7v2c-1 0 0-2-1-2 0 3-2 0 0 3-1 0-1-1-2-1 0 2-1 6-2 6 1 0 0-1 0-2-1 0-2-1-4-1v-2l-1 1c-1-2 1 0 0-3 0 2-1 2-1 3 0 2 1 1 2 0 0 3-1 6-3 7-1 1 0-2-1-1-2-1-1 5-3 3-1-2 0-4-1-5 1-1 2 1 3 1l-1-1c0-1 1-1 1-1-1-1-4 0-5-1-1 0-1 1-1 2l1-1c0 2-1 3-1 3 0 1-1 3-2 2l-1-2 1 1c0 1-1-3-2 0l1 1c-1 1-1 4-2 3 0 2 0 0 1 2-1-3 2 0 1-3 1 3 1 1 2 4 0-1 0-2 1-1v-1c-1 0-1-1-1-1 1-2 2-2 2-3 1 1 0 1 0 2l1-1c0 1 1 2 0 3h1c1 1 1 2 2 1 0 0 1-2 1-1l1-1v1c2 0 3-3 5 0 0-1 1-1 2-1v2c1-1 2 1 2 0 1 3 3 0 5 1v-2s1 0 2-1v-2c1-1 2 1 3 1 0 1 0 1 0 0 1 4 3-2 5 0l1 1v-1h1v-1l1-1c0 3 1-1 1 2 0-1 2-1 2-4v1c1 0 1 0 2-1v3l1-3c0 1 1 2 0 3 1-2 1-1 2-3v1c1 0 1-2 2-1 1 3 5 1 7 3 0-4 1 2 2-1v2c1-1 2 2 2-1 1 1 0 1 0 2 0 0 1-1 1 0v1c1 0 1-3 1-6 1 1 1 1 1-1 1 1 1 2 0 2 1 0 3 2 3-1 0 1 1 0 1 0 1 0 1 1 2 0 0-3 1-1 1-1 2 2 1-1 3 1v-1c0-4 2 2 3 0l-1-1c1-1 2 5 3 6 0 0-1 0-1 1 2 2 0-3 2-3 0 1-1 3 0 3 1 1 2-4 3-2v-2c1 0 3 3 3 0l1 1c0-1 2-1 2-3 1 6 4-3 4 3l2-1v1c1 0 1-1 2-2v1c2 1 2 1 3-2l1 2c0-1 2 2 4 0v1c2-2 5 5 5-2l2-1c-2-1 0-3-1-4 1-1 2 2 1 2 0 3 2 1 2 3 3 0 7 2 10 2l-1-3h1c1 1 1 2 0 2 1 2 1-1 1-2 2 1 0 3 0 4l1-1c0-1 0-2 1-2s1 2 1 2h2l-1-2c1-1 1 0 1-2 1 3 5 1 5 2 1-2 2-2 3-2v-2c0 5 2 2 3 5-1-2 3 0 1-3 1 0 1 1 1 3 2-2 4 1 6 0v-3l2 4c0-1 0-4 1-2 0 0-1-1 0-1 4 2 9-3 13 2v-1-2l2 2c0-2 2 0 2-3v1c0-3-2-6-2-9 0 3-2-5-3-1-1 0 0-1 0-1-1 1-1 1-2 1v-1c-2 1-3-1-6-2l1 2c-1 0-1-1-1-1-1 3 1 0 1 3-1-4-4 0-5-4-1 0 1 2 0 2v-1l-1 1s-1-1-1-2h1c-1-2-2 0-2 0-2 1-5 0-7 2v1c-1 2-1-1-3 0 0 1-1 1-1 1 0-1-1-2 0-3-2 2-1 1-3 4v-1c0 1 0 2-1 2 1-1-1-2 0-3-2-3-3 3-4-2-1 4 2 2 1 3 1 1 0 3-1 3 0 0-1-5-3-5h1c-1-1-1 1-2 0-1 2-1-1-1 2h1c-1 0-1 4-3 2 0 0 1-1 1-2 0 0-1 1-1 0 0-3 2-1 3-3-1-1-2 2-2-1 0 4-1 0-2 3v-2l-1 1v-2c0 2-1-2-2-1 2 0 0 2 1 4-2 2-1-5-4-4 1 0 2 1 1 2 0 0-1-1-1-2-2 0 0 2-1 3 0-2 0 1-1 1v-1c-2-1 0 3-2 2l1-2h-1v-2c-1 2-1 1-2 1 0 1 0 3-1 3-1-1 0-2-1-1 0-1 1-3 1-1v-2c0-1-1 0-2 0h1l-2 3v-2s0 1-1 1c0-1 0-3 1-3l-1 1c-1 0-1-1-1-2-1-1-2 3-3 2l-1 1c-1-1-2-2-3 0l-1-3c-1 1 1 3 0 4-2 1-1-2-1-3-1 2-2 4-3 2h1zm-29 4h0zm37-5zm-76 5h0z" />
            <path
                d="M700 521l1-1h-1v1zm-7-11v1c1 0 1 0 0-1zm6 5c0-1 0-1-1-1 0 2 1 2 1 1zm-1-1h-1c0 1 1 1 1 0zm6 5v1c0 2 2-2 0-1zm-5-9v2-1zm3 1l-1 1c1 0 2 0 1-1zm-1 1zm-1-2zm11 2l1-1c0-1 0-1-1-1v2zm-3-5c1 0 1 0 1 1v-2l-1 1zm3-1s1-2 0-2c0 1-1 2 0 2zm13 3v3zm11-9c-1-1 0 2-1 1 0 1 1 1 1 1 0-1 1 0 0-2zm0 2c0 1 0 1-1 1 1 0 1 0 1-1zm130 13l1 1v-2zm2-3v2-2s0 1 0 0zm-91-16v1-1zm9 1v2zm7-3l-1 1c1-1 1 2 1-1z" />
        </g>
        <path
            d="M3034 595h20v28c7-11 16-19 27-24 10-5 21-8 34-8 22 0 40 8 56 24 16 15 23 34 23 56 0 23-7 42-23 58-15 16-34 23-56 23-12 0-23-2-33-7-11-5-20-13-28-23v83h-20V595zm79 15c-17 0-31 6-43 18s-17 27-17 44c0 12 2 23 7 32 6 9 13 17 23 22s20 8 31 8c10 0 20-3 30-8 9-6 16-13 22-23s8-20 8-31-2-21-8-31c-5-10-13-17-22-23-9-5-20-8-31-8zm210-19c24 0 44 8 59 26 14 15 21 34 21 55 0 22-7 40-22 56s-34 24-58 24-43-8-58-24-22-34-22-56c0-21 7-40 21-55 15-17 35-26 59-26zm0 19c-16 0-31 6-42 19-12 12-18 26-18 44 0 11 3 21 8 31 5 9 13 17 22 22s19 8 30 8 21-3 30-8 17-13 22-22c5-10 8-20 8-31 0-18-6-32-18-44-12-13-26-19-42-19zm128-15h20v22c6-9 13-15 19-20 7-4 14-6 21-6 6 0 12 2 18 5l-10 17c-4-2-8-3-11-3-6 0-13 3-19 8-6 6-11 14-14 25-3 9-4 27-4 54v52h-20V595zm130-58h20v58h31v17h-31v137h-20V612h-27v-17h27v-58zm98 58h19v72c0 17 1 29 3 36 3 9 8 17 16 22 8 6 18 8 29 8s20-2 28-8c8-5 13-12 16-21 2-6 3-18 3-37v-72h20v75c0 21-2 37-7 48s-12 19-22 25-23 9-38 9-27-3-37-9c-11-6-18-14-23-25s-7-27-7-49v-74zm330 0h20v122c0 22-2 38-6 48-5 14-14 25-27 32-13 8-28 12-46 12-13 0-25-2-36-6-10-4-19-9-25-15-7-6-13-16-19-28h22c6 11 13 18 23 23 9 5 20 7 34 7s25-2 34-7c10-5 16-11 20-19 4-7 6-20 6-37v-8c-7 10-16 17-27 22s-22 8-35 8c-14 0-27-4-39-11-13-7-23-16-29-28-7-12-11-25-11-39 0-15 4-28 11-40s17-22 29-29c13-8 26-11 40-11 12 0 22 2 32 7s20 12 29 23v-26zm-58 15c-12 0-22 3-32 8-9 6-17 13-22 23-6 9-9 20-9 31 0 17 6 31 17 42 12 11 26 16 44 16 19 0 33-5 44-16s17-26 17-43c0-12-3-22-8-31-5-10-12-17-21-22-10-5-20-8-30-8zm292-15v154h-20v-27c-8 10-17 18-28 23-10 5-21 7-33 7-22 0-41-7-56-23-16-16-23-35-23-58 0-22 8-41 23-56 16-16 34-24 56-24 13 0 24 3 34 8 11 5 20 13 27 24v-28h20zm-79 15c-11 0-21 3-31 8-9 6-16 13-22 23-5 10-8 20-8 31s3 21 8 31c6 10 13 17 22 23 10 5 20 8 31 8 10 0 21-3 30-8 10-5 18-13 23-22s8-20 8-32c0-17-6-32-18-44s-26-18-43-18zm139-75h20v214h-20V535zM2059 9h29v85h47v26h-47v204h-29V120h-40V94h40V9zm230 80c35 0 64 12 88 38 21 23 31 51 31 83s-11 60-33 84-51 35-86 35c-36 0-65-11-87-35s-33-52-33-84 10-60 31-83c24-26 53-38 89-38zm0 29c-25 0-46 9-64 27-17 18-26 40-26 65 0 17 4 32 12 47 8 14 19 25 32 33 14 7 29 11 46 11 16 0 31-4 45-11 13-8 24-19 32-33 8-15 12-30 12-47 0-25-9-47-26-65-18-18-39-27-63-27zm174-24h30v42c11-16 25-28 40-35 15-8 32-12 51-12 33 0 60 11 84 35 23 23 34 51 34 84 0 34-11 63-34 86-23 24-51 35-83 35-19 0-35-3-51-11-15-8-29-19-41-34v124h-30V94zm119 23c-26 0-47 9-65 27-17 18-26 40-26 66 0 18 4 33 12 47 7 14 19 25 33 33 15 8 30 12 46 12s31-4 45-12 25-20 33-34c8-15 13-31 13-47s-5-31-13-46c-8-14-19-26-33-34s-29-12-45-12z"
            fill="text-color" />
        <path
            d="M2729 94h56l46 131 50-131h35l48 129 47-129h56l-83 230h-37l-49-131-51 131h-36l-82-230zm541 0h57v230h-57v-25c-12 11-23 19-34 23-11 5-24 7-37 7-30 0-55-11-77-34s-33-51-33-86 11-64 32-86c21-23 46-34 76-34 14 0 27 2 39 7s23 13 34 23V94zm-61 47c-18 0-33 7-44 19-12 13-18 29-18 49 0 19 6 36 18 49 12 12 27 19 44 19 18 0 33-7 45-19 12-13 18-29 18-50 0-20-6-36-18-48s-27-19-45-19zM3379 6h58v318h-58V6zm110 0h58v183l85-95h72l-99 110 111 120h-71l-98-106v106h-58V6zm273-6c11 0 19 4 26 11 8 7 11 16 11 26 0 11-3 19-10 27-8 7-16 10-26 10s-19-3-26-11c-8-7-11-16-11-26 0-11 3-19 11-26 7-7 15-11 25-11zm-28 94h57v230h-57V94zm109 0h58v24c13-11 25-19 35-23 11-4 22-6 33-6 23 0 42 8 58 23 13 14 20 34 20 60v152h-57V223c0-27-1-45-4-54-2-9-7-16-13-21-6-4-13-7-22-7-12 0-22 4-30 12-9 8-14 19-18 32-1 8-2 23-2 47v92h-58V94zm430 0h57v197c0 38-8 67-23 85-21 25-53 37-95 37-23 0-42-2-57-8s-28-14-39-25c-10-11-18-24-23-40h63c6 7 13 12 22 15s20 5 32 5c15 0 28-3 37-7 10-5 16-11 20-19 4-7 6-20 6-39-10 10-21 18-32 22-11 5-24 7-38 7-31 0-57-11-78-33-22-23-32-51-32-85 0-36 11-65 34-87 20-20 45-30 73-30 13 0 26 2 38 7 11 5 23 13 35 24V94zm-60 49c-18 0-33 6-45 18s-18 27-18 45c0 19 6 35 18 47s28 19 46 19 33-6 44-18c12-12 18-28 18-47s-6-35-18-46c-12-12-27-18-45-18zm182-133h58v84h34v50h-34v180h-58V144h-29V94h29V10zm231 79c22 0 42 5 61 16s34 25 45 44c11 18 16 38 16 60 0 21-6 42-16 60-11 19-26 34-44 45-19 10-39 15-62 15-33 0-61-11-84-35-24-23-35-51-35-85 0-36 13-65 39-89 23-21 50-31 80-31zm1 54c-18 0-33 6-45 18-12 13-18 29-18 48 0 20 6 36 18 48 12 13 26 19 45 19 18 0 33-6 45-19 12-12 18-28 18-48s-6-36-18-48-27-18-45-18zm168-49h58v111c0 21 2 36 4 44 3 9 8 15 15 20 6 5 14 7 24 7s18-2 25-7c6-5 11-11 14-20 3-7 4-21 4-42V94h58v97c0 40-4 68-10 83-8 18-19 31-34 41s-34 14-58 14c-25 0-45-5-61-16-15-12-26-27-33-47-4-14-6-40-6-76V94zm246 0h49v29c6-11 13-20 22-25 9-6 18-9 29-9 7 0 15 2 23 6l-18 49c-7-3-12-5-16-5-9 0-17 6-23 17s-9 32-9 64v104h-57V94zm292 33l-36 36c-14-15-27-22-39-22-6 0-11 1-15 4s-6 6-6 10c0 3 2 6 4 9 2 2 8 6 17 10l21 11c22 11 38 22 46 33 8 12 12 25 12 40 0 21-7 38-22 51-15 14-35 20-61 20-33 0-60-13-80-39l36-38c7 8 15 14 24 19s17 7 24 7 14-2 18-5c5-4 7-8 7-13 0-9-8-18-25-26l-19-10c-37-18-56-42-56-70 0-18 7-33 21-46s32-19 54-19c14 0 28 3 42 10 13 6 24 16 33 28z"
            fill="#296a3f" />
    </g>
</svg>